<mxfile host="Electron" agent="Mozilla/5.0 (Windows NT 10.0; Win64; x64) AppleWebKit/537.36 (KHTML, like Gecko) draw.io/28.2.5 Chrome/138.0.7204.251 Electron/37.6.1 Safari/537.36" version="28.2.5">
  <diagram name="Page-1" id="QRX5vHPfPk8Tppqn_dZw">
    <mxGraphModel dx="2440" dy="1363" grid="1" gridSize="1" guides="1" tooltips="1" connect="1" arrows="1" fold="1" page="1" pageScale="1" pageWidth="850" pageHeight="1100" math="0" shadow="0">
      <root>
        <mxCell id="0" />
        <mxCell id="1" parent="0" />
        <mxCell id="-rQd-odtE4Rxx_igMqNB-7" value="AWS Cloud" style="points=[[0,0],[0.25,0],[0.5,0],[0.75,0],[1,0],[1,0.25],[1,0.5],[1,0.75],[1,1],[0.75,1],[0.5,1],[0.25,1],[0,1],[0,0.75],[0,0.5],[0,0.25]];outlineConnect=0;gradientColor=none;html=1;whiteSpace=wrap;fontSize=12;fontStyle=0;container=1;pointerEvents=0;collapsible=0;recursiveResize=0;shape=mxgraph.aws4.group;grIcon=mxgraph.aws4.group_aws_cloud;strokeColor=#232F3E;fillColor=none;verticalAlign=top;align=left;spacingLeft=30;fontColor=#232F3E;dashed=0;" vertex="1" parent="1">
          <mxGeometry x="356" y="41" width="1076" height="730" as="geometry" />
        </mxCell>
        <mxCell id="-rQd-odtE4Rxx_igMqNB-8" value="VPC" style="points=[[0,0],[0.25,0],[0.5,0],[0.75,0],[1,0],[1,0.25],[1,0.5],[1,0.75],[1,1],[0.75,1],[0.5,1],[0.25,1],[0,1],[0,0.75],[0,0.5],[0,0.25]];outlineConnect=0;gradientColor=none;html=1;whiteSpace=wrap;fontSize=12;fontStyle=0;container=1;pointerEvents=0;collapsible=0;recursiveResize=0;shape=mxgraph.aws4.group;grIcon=mxgraph.aws4.group_vpc2;strokeColor=#8C4FFF;fillColor=none;verticalAlign=top;align=left;spacingLeft=30;fontColor=#AAB7B8;dashed=0;" vertex="1" parent="-rQd-odtE4Rxx_igMqNB-7">
          <mxGeometry x="295" y="42" width="730" height="659" as="geometry" />
        </mxCell>
        <mxCell id="-rQd-odtE4Rxx_igMqNB-9" value="Private subnet" style="points=[[0,0],[0.25,0],[0.5,0],[0.75,0],[1,0],[1,0.25],[1,0.5],[1,0.75],[1,1],[0.75,1],[0.5,1],[0.25,1],[0,1],[0,0.75],[0,0.5],[0,0.25]];outlineConnect=0;gradientColor=none;html=1;whiteSpace=wrap;fontSize=12;fontStyle=0;container=1;pointerEvents=0;collapsible=0;recursiveResize=0;shape=mxgraph.aws4.group;grIcon=mxgraph.aws4.group_security_group;grStroke=0;strokeColor=#00A4A6;fillColor=#E6F6F7;verticalAlign=top;align=left;spacingLeft=30;fontColor=#147EBA;dashed=0;" vertex="1" parent="-rQd-odtE4Rxx_igMqNB-7">
          <mxGeometry x="358" y="358" width="614" height="296" as="geometry" />
        </mxCell>
        <mxCell id="-rQd-odtE4Rxx_igMqNB-1" value="ClickHouse" style="shape=image;verticalLabelPosition=bottom;labelBackgroundColor=default;verticalAlign=top;aspect=fixed;imageAspect=0;image=data:image/webp,UklGRsoDAABXRUJQVlA4WAoAAAAIAAAAswAAswAAVlA4IOoCAABQGQCdASq0ALQAPnU4lkckpCIhLD8YAJAOiU3cLiYcJ8H2n8jfxyp4/+GxLXmA83P+6eoDeFvQz6XzAS/4tNgTBH+3R9PoAdFUruheGSIQAd8gdqRCADtHlMkmoOL5q6NghMW3K/Kjs9zBNntI0ScYnCYxEdWIOsA6wh63S66ki1Nys88OmISWUh/CtdJHCDKXkJSMGxXSflYIjZANwPukNvyMG4jOdVCUjBsV1GuZIWnfW2aV8I1FIIQ39bRGVmQWo6AO1SZFJeDmQkg45MRXDpwAAP7+x8P//WVp/v4+v3tBnizVcCcGQBl93X3jZ6+nBlAq/v/pnlVi/0ZjXY40LF48F9Df9VK9DQn5XPzEgT4jzULm/9YKBZmVCsGvQ9pr47e7fzhJ/RbYOE/HFsbtn4wYGCZ//96uv9/+IzfwCnTjWIhpdxflIn8FU9uxFr/gmLtr0x/dVUTZ77wcvsK3zpd2obbHNL+3JLU1Y6FSDvvSc0cL6iyedTHsmgLuqJ803c8kwdvBvLyQahDfmY7uNLv7X9NVOev1MqkBeP7+tSiZoXFg6Zp6Qen//PZlmvzSdV9Zv2WK+afdR8E0g3EzcHHe2QwET1xVyG2RyQZiG7B/n4x/gqp6ckf+RNfjvvz7eMwuzUL9j+H5nBHvq8mHKxChcIYq3Hf+TptTOGLJaDeoLaOWOzkgT67+1k3OafYOAfEtJH4pu1e7q3Lfj1v5bQt+8N9aeq/1tHjP27s98rtuCKYJ7dt+WjUltE8cqsWFzANOv6JALabV3Ot14KNDNFFuth2YIbeKQPU27MHA9z+Ef2b8yjq66sF2/oU0fVGef5wbVPQk5bzdtCNw7nF9HCeBCdj6w7MQvlHrMIY/3SY5oE2GpajgDBOQ2YskysJNtimggdpWnrOZk/g9WYf9CmVOGktjQLZ06kGexR78Sj5ZcraNpUUuf/4mQ4iyXR4yuLVmvm6pns97Y+4ac4u3T51utALIQAAAAEVYSUa6AAAARXhpZgAASUkqAAgAAAAGABIBAwABAAAAAQAAABoBBQABAAAAVgAAABsBBQABAAAAXgAAACgBAwABAAAAAgAAABMCAwABAAAAAQAAAGmHBAABAAAAZgAAAAAAAABIAAAAAQAAAEgAAAABAAAABgAAkAcABAAAADAyMTABkQcABAAAAAECAwAAoAcABAAAADAxMDABoAMAAQAAAP//AAACoAQAAQAAALQAAAADoAQAAQAAALQAAAAAAAAA;fontStyle=1;strokeWidth=1;fontSize=14;imageBorder=default;" vertex="1" parent="-rQd-odtE4Rxx_igMqNB-9">
          <mxGeometry x="328" y="182" width="80" height="80" as="geometry" />
        </mxCell>
        <mxCell id="-rQd-odtE4Rxx_igMqNB-2" value="" style="shape=image;verticalLabelPosition=bottom;labelBackgroundColor=default;verticalAlign=top;aspect=fixed;imageAspect=0;image=data:image/webp,UklGRgJ9AABXRUJQVlA4WAoAAAAYAAAA8wEA/gEAQUxQSKZFAAAB/yckSPD/eGtEpO7hDdu2ZZKabduP47xq3AcYLAODuwV3C+7ubgmSIBES4liEBNckEDwG5A7uTnCHQHDCYIPMMNZ1nsex/+juq6qu66qq7l93RP8nAAOEGrDibbsCAYPnEjDk2C9ot68LURkkkwyT/0V351fnTECmg2Iq2OkTRieT8fVdA3QQLEB/NZfJSdIT45/GI8hgV8CiDzAa+7XIlzaGyqCWBGz+FqMzp0f2/ADQQSxRHN3jyZnfjH+dF9mglSjOpBsb9sQXV0WQwamAUVfQnE104+dbI8hglGLiDayzycZ0GMIgVIYpTzOy6eY8WUQHmwIWeo6RLXTjGRAZXFIs+jQTW+qRp0FlMClgkWeZ2GI3ngGRwSPBuGeY2PrIMzB4JBj1NyYW0BO/i9ogkaj8mZGFdE8HIwwOKU5nnQV1Tt8SYTAow5E0LwoTP1kWOvgTsMFXdBY38oGRkMEexQL/obHIiedBB3lE9CYmFtqNByMM7mQ4hZEFN368LMJgjuIbyb1oTPynYhBXMPJ5GotvPBZh8EZxIRNL8fEKCIM1AZsnehkYeS1EBmcEI1+ksZzGHaGDMwG/pLE0LwzBoGzAytPoZXHnMcgGYUTwF0aW1vjaQtDBF8WWdJY48uTBGMEjtDI5/zccg64Buxm9THQegTDIItB7mFjqxCdrkMGVgJ2ZWG537oxscAXZvbSSMfFaQAZTBBvQWf45iw+uZLiOVj7jt6CDKIqlPqiGRxFCUCmd5BzYyvBdRpbf+fmKUAA6JNOSiIasNkRFBABEdCBLMPxepgqg86Hv7b7c14YCgAYVKZSIakD/MnrMaAUgA1iKlemszvfuvOzkXVYcjt4hUylEyAS9s6W32Pu7v7jomiuvfuTfj/79ir+dGAa0TqJVhKfkJJk+feUf315pdACgmbRKsgBg2JJ7n37fqx/NYYObQQeqJMOjlUHSLdXr7PPdv5+8zRQAkCDSLFEBsmX3vvAFZ59e74kxxpRSjD28Y6AqZIKJH9Oro093MydJe+/WH60AAJpJMySDYNETbv+UpLubuTvzOuP2yAacRFWAkUv/2iunb7eYSPY8c/rG8wJQkQZEFWO2uWE6yRSNTY38V4AMLAWFYNSGP71nJp3VbdFJ+it/2n0UgBCkPw2CeU96lqRFczbbuBF0ICkoZPQ3/vjfWaQnVrq7p0TW3zx7tSGAhr5UMOakt53JnK00XgsZMAoKhPV/8w6djNHZBi06yceOXw6AKkQw8uh36Smxxc4Zi0AGhkIA8I3bZtLdzNk2zej85Ka9hwAasNWzdDe23ng6sgEgUYUuceSTpEVnu7Xo5LunLI8F/2RMxiImPjkaMtAjAahtdtU0OpOzHVtycsa1L9OSs5Du3ArZAE9QDN/2/khPxrbtnpxMLGzkryEDOaKCsQc+T2c0tnevG4vrfGMMZOAmE9QOfc5p5uyw1x6wERWM2f9lejJ22sYzoQMyEgTDD3+G7omdd+JD3Z2IiDYoIoVQxbD9XzYmYydufH8haBcmGkJQNF9CFlRaEBS1bR+mW2Jn7vSdkHVbGmqCPsOQ0aMX3WC9zY88qve39l53o9XGjRlWQ59SCypNkSBY9lanGTv2Ok9GrXsSVREA0HlW3fSAUy696+lpFpnf08yXH77qtKM2X31eAQARFWlAFfOcMYuW2MFHXgdIdyQhAyAYs9E3z7/t+RnM7X0z95znb7/osLWHAYBmmkMCwsFv0MzZySc+PrYbEpEAYMgi3zjtnmlz2dvqMZl5Hw2apVhP7D33vdtOXG0iAFXpQxUr3ElLzs7e+fGi0G5HM4Fg+FY/uX0ae3s9mjtb7Bbrzt6vXnroohBIJhIw9mczacaO37hit6OZQMZsf92rc0kmM3dnUd3dkpP86M5DFhKoYv3n6cYuMHG7rkYVgnl3uPgjOlmPzjJa3eicfdWuI4ecMZfR2B0c3MVogGD1c152kmbO0rqZk7z9QbqxO0z8OaRrEYzb7f4eMiVn+VOkm7NLNJ7VtQgWPuFFkik5K9FjZNdo/H3XEvBrWjLnAKTxX13MX9nDgUnjnV1LhoeYBizu6mIeHMC4oYt5aADjjG5FBM8MYJzdtWDCa7QBisSTu5fx/xnA2Ac6CLfe4JuzZ+nBAXe33qlxM+9dLcZX5h3gc0sxGVvvFmMyr4jE24ZAupUJr3U+Vo/sO85+9aFHH33k0uOOzX3MCRddfPMjr381q27s0+sxeQXU+XPU0K3Is0wdi5mZO0nOeueZuy/9xaGbz68iImimZLrgGtsd8+u/3PvCx0aS7mbmZfLEIzGkS0GGhzoVj5F9zvn3WXuuu/hIQV5tVAR5xy2/9RG//ucr7DNGLw2NT0xEGEhzT8nJ6c9e8oPdV5g0Ar1DlgWVvpotGrKaoncYs8Suv31wap1kSu7loPGh+SADZJ6ik84Zt5+4MvrWWlBBUUVCVlMAECyw/U9vnkqSlqwMTHxwPEJXEvAXWifhMZGc8/QF+y47BBBVFRGUUERUFUC2yDZnvVInPVoJGHm9inQnF3UObuakvfHPY5dG71pA2SVk6L3OL++ZTtKscDReNRzalZzdMcRE5wcX77AgAIgGQSWKqgDQ1U54iqRFL5hHXgCR7kNxHL0DcE9GTr16+1EChCCoWM0Ekq1x/lt1mnmhyMSfQ7uRAzsAj0b63UdNhkAyRRVLFiAYu9+Ns0lLhXLjsah1IZuz7adETvvT6iMgqoLqFg1AWO33nzlTKhDdevZD6DYEK7Y5MzI99+NxgGSKqpdMBJNO+S/p5oWhc+bGCF3H+NjOPDr93h1GA6KCdigqwHwHvUi3VBgm/m8phG5jxGv0duXmnHH52gESBO1TMsGIQ1+kJysKEx8bD+kqgOxuWnvy5Jx+6YoQBEV71SAYffjzZLKC0HgtVLoLXMLUlpLx81MXC1BFG5YgGHPwa7RUEE/8CUJXofgeYxsy58xLFoZoQJuWIJh4ynv05EWgm++F0E1k2IP1tuOJvHlNQBRtXFWw6K/mMlkR6PxsJWgXEbD2XHqbMePbe0OCoM1LJljhpkTzAjDxsbGQ7kGx6Ju0tuKJ8bxJ0IAOMChkt9eYUgFY53kI3YNA7mZsJ258dgOICjpDVYw7axaTt47G3aFdA2r4Q1tx4xUTEAI6x0yw5uM0K8JHi0G7hgzH0b1tJPYcDQmCTlICxpzSw9gyRt5cg3QLio3msF144iebIAg6zZBhzcdo1ioavwntFgSjPmkXHvnOWgiCzlMUw8+MTN4i52fLQ7sECO6ktQWPvGMhBHSmqtjmPZq3hok3i0jXcApTO0isnzkUAZ2qBix8I81aw8RjELoExeZtwTn3IARBB6vIfmxurXFOmwzpFiZ/RK+8xC+2QyboaDXDtp8weSuYeD20OxDI3xirzjh1TWTodCVghccYW+JuOyPrClDDSZWXOHV1BHTAijH/YPIWMPGp8ZCuIGCDr+iVlvjJGsjQEQcMP53JW8DEH0G7AkH2Cq3KnB+sBUWHLIqfMXoLnF8sBekGEHBxpSV+sjoydMwS8GOaNY+J10G7AsGm9OoyzlobAR20BJxMs+a5cwuE7mDCx/SqMs7cGQEdtSj2qzM1jcb7hqArFJzDWFHuPAw1dNiSYZ8vmJpG4wHQbiDDVjSvJuMpUHTeilVfYWzBf8ZCugDB2KeZKqnOawDpwBCw+DNMzWLiMci6AGT4Da2KEp8cC0VHHrDQU4zNMr67IKQLUKw2h149zg+XgqJDD1jsBaYmMfHn0C4AwAO0ynFPOyBDxx6w3Ie0Jjk/mh/SBSh2Y6ycxF8ioIMP2HAarTlMPA1ZV7DgG7SKMf6rJtLJIcMWdXpzjG9PgXZ+yHA6Y7UYP1gMis4+YP8e96Yw8uiuQLHSNHqVuPueyNDpZzjA6E0xvjgM3WDAX2hVkng+FJ1/hh8xNYXOvaBdgGAteoUYXxgJ6QJEcCFjUxLv6RJwFVNluNtWCOgGRbJ/MTXDOWczhM4PGbale1Uk/g4B3aFg/hdpTWDkRdAuQCD3M1WE8c1JkC4BAat+SmuC88tFoJ0fFJtGVsauCOgaM+wS6Y3R+O2uAILraZUQeQ1E2oU0sXqg+BFTU16BdAOKNZN7BTg/XREBla+aZYImS8iCqlSHINzA2JjTdkboAhBwCWMFGH+MgGqXUAvoszZ6fP4JI4YNC+hbskylGqBY+E1aQ4z8c3egWOITeumML41Blasqeo9eZpN9T73q4U8t5Y3++nMv3nHtmUdvv/5yEwW9RVXKB8WWRm/I+PEy0C4AipNpZXPnHgiVJVkABBO3/MmNj09lKz1+9NydfzxhywXQO6tp2RDwI8aGGHlkdyAY8xStZIl3BkhFqQowZrUT7/2sTpJWj8m8ETOzFOt19ln/8qXz9ltuLABVKZdg6F2MDRnvE3SFAdsm91I556wHRRVrgGD0tuc+bSSZ6smcrXRPKTp79zz5+z3mh0AyLREUK31Ob4TsWR7SDUBxPq1Uxr9BUMESAFn+Vy9H0pK5s6DubslJe/+2/RcQINPyQPFNpoaMP0PoCgTjX6GVyDlrOWj1qAgmHHhPIllPLLynutM58/Jd5gNEpSyCcCNjI4mPQqQbQMDWZl6eyAugqFoNgim/ec3oZs5yupmT/tpZqwDIpBxQLPsRrQHnjHURugIE/IZWGuO0VSpHgmDK2TPImFjymMh40zYjICqlQMA3G2KdJyPrDgTD76KV5zIEVKoEwdJnfUm35Cx/SmT695HjIRrKAITbmBpIvH84pCuA4pjycM5SkErRgAlnfE5Pzop0M9qbJy8MBClBwNen0/PRuQS0W7irNJHnQFChohh+1Hv0ZKzSZM7PTl8colo4BPyKqQHjN7sExfJf0MvhnLMeQoUExZqPGM1YtWbOqT8cAwmFE4x9g97IzV1CDT9jYjkT/wZFZYpi3G/rjMYq9uh895AaVAoGxZ5Mjbw7GtIFCLI7GMvhjN+oEA3Y8HlaclZ0cueD34AGKZYg/JMxl7NnW4QuIGD1Or0cxodRnSq1U+YyOSvcEnsunQ8qhULAJrPoeRh5OmpdgOI4RpYzcn9oRUjAIrcyJVZ8NL5/cEAoFAKupjVwEyCdH8K/aeUwvrFAZQSs/Q6js/I90W6cjCBFEiw+g7mNry8E7fgEq0R6OSJ/gwyVKIKD5jCxLVrk/3aEaoGgOIMxD43rIHR8AT+ls5TOmRsgVIIG/MQ8sU16cp49FkGKE7D8R7Q8kYdDOz0RPMxUDuPjUFShoPZnJmP7tMQnVkEoDmr4PVMe4x/Q8Qes8BGtHM5jq0Ex4jomZzv1yM/3gWphBIt8Qc/hfCV0fDUcxshSOmcvBKkAxcS7mZxt1lg/K4MUBYrfMOWaNR+ksxPgyrIkXoMqUIx9gHW2X0u8dSJCcRb9mJbHNod2evO8SS/LvshQesH4u5nYjj3xpeURCoIMJzP1R+fxCJ2dYj06S2l8czK0dILsFka2aeOnG6FWEMHwV2j9JV6MrNM7hVaOxH8gQ9kFejUj23bkx7shSCGgOJCe516odHj3lMTJfaGlU5xFYxs3j4chK4Zgwvv0HC9OgHZygonvl2b6BEjZMpzA5O2MyeMRCFIEKH7Oej/GT1ZC6OQCtumhl8J4B0ofsPUcGtu7ezoCWSECVp1G68tp30DWydXwAyaWMnJ/aMkUX/+YznbvtMMRioAM1zP1xToPRq2TC/gz66Vwzl0FoVyKCY8zsujuZql/8yqgef1whCIoNkv0/k5B6OAEE55iKkXi/SMg5QIuZ2ShPdUjG63HZKWjMe6MUABAnuwv8XJ08gErR3op6jwLNZQ64FAaC+vJnL176u++9cx99/f54od19mnJS8XEaRsiFEBxJFN/dw2BdHLbMbKMzrQzQqkUq3xWHKs7SXv+8mO2WWedxRYZp6HPeZZeZ8cT//hYD0mmupeIxk+WhxZh8Q9pfRhfHdvJCU5lKoXxfxMhZRIMu4uJhXRzctbzfz548aFobm3Ctr994jOSZu5lYeJri0NbhoDLWe/D+fmkTg64hVaS26Eoc8DxjCyiJZJPn7Z5Db1DFoKq9KsasoDeusrh13xJp6WysM5HRkNblmEv0nvRObmjy96nl+SEcilW/pJeAE/0z67baBSAoIJmiwYFapP3umcmmawkTPwzpGWCYW/S+tkM2rEJlpxdEucKpRLBv5jYcjPytV8sDEEIghaHmkCw3C9fJT15KTzxe8haBcUfc+zYwSl283IY/zMeUqKAvWhsuRk/PX4iRFRQSFURTDrwCTJaGeis74isdZvQ+/l2BxfwYzrLGPkHSIkEY55rnRt7LpgPkgkKrJlAdnkk0rwEdH64EqRFgolv03sZf9TB1XA1UynqPBY1lDfgZBpbnBKf2RSiioKrAkMPeomWSsDEh0ZCWgPFWYx9fa9zE8H95XCmLZCVRzDPW63yxFm/GYEgKGMIGPOTzxm9eEw8E9qiDDvRvI+fdG6KBf5DK4PxzcnQ8mT4HhNbasbHVocGlFSCYMm/JKbieeK2CK0RjHuBqY/rO7eA1T6jlyHxEYiURjD/f2ktcfffjUEQlFcCsv2mMhaOxrcnQ1qCDJf3c03nlmE7ekmuR4bSKk5kYiuNPYchBJRba5h8C82KxsRroNISxS7sbby2kzuCdZbR+QOE8qD2Fr0VxpnbIwjKLgo5uYepaJ64D0JLBGOn0Xtd07kpfsVYCnJ7aGkCDmVLjDO2QYYq1IDN3qEVjM73FoS0AsC/aL3uRejQBLiWqRz1RSFlEcHNjGy+cfY2qKEaJcOUhxi9WEy8FNoSxZGMvV7s4EY9TyuD86OhKG3A2nPpzTPO2A6KygwYcT2TF8vZswWyVgSsUafT+EIHN9+X9DIY79PyKE5mZNONc7dHDRWqomcweaGY+NAoSAsEIx9iovEVSIemWJjOMiaeAymLYMRr9FYcjYBKVcHpNC8UE4+CtgAZzmWk8f35IR2ZBmxbksjjoeVZmy1MPBeCqg04lckL5XxnPkgLAvaim/H9SR1ZEAzd+9mS1Lk9QlkCzqc1LfH+4dDKEcXpdC8SE09F1gLBmDdoif+GoOOWAGz8QGJJjRuXRpA9x9Qs50fLQlG9ovglzYtkfHsKtHkQbDSVnLU1tNMSFax6E5lSOZxfrlSaDFtHerMS90ZAFUvAOYxFYuQPW4KAScf+eCUIOmwNGH/WLLqxpMbXF4aW5qess8mR10ClkqAYcgNjkZyfzgNpAQQABB12QLbru7TE0kbeESDlEAy7k6lJxg8mQ1HRgnmfoBWIxl8gtAKSZYrOWhVL/o1MxvLWeRUylFMxZQa9aUchoLIVK35KL9SbC0Nb0Xmr4sAPmYxlTjwNtdJsTWNzE+8aCqkuBOxh7sVhnSci6x4kYPJ1tMRSu/FEZCUR/LZZ7twOGao8w1lMBTK+MgHSLUjAJm/TjCWj745QmkealXg3RCpNMPIpWnFo3BXaJSiGfD8xOkvXs1VZBBM+pjeHtj0U1R6w0Vx6kR6EdAcB8/yVZiy9c87G0HIoNpzTJOM9EFR9wNlMxXHO2hChG8iw4gtMzir4bDFIOTIcSW9O5HYIlSeY7216YRh5AbLOTxTbvMvorIRpi5alht8wspmJz06AVh4CDmQqjvE/C0I7Pclw6FwaK9E5bUpZAv7apMgzkKH6BSMeYCoMI/dG6PBEcTItsc0Jhj/I1AznF6tA2wAybFmnF8b4L3T4IvobmrPdKRZ6jdYM4+NQtEXFLbTCOKdPgnRyAv0Dzdn2AlaZTm/OSe1jI2dxnUcjdHAiuIR1ZyewZk9znKtA2gMQ7qAVJvH/OjnRcDHN2QFk2IqRTTS+PK5tBOzKVBjj1GWgnZoAlzGySku1HevNiLwUgjYpGPVvpqIw8iBknVqGHzCxwzkCWbtAhh/SvDgXQzq0gJOYvKNx9mzWRgQLfcbCON+bB9KRBexXd2dHY3zza9C2AcF1tKLQuRa0E1NsOJPOyvlssUpJvB+K9qnYnqkwxp93ZAFT3mZi9UxbpFKMZyG0la99QCvO/Z2YYOQjTKygr1aHVgi5D7SNQHEpY3HeHQfpuBSXM7GK6tsiVIczrQVpJxkOpHlBnNPXRui0MhxDYyX1bFExa7QXxRIf0grDvZB1WIqNZtEryXkUss4NigcLw8ifodZZCca9QmMlGU/q8H5TpKug0kmJ4k+MrObI36NWioDNmZqyVtvZmV6UxMfGoKMKOJDGiq7zcmSlUCw1ldaEuEKbEUxKLKpz5nLQDkqw2Kf0qoq8TSDlmOdZpibMGoH2Khj5Aq0gjFwXoXMSwT+ZWNWJz84DLYMg3MnYhNmjIW0FwLVMRUk8GNo5ZTiUiZVtnLpUOZDhatabEFduNwHfZyzO6ZCOSfC1d2jVRePGCKWo4QymJqS12k2GfVgvivEWdM6KK5hY4ZH7lCTD4XRvhOSB0PYSsBnpBXG+rR1TwDZ1epUlngkphWL1r9iY86cI7WblabTCfLUgpDMSjH6UiVVuvAWlfZfWUOI1yNqLYuHXC1TfFNoZBXyLiZXunDq0JIIbm/IAtL0IhjzCVBA6j0boiATzvkuvNjIuAymF4tgmGN9aBNqxGE9H1hFlOJPGyj8IWpJV6Q05uS2yDuYXnVHASp9UX+LlyEohGPsEUyOs8wcdzS87I8GFjKy+xwOkDAg4k/WGEv+VQQZ2BMvNplee8/M1EEqRYatIb4SMSwz0KC6jsfrrPBZZKQS155kaMh4FHdBRrPIFvQ0kXgtIGRDwK1oTHhrgCTiPkW3Q+cWCJRGskNiwc9aGCAM4isWn0toBjTtDSwHgH0yNMPJK6IDOiYxsE9eVJcOOTXDOWQXaTmoPdxfI3qC3i3fHQEohGPkoUyNMvALSTsY81VUE7M926eR+yEqBDIfTvREybgJtG4rF3qZ1EYo7mNoEIy9DKAcw9GVaQ4kPDYO0i4AVPu4mAtafRW8XxrcmQ8uh2IepISaeiNA+1u+hF+cXHdBPWWfbTNyjLIJRDzM15Pzq69A2kWF7GotzeqcjGPMirX0Yb0RZM2yb6I3Q+MgISLvYn/XCkAchdDaKTWhsn87pkyHlgOI6poYYeS5U2oLiFMYC7dX57MDk7YPGnyGURLD45/SGaDwUoS0IziuO07aBdjYAfs3k7SPxqeGQckDxbabGnPVtkLUDhH8xFWfOSpAOR4ALmbxtuHEnZCUR0VsYG2LiJ2sjqz7BmLfpxZm1XMcDQe0mxrbByCtQWsESH9AbovGj9aBtYAqL6/xiGDpfxcibGNsGaStASoKAPWjeEBO/WBuZVJxid3qB/qsdEBSj7mVqG8YLEcqCgFOZGmPih+sjk2oLOItWGON9UOl8oJj/acZ24fx4CWhZoPgrU2M0zt0HqhV3V4FIOxwinQ8CFn6GydsDI3+GrDSC0Y8xNsbE2d8HglSXYNTrRXLGM0W084FiwYeY2oTxzQWhZUHAwq8yNUZL/NvCUK2sgI1n0YtDj/zLcEjng4BR/2TytsDEX5YIirU+ZGqMnvjenoCEQmgIoWg1fIeRRfbE++dD6HygGH0jY3twfjkFUhoErP8xY2P05LxhaUjQlkkGAEEKJcB1BaMnPjIJ0vlApXYx3dsBjechlAc1rP8hU2OkJc46dzlAVKR5oiqYb9XVFhVIkRSLfU4vFlnnzcOgnQ8U8guatQPn7HUQygPFqs8yNoFuzk8vWAECyVSaIVkNggk/fGXmrPcuXgBSqH2ZWPjIvwuk84EEHNbD1AaYeJOizBkWuIvJGyM9GefcvtskBSRTEckhopkAYekz3yPJxPtGQ4ojuJlWPBpPR+iAIBm2eI/Jq4/O7aElQsDwS2ipCaRHOj+8+riVMzRx4hbfuXEGPSX3NIf7ICuMYNEv6CVw4/7IOiAgYKknmbz6jC+Pg5QIKjhuNmMzSDcj+dlTV31z7fGhv2zElH2vfr2HtGTsHflTaGEynEIrA51frgTthBAw/jqaVR4Tf4ZQJkiG1Z+nWTNIej2x91d3XX39db2vvf1/dJL16Oy7hyciFEUEtzCylMYnRkM6Iajgu7OYvOqcM1eFlgkSMOEMY7KmkLRkzkbNnP0nfrlqcQJW+IRWDkaeh9ARQRQbvsrkFUfjXSi7Bmz0NN28OX26pX7NmdtT4g+gKM4xjCype9ocoSOCBCxwnTNVHI3HISsXRDH8pE/oyZrWdEv86AAIijv0cVpZaHx5PKQjAhThqBmMXnUfLgstF6CCyRfPpcViJee9y0FRWMVWLLPxdIQOCRqw7O2keZUx8QYRKRkkEyx3xRd0Ny+GmzmnHS8IKNINtBI5p6+D0CFBFOFbXzKlKqPxBISyASqClc/5gvS6tc6jOaeftThUUdyANb8oFSP/KpAOCdCApe4wmleY84vVEUoHaADmP/7pOulm7k1z92Tsee7ni0MCiqw4l3WW2rg1tGOCBOi+b9OTVxYTHx4FKR8kCDBkq9+9Sic9RnNvyFJ0Oqf/ZafhgAYUWbHMbHrZHoN0ToAGzPPrObRUWTSeCa0AABIEGLvRb1/8yknS6rFBkpz19AlLKyQoiq24iMZyO31PhA4KCIplb4h084py2q7IKgFApgBkqUMvvOO1L9ig86sXb/z28gAkExRcsdoMeskYebtCOimoQrd5kG6pmmicuhRCRUBERQCEhVb6xvZHnfLDvDusOi8AURUUXQT/YGTZ3bkpQkcFqCLs9JDTzKuIxruGQyqiTw01QVM1E5QxYEu6l46JV6HjliAYsvP9JKNVEBPPQVYlAERDlmn+LKigpNnTNFbhnMUhHRYgQTF0hwfr9OTVw8TvI6uWKg04kcYqNP4SoeMCJIhgg6um0ZmsatzTAdDOJGClTyoi8YkM0nkBUEVY8ntv0hmjVwqNszdB1okIsv9jYiU6uS2yjgwIARi63V+mkm5mXh00fvZ1ZB2I4jgmVmSdpyF0aEBQAIsfctMcOj0mrwoaX1gSoeNQrDadXhXGl8ZBOjUAGoDa1w6+7WMjPSZzrwImvjIFocMQjHmUiZVpXB/awQGaCQQL73f2o7PoJGkxJS8ZI59fHNpZKM5nZJWc1uEBoqoAxqy4x28e/iqyGhNfXAKhkwjYj+6V8nTH11uyDL3HrH/oeTc99Hy9dKzz5SkInUPAih/TWKHOTxaHdn4AJARBn9nQXzGVjYnPL4nQKSjGPsfEauF+yLqCvjVktYB5X6aVjZGvLoOsMxCVf9JYrXX+HrUuorfUcBjNy8bItzdFJh2ACM5nYsVG3hYg3QUE4SFa6Zj4+bZQaX+Kk5hYtca3F4F2GVBszipMjEdAtd1lOIrmlePONRG6DQguZSwf3XmaSGhvGXaaTWP11rl3F6JY9E1a+eiJf5kIlTYWsMNMd1av13kItOtAwGH0CqAnPrsKgrYrCdh2No3Vm9xOHQLpPgDcQasAMvKzfaHaniRgzxk0Vm/k7EOg6EYVy31OrwKa89cjEKQNieJYmrNyzfjy+gjSlSDDt5kqgZb4xEoI2nZUcUZ0Y+VG49WToIIuVXA7rRLoiZ8drlBpLwHj/8TkrFpLfG9/aEDXqlj2S3olkGb8vyURQhuRDAs+zOSsWEtMV0+GCrrYgGOZKoJunHaEIki7EMWGrzI5q9WT8/ntAgK6WlH8laki6Mn5fytDgrQDCYLjZjOyUj25881vj0BQdLmCKe/SKoI046e/GAHNqk8CJl1DM1apR3d+9L2FIYruV7Gru1cFmRJf3mUIVCtOBVu+w+SsTjdz8sUTJkCCoBsOOJuxOmhG3rIpoKHCQsDo3yYmZ1WmaHT2XLfrBEAV3bFgxAO06iAtcs61qwCqVRVENnmZZqxAd7cUjc6vHj5hsQwaBF2zYon3aRVCJuOcq9YCJEj1iAqWvTIxGUvs3k/f6T/XfXtFAJIJuukMO9Tdq4RuxtnXrw9IJhUTAoZ+7xOasdTGvq0+9727fn/QOvMLoKrotgN+ylQpJJM779xpLERVKkNUMHyvV2mJpXbnebsffOCBBxy6w8oTM/TWmqI7v5apYmiJtCd/uBAEIUgVaAB0t4cSzVjuxFsFgv4lBBV054qJzzBVDElL5KfXbT4K0KAlEw2CUds9TiZjyZ3vL4agfYqguw9Y+wta5ZDJSH/ml+sMg0AzlZJIUAimfP8Z0iPL7sZ9kWGgULE7k1cP3c3Ir/79ixVUAK1pCTRToLbVNR+RZs7SJ14CxcBhhuNoXj29UySZnvvlFgsBEBFVkYKIqAgwbI3vvUR6TKxA4wvzQAYQRHEGzSuJ9OQk+cbfTlx7KHprLQvSItEsEwC6zHfunEunJVah++yNETCQKII/MVZUb4uJ5Nz3b/veRouMQu8QVFVFJJ/0Vg0AoPOud/Kzs5xeN1Zk5MnIMLCoGPUPpuoi3aKx97RHLjthn1UnobXDl9z5x9e/TictOqsy8Z8iMsAAwYhbaRXW291SIkn/7K0n/n7qMTusPmHcEEjebMSYBdY++Ky7X52aSFoyZ3Ua31gQggHHgHmfYaq2Pj3V687+pz54/T/+3v9f73xxKvv2et1YqcY5myLDAGTAgu/Qqq+3u6Vkzia7JTNn1TqPR4YBScFzTO0hr1vKbc6qTrwcA5QZtkv0dtMuI58cCx2o+A3r7EqNHywJxYCkYOSDTF2Jc9bmUAxMKpY1ejfi7ociYMDiECZ2o8afI2CgUvAPWjdS55+gMmCBoR/Su5DIvwyBYKBSsfqsbiTx3gkQDFhmOJ7OrrPOh+eBYuCyhj8ydh2JD09CwMClQO7qPiIfnB+KAUzFIm/QuozIhyciYCAzYEPSuwqPvH9+KAY0M+zCOrtJT7xlAhQDmwHHM3YTnnjlECgGOAUXMnURyflziGLAU//VRXjiF/tCBAOdgmHP07oFj3xlDQTBAMiYT+ldgifePB8CBkAF4xO7Q0+s/wyiGBhZ2roDT/xwO4hiQFSxEbtCMz60GIJgoGSDrsDoZ41GwECpYsNuwPnJ3lDFAMr+9I7P+PiyCIKBlGO7gMhvIcNAquJbXcHx0AGWY7qCbw+4HNEVnDjgsgE7/8jDBuHq3BxhgGXjzs+N6w6wCFbr/IyfLQsdYJmQOr7El+cfcBk7i97hRd6RQQZYRrzW8dV5IWoYYK09QuvwjCcgG2jBNUydnXP2pggDLIpTGSvAUzRvV8b/jYMMsAQcwnr5zEnSonl7ug+KAdYMWzOVzRNnn/zdp6OTFq0dnTDwErDal/RymfHl9SCy9Ek3/4+km5m3FeeqAy+K8U8xlckj/aJ5EBQQLL7Hha/RScZ68nZhfHEcZKBFFP9iLI+b8fWtEBSAZAHA6PXOeOz9uSQ9mbl79dV5JgIGXGs4u0TJOOe8BRAUfYdMAGDStj+5/qUe9mkxJvMKc3J7ZAMvAXsYvSTR+e8NISrIKSKqAGS+lXY79b6PZhr7jPWYknsVJT43EjLwIljsy3KYOd86WhAEjWuoCXqHJXb9wZ/ufG5qnTm9meUyXoiAAdnny+DJOf1HC0AUTRYJKuhTxi29/g5H/uJP/3jh5TlsZtmYvg4ZiBGcSyuYezJ+evaikIBWi2Y1Rd8yYuTEeb628aYNbrbe75nKZLxHMSCr2JGpUB6NnPa7JSFBUUzVkAUVNFcw4j7GEkXuhzBAs+QsenE8GfnBKVMgQVF06a0NZ1j6I1ppjK8tBB2QEQy5hakglpz0h44cB6iiKhW70r0siaejhoHZGn7AWASPkeT0P242ElAVVKfie0wlcU5bDDJAE7DWl/QWuVly8su7j5oo0ExQrQHnMnkpjGdBMVCreITWArcYSefnt538dQASBFUriksYy+D8csqAzo/pTXKLdSM598MbD11sCKBBUMWKEXeyXoI6f4uAAVvBEnXmdjdLKRn7rL9586mbjoIAWUBVKybcxuhFM364FHTgBsD1nBv77OnpSew/zfj32Yes/zUFICqCChcZfimTF+4nCBjAzbA7E/PGj9999r5rf77viqMCAEhNBVWvyM6nWaGM/xkPGcgRjP32heedf/7551944tHfPmC7rVacMhz9hkwF7VAU3zemArlxXwQMNIcsqKCdimLXT2lemMTbABngkaB912q1WpYFFbRfCVjlCSYriHPW6lAMBgeMO4dMXojEH0AxOKyK3T+gmbcu8e7hkEEiqGLRi52WWuX8ck0EDB4HxaZP0ZO3xngCFIPJqhjynXfoKbUg8a+CwWZVzHfa52SyZhlfXQA62AQJigXO+h+dZs1w1jeBYhBaBZj87VfpjKmxOr8NxeC0BGDk7vd+RVoy9zyJ5yJg0DoEQFb/+ZNO0qL1k3jrSMjgFSAagDHr/vK1uSQtJicTn5oXgkHuEABg5e/e9J8ekjR+vCIyDH6LCgDMt+Exl/37K/5vDSgGySULADB07KrLQTF4LpoFAQDFYLuICv6/zyLasMjglmhN0UzJMhm00kwA6DyLrLPHd3/x6xtuuummc39+4o4rfW00AAk6GJUJgLDs3r+58T91NvjVE388YdMJEEgYZMoUEtY9+/GPSNKtQdI557UrdxkHaBg8UhUMW+fUV0jS6tGcDbrVo9P54dmbDIeoDgpJEIzc/645dFoyNttTIlm/5+ARkCAdmYhmzQzdmipGH/QymaKz1Z6M/t8TxkK04xINggFEVQw99Dm6R2cRPZrzpYOHQLWTkkwAYN5Vttlrz4b32m5oN6aKTZ+gJ3MW1sz58LpQ7ZyCAPPudfEjb34a2XDkHyBdlwQsdAlpicVORr9wAQTpjFQwfJsrvqSTpDdqblsi67ZUsdU7NHMW3c345q4Q7YQCsPe/66RbMm888k4ouuyA4WdGRmcZPZFnj0DoeCRg9fvJFNn0fbqugMl30YwtdHdvGmmJj6+ATDobFT16Ni06m+z8zwh02Rm+/hqTs7meUqxHJ1mvx2jNoRs/2AkqnYyoXEQ3Z9MjT4R2VwHbfM7IZnoy9h3n9vSwT0/JGyMj7XhoByMYchmjsfnGT5fusjJ8czaNTUyJdM6877If7rvDBmutve7Oe/3oiuecpNW9MZrx7KGQjgV6OZOzhZGXIEM3HXC0ubFhNyen3fXjDcZmyCu1r+1/3et1ullDZA+vQ8ca8GMmttI5c11oNxVwGM3YqCcyPvCtFQS9NWQhhJBlCkAwevdLv6CbNZR4bscSsPEsWkuMd0HRRQdsOZvGRs1Yv271YUAIIsgvogrowj/5n3vyfIm3DoV0JoIxjzKxYcsduU1XFbDqpzQ2aMYZ160OQRbQXMkUGHPMW3SzHMY3FoOiM1Ucy8T8npjf+OxYSPckmOdFJjZoxgc2AEQFLVQVTPrxV0zWj3PmRgjoVMe8T89nRs55Ju+T/z0QAV2zQG9iZIOJM04SBEWrJQgWv4GevJcbj0SGDjXgWHo+44wb95hQG5Jb0UUH/IiR+T3y8RWhiiKqIuzxFpOTNJ6DgA5VBHcyMq/xsXXRsHRRig0SPZ87LxkHFRRUAyb/H6Mx8e6hkE4l4Otf0PMk/n00siANdNGCCS8yMbcZvw8NKK4E4Adfsc73lkBAp5rhUNaZM/HmocjQvQecxsjcxp4DEQSFVsUWHzFujoAO9g9MOZzvToaie1esMIOey2n7o4bCZ1jy6eMQ0LEKhj1Gy2H8JgK6ultozOuJhyCg+BIwYRQ6WMH4T+n9Od+bD9LFBeyU6LkSf4ogJQBEpLOZn3kjL4agexfgDkbmTfwTgqCcnc46DRyJWhcXsA3N8xifGg1BF6rYgt6fO7dH1sUh3EVjTufc9RHQ2YpoXinS5rnIbUohonlFqkA0p5RMRPOKtEqwHvMnno4M1R2ynJpHQ9bE5mktoEGpBcknWd7Qku1Qk2a2REImaDAL0kDI8koDkuWV/jRT5NaalkazDA1KLUgDWW4gw1W0PMYXhqGtimhQFFdUAWTzLrPargftf8ABB26+0qKjFUAQydH8xrZBhiKLBgEwYYnltzhk/wMOOHCX1ZaaGAAEkTwFVwUwcrEVtznogAMO2m7FKSMBqEoJRBVAbb6lVt3xoAMO2P/gLVdaYgwAVc3VoGLKe/kSd4BW2JAd9t97nz733n8pCCQAwLDF19t9330a3PvAUZCGJFMIvrb3b//v5cj+P/n3lcdtMASQIH0I5t1rn373PmCbrBV71SZNbHyecdIkVQjm2fpH1zw7w9mnc/qLN/x025EQBO0n+8YBe+/T9757LQjJIRh/4N779L33AWMgkADBwodd9NAX7PfThy8/dgUBNBQsKAQL7376za/OorPvrx674qSNhgMI0s+wfffJixqOZGTOxNuHQipLMM9bNPZ243eQBYFOOfavL33wlbNB5zsTG9MAmXjYvR84SaZ+jSRnvvzrZQIk9ArYMNHZZ+KLoyFNIjn19TffaPj1D24ZCWmCBGDk1n9+p4ckU/9Osuf1P24yFBJ6CUY9zMQ+nfVtEHIoVmVi38aloarQrW+Y6iQtpt5Gkp/d+615IUEKpAGY5+Bb3jeSTP0aSc5+5sxVAQ29BJOYW6B/z+XkrshQYRPfZPLelngsahi215097O2N9vCXUORXQbbuuV/QafVozv491SNJ3rjtcIj2Wr+H5n1GPt+Spia+OKYJIoJFv/8anYx1c/bvFutO52OHj4Wo9HqI0fs09mzdUPS+E5dGhpH7PUky1ZOzX0/1SOfHpy8OUSmICGTNsz6m03uSMaeneiQZ79xuGFT78ryKRWbScxjvg6JdfAfZ7o/T6ZbMGzXOWBshXxB8/R9z6G7mbNzMSH9sW0golDWzzudGNRYUC5/5Id0tORt3Mzpf+uYIBCnQMsB695Bu5mzUkjs//sFIBClEUKxy1Zd0N3M27snI+j3bA0GasDeNufesurdo7O3Go4f8nW6JTU28HYq8oljw3Dm06Gx+SuTVi0MzbFCns8/EF1rS1MQXRjciipHHfExPzuZbcj6xLjT0SuzTWW8ssW/jUji1zmRssifj02tApXUSMO/ZdVpyNj8l5z+XgSomMbfi+lzOt0ehyvORFz3ElNj0wxDyBMF+b9GTsaWejJ8eKlWjAWs9Qjdja5Nx7q9Gozjr/pMpsYVmnPu9GrRVQbHDf+jR2dronH6MSiPQN3NFngFpE6TVaWy285OxyCsY80d6crbenFdPwEZVIoqjZzA5W2+Jjy+DscUg36I7W2vOa0dAWxMw4sLI5Gy5J+ff58H8Daw2nd6fOzdF1jbozqYn/hqSI2CpZxiNhbTI5+ZbJ1ZHwNiraImF9MhpOwwviie23CNvGQ9thWLKvxmNhfTIVxcf38Bh9ByJL8wHbSNsuruvidCfYt2PmJwF9cQnj5pVGYpFHmIyFtU4+8S7CmIsoEfePgravBrWfYPJWVCPfHfHer5zGNl/5NXI0D5aGHlbgPQTsOVnTCxw8mTst2wBi73KxAKb12ex3xYVNPFfNUizMmwznXUW2Djd892Qx53HdARuPAYZ+s6w0XRGFtqYs1XezMjncyimvMw6C+3OKvHEc6DSHMV2XzKx0ObMPfEZphycvR60JVpaKZjx/bGQvhTrfURjc93MzJtBL0xTE1/oTzD+WSY213p7M0gvhaUYY0reEJl4OEJTApb9iInNtd5NYQOLvUfL88kYSEvK3wpPKdcfoOhTsdj7TGzckjNnMm8kb6vmzpzV+Fd8YlRfgqH/x8jGLTlzWvKGchYnOXOaNeKctiykCYoFX2Vk45aYN6WGGlx1Dr0/43NopWDSEfsfWMoDDlkG2qpkJK3fxDX7EQy9g3U2bNFJr7/9xFNPPTUtkrRYBiePXXL1VRv/+jKKPhWnMrJhSyRTfPmJp556/PPkpMWSWSJnPXrRid876ZSrXicZPR8Tb4Q2AXozExtOiaTPeOHJp594YYaRTKkVmzAxz42QFgRsyMgyuvFYZK0x49zn/nzUemuu1efaq9XQt+JUJjbqRn529083n2dIlmW1IVP2Pv+5uXTzEvjWyNB8xU50b8TNOfWOk1cfW8uyLBs+ec8rXog0K5Eb7bGjJyl6S7b+OW/TLJ87d0bWUMCPmdigm9M/+Nu31h5ey7KsNmKlI6/+r9HNm7Yl67l+V1XHtMbNecs2wyHIKX0FbDKX3khyvv+jlZF/zDcu76FZ8bg9hoZm9qFY6B0mNpicz528JPIKRu149WymVBZPfGHPkRBAVQUQLHzGHMZcTLylBmkgYPWv6A14Mj5x0BTkFcy7952kWbO2Zcz1q7ZkfGFzQLIgOdGnYPTjTGzQOP2UsYBm2p9mAln2yuipeNsiQ9MV5zMyvxs/OHE0JASRvkQzhaxwa2IqhxsvG4cQ0L9mig1fpuVi4tbQBlC7m4n5PfLF3YcBIUg/EgIgmz1N8yZ9J1fit6Btx51XToQEQRMVJzExvyfevgQkBOSXTAU7/pfJq0OxTg89nztvXBQSAvJLppADpzKVwd2+BwmC3JphgfuZchkfhOQLOIbG/Ma5vxsNyRT5NROE78+mNed7DezfjngmRAXNFMzzIT2f08/IoIImqmLBO5i8Qu6gMbeZnwIJgiaqYokHGEuQ+FMERcMB4//NlMc5Y2VoHsWktxoxfrEDRAWNiyo2fo/WiSReiiBobsDPaMzt3vMtqKLJAXopU1UEbFOn5zJ+tQsyRZNrmPg3WuGMVyETNDFgygf0HEz8LbI8GX7AyNyJ76yATNFcCVjiaaZmHNfAMVV1bPMSHx0FRXMVE//bSOIRCIKmK/QyxmoQxd8Zmdc5cycEQdMV+BtTwYyvzwtFUwN2oXuue2uQ/gQTX6LlMr6zEjI0P2Dhl2hN2DqX8deQKiL3RGiSc+YGCGhyhqOYmNv4U2SCFqoMuYVWCQFfn0Nv4GhkaKVizKOMxUo8ChmaK4q/M+ZwTl8VoT/FrkzM65yxOQJaGbDi+7TGtmQ919kVNWezphkvQ0CTBUNua8D4D1VBSxUL/pdWBYofMjJv4sVQaQkClv+YXqTEF8ZCmoSA9WfR+2Pk7sj6E9xNy+PGb6KG1tawQ53e0CZMuW5oN5y7JKRZiiXq9DzG9xaBosUB25BeARj6Gj1P4vPzQtHigINpRXL+AgFNFzxMy/VTaD+CKZ/R8xj/CUWrA86nNbTqbHqex9HKMk1bCtqcxOvQiu/QmNON30SGlgf8mal8gjWN+X1PBLRcav/HVBxnXA3SPMUxuYw3CfrNcDyNOZ0zl4O0TDD+fXojS06l9ef8eHgVGf83DtKcyENQQ7MF9+QzPj0E0jrFMl/SSxfwM3oe4x0QtD7DFj30Ar03FC1UrNLA00MgfQVcz5gn8mcIaH3AYUyNzPMsU56vVoM2DxiywKSCzrfArbRcL0PRFOes9RGaJRj/IT2P81AoCqi4hFYB9zDlSdwMWgAobmEqjPFGtGb+92j9Od8Z0Y/ia6/Rchg/WRZaAMXEZ5kawC2MeXgYQisKKxj9Dj3XP5pl/O9C0GYFbD43l/N/41FIxRrlU0x+i5bD+PR4SDG2Ye4WJV7eEsHIB5j6I+tj+wnYiO45Iq9AQBFr+DnNG7iI9f4YeQFqLZGCKpZjbuOpzUp8ZjikWRm+Q2POxHMhhRCMuJ+pZAHrzaDniPwBMhRzxNv04pwKacnwe5u2PyP7d3KfgihWm8lGvk3z/hIfGAJpRVEVx9Pz7dK850Y1r4ZLWM+3A0IhkOGnrJcsw960HM6530AoCC5mKkrk8dDW3NckwS8bmDoKhX2G1sAWc5nDOXsthPIF3MmUh7ZkCURwA2MO47uLQYuyM+nlquFY9rB/4xsTIMXIsA/rxTmhHMCfmXIY74cURPDbhsZ9kIeRx1SAYuH3aDmML46HFA+1e5hyJD44DFIMxTIf0cqlOJsxR+K9CChmwJpz6BWXPUTL9fPCKPZkyqe4h5bD+EANpa/hcCbmjLwMUjzFpJdyRV6HgGIKhr1aNsEFuYx/KIxisXdoFTfk2QYOgBZm9ca+n4v0VSElE+hNjHkSD0GGEizwKi1HnX9CrSAIeIKpSpw/K9DYJ5kqrvZ0rsTNC7TkHHoDq+YzXoJQMsUaNOY0froKQileyZX42+JkeLxkAr2BKddx0III9C7GihvyTAMrFGjyRw0Ixr9Ey/X+4tCy/Tlf4l1QVMCZbUTwJ8auY5GPG0DA6aznYOSpCKVSfH0mPY/zRIRSLPRarjr/1D6gOLeB7xeodh9TxdWebmDjEmXYItJzOD+dDC3XFUzMPX0ypASCUY8w5Yi8BllRFM+UTXBBLuPFCAVRTHqx8oY8m8u4T4GWpzOfCJ5iykHjmaUKWK9Oz5N4JfIWCv9izHV3gBRDMOFNWrky/JD1HIl3FWiZqbSKwz8a+FmBNmBqAAE/oOdxzlwTWh5k99OY17gNQhmQ4c+s5zC+/jVoMQLW/JJerhoOY8xhfCmDFCNgE5pXm+Bsplx/hxTmW40J5p1Gz8HEB0ZAyhJwHJ15Ex8YDilFDb9gyuHODRCKUcMhtJJl2CrR+3N+uSZCUY5gZLUpjmbM4XxTUFDBNbRGIPgNYx4mnoJQkoDVPmvAeSQylCJgH9L7Y+T3oYUQweWMLJdi2am0/ph4JGrFQLibVnEZtmLKNWcjaDEw5F16QwGrTKfncaZNEUqhGPUwE/M63xoNKYdi1Rm5jM8MRSEVi3xKL5mg9jRTjsi/AVIEwRI99IpTLPMRrT8m/ha1QgTsySYg4GKmPDS+uwRCOf7AxNyJ+0FRDgjeoOUguSG0GMfTWDJkuCaXs74ctAgBp9FYcYIh9zHlenE+aAFE8U9GNqZY7gt6HibePxZaOAn4IY25Ex8eBSnPpfmMf0MoAoa8SC+d4hDmNv6xEIoF36w+1HABYw5GHoRQgIBN6d4EKH7JlIuJd4+DFkwU36N5Lve0HQLKotgqn3Pu5gity/B9GksnWHhuLueMFaGty/ATRlZewLaRnsP5ylAUUPQfTGyGYOILtFxM/Nd4hEKJ4gQmZ+7E6xBQooU+pOdg4s01SKsClv+0CgC5jZaDiddBpVWKlb6gVx8w5N1cNP4IWcsC9qazKciwN5PnYuLdE5BJcTTgRHdjbueHi0HKA8V5rOeh8SSEFgnCzUysgID9GPO4c19kLRKVu2hsA4LzaXmcX66FrEUBX3uD1iQIrqflY+JTK0OlKIohZzOxwcSDoChRhi0jPY9zzsYIrQn4JROrQLHw67QcdH62GkJLJMNpTGwHiq/no/GJsdCWCMJNTGzewm/S8jHxw12hQYoQAha4lckbiLxeRMoEwYNMeZj4xpLIWiABhyX3SkCG05jyMPG/S6LWAgn4Zt29LQj0RsY8NP5jNLQFojiXiU1DwHZMno/mPGcMgrZMMsHO7zI58xtfngRBqRT703PR+NpSyJomGQ7qcWc1CBb5lJ6Hif+eDG2aZDic7mwLyLCt0fMw8cYRyJqmIufSvAUI+DmT56MZ39i1BlFpgagIlr7GPLFB48x1EVAuoPYALRcT314XqtIMUYQTkhsrAoqfMeVi4usrQLUpooLjemhsE1Dcy5SLdd40P1SbIorsfNbZzBwQXMvUAN3Yc9fGEGShSZKpYOLPPqIZG3TzA5GhbAFb0TwXjV8cB2hoLFPMey3NWBmCSe/QcjHx4wOAEBrLAsZdQnO2DcG6zvye+Mr6kEwbkixgkdtp3iLFuCcZGyAtsufWrcYAGlREcoiIaACw1I+n0hMbTvwBAkoniiuY8tES71wJElSkHxFRBXZ6h8lZHchwJFM+uvGvywOqItKPiApky5dpzvYBwYWMucjEmb+ZF6IqIn2JSFAMP2wqE5ubBwFLvsXUCD06+fiPVw/oLaHWpwoAwTz7XPEJaYmNeuQlECkfBItOpeWjG6dfuLYAgGa1WqYCQW3rm+nmrBIR3M6Yj2b8/IIVIQA0q9UyRe+N/mpMznaimPwGUz6mxPd/uCAEEK3VakEBYNieDziNrYNilXdojZBuRk5/4nfbLTRSkDMbt8I3//qO0ZOzYTdeFERQAVDsRvN8dDPOvP/4KSMUferwRY57ci7d2dQSQbDUB/R89GScfssBU4Yr+pThU45/eCbd2NQKQ8CORs9HN/pH1+22wBD0HUav/MuXE5OxCMiwwgeM3gjJFEkyPX/977+7z4EHHLD/wadecuvHJOnR2bgnXgwVVAICzmL0fKQnkv781Wceu+8BR/zisucT6dFZNciwC83zkR5JpueuOOOY/fc79leXP03So7PdQHE6YwNkinTOeuDS0w7Zf/+Tfn3DmyQtsvkNIGDVdxibQLqZs2E3YzMt8bwARUWIDLmF1ghpZszt5mx2qRDwc6ZGSDdnbjNnsytNMORG1hshzZy53ZyFQcBCDzJZE/q0FGO9zxgTm50497sIaHYJIJjnMaaGenuK9Xq9HqOxca8ICP7M1FBvi7Fer9djMjbR2wIEox9laqi3pViv1+sxORv3liBg4nU0a1IRLfKTHRCkQhAw+Q1Gb0IrnVWhGHojozehlW5sD1BMeZqxGa20FkFVvjeXsSRufHI5ZIIqgWKpJ5iKZEypIiAY8XdGL5AzzW0TUEx+jrFI5nO8NVDFJi/QkhfPjOmMYQhoYTmgmPggkxXFE1///nR6NUBEL6KnwiTO/cW9TO0BivlvZrKieOJHB9ZbBFGMO98YrWCejC9sBlVUDhSj/0yzYnjk84uuGysDinB0ndEL4ZEzdh36cNuAonYZUyqG1fnqihPZKkAF6z7mbubFcXN+8oPhUEEFQRTHzKKZt8zN+bdJ2LheHZAM679FM2+dJT6xEsY+1D6gisM/YfLWeXL+cz4sUACoYswhr9AtejFScqY/LAtRQSVBFas9REupNR6NX34TGTaoEkjA1/5otNiilJjOHgWMaifQgBVuJZO1KBq//M4wYFIRAA0Yf+LbRkvuLXK3SP/yupUEAS0vD6DIDv8fPbk3zZMxXTMZWjWAKjZ9ih7Nm2eJfGJ9SGgzgCI77B16Mm+aW6L/fUkELQokEww95J65dFp0b5an6CTfOGspiAZUGYJg0hnv0pmSN8GTkfHmLQRBQuVAFbWDniRpyZrgKdH58lHDEVTaDkLApB+9Taclb4InI9O920OCSGEAUWD4Gme9ZyStnqwhT7FOkrP+uev8gKigGK9xTk+/s/lkkSAqWPBbL9Lp9Wh53GKdznjDZgJVIGC9WfW5PX3O5tMNbGZze/qd21PfuigQFYzd8/YekrFunsMt1p30xw+cAFVAMPI+zu7pc26cuWUDq3B2T/+z+J1W3cXZPf3HWS2AqGDBw56m0+vJ8rjFSLJ+67bDoQII5qv35G0JgEyAoZue/eg09vYGSXLOqzccugCATFFMxaR3aOw38YWxRQI0ALL5H16dTZLeP+n84vFfLglIAIAMm9OdfSa+NC7fVnT268bdCgNIJsCKv3h0Bkl6/yRZf+GSDQDJBL3GPsHEPp1ppwZWZWL/kd9v0ahHmZiz3gpAMiDb8KLnekjS+yfJrx4/dVmIBqDXJOZuFSQIBENW2eVH/3h+FvPHd+++5LD15wWAoCiqYNg+3zriyH6POHq3WrEAVQjm2fi4q57tYf/Tnrz4kNVqAIKgt2CBw4/s94ijd6/lESz8zSNzT4YWBpAAYPhaR533wOfOPp1zX7v2pC3GQBAUfdd2PPqII/s+6vDJkByCeY494sj+jzh2JUgLgGz7o484sv+jDh+C1qpCMHrTE65+4ks6ezu/eOLyo9YZBiAI+h5+1JF5W9ZbMwWgo+dbZucDzv7973//+9+d95Nd111gQg0AsiBorxoEwKhJy++x8wnnH7H7DovNOwKABEH1S6YAhs676Na7H/L7b++2xyqTxgqATNH+NQDAiElL7LHb0RcctNsei883AoAGQbMBVlA4IHQ2AAAQ7wCdASr0Af8BPnU4l0iko7+hJTNaO/AOiWNu/Fpr5yCNXw7LLH9v/AD9APZSxgEGwAip+b/u/9E/brxHNB9b/sX7Hf2f9vOqa2t72/1r3OeOHV/nFePfnn+z/wv5hfPX+5f532BfpH/Qfnt9AX8O/m//B/yX+p/aj41P1u9wX9Y/6XqA/on9y/8v+5/f/5d/8Z+0vuN/qn+N/8H+m/4XyAf0H/Pf/z2mP+V7AX9+/5f/2/+3wAfzr/Nf+b2Xv9n+3P/L+RX9q/2//43yD/zr/Jf/r/Yf9H4AP329gD/ef//3I/4B+//uf+Yf07+tfjN+0fzn8Mfxn+I/X78evQ79l/r/yz/aroIyFrfPYzwBcR/9v2K+mf7n0Avaf7n4JGo17o/p/YA/l/m//wvAi+l/7b9wvgA/lX9d/Z33Zv7v9tfNx+j/7T2A/5x/c/TA//Pti/cX/6f9L4Kv1w/+ZM9PFD4HRbEkW0LuWmEl5OEfG4mb4ofA6LYmb4ofAuaw5vl5MrUrvputxh7FsTN8UPgdFsTN8UPIV1ftbtCiTPgu/IfTpo/euIP1g5EHkFQahi6smmP/EsxzMPgdFsTNzLA/x1icNGvia1/9iFCwhmSziyKEC+5EcWzxcBllWdsNTTXtKEmKEVFsTN8UPe0TUrkEPXNAVFnVyDRQs8WxM3FXZkvN4HRbEzfEfAORFQs8WivNy6T4P/6as0R6FarvwQdcW1w/BF84+1l4MHi2Jm+KDvYcrVmHjYQyy3z0v/4Ci7PpMcvu4oMz9vTzn13t90sFMtvt9NjBFp4ofA6I+4GAChTgPEKDlGrZxuFGiDipYnYpVv1zVm8qZvih8DNGNMxFRiRH2a5d4L9hhxCcVu8Mi04I1jSzjOVm/ONit4vtG6b0z4nGOlEkVs42kc3EzfFDxC6HmO9nWBvk9rqsmxn3QcSCxjzQPTncK1s7jHA4/ikn5xXizeXC5agyYmb3R2xYRI1H/6WD2w68JxW0BTaVP4j4hvrn4CiI5mqjBCBhfG7eY89iT3SaGbgY7iQcbgzt33fO8dOYbPElIPfyKN80GvV7ew9MzdXuN7757RaDF5ZFbYkpBVc0F2ppzglGgaAVGnihGi/I+8rawXAmwxJzmJ9suwnCrum7xCaHGwR5OcNTpslCVpoRjFQlTGx/9CIiYYNn7pnM3xQ8hXV+oLApJihJuR+wLp8DZertHwXnClQHb1SwYa2VcU/r7ydNzCo08SA7m4OuE036xK/qRVkUsZT2VRH6PGBVeBGTBD2gxFDW4oUpabotiZuMIvzHRtuqSXDdIzq7XTsO34PYdq3S41jNV/26Mr9yzB42fjz9eb/C7LWYngdFsSWnSFq/WxGhGjVZnQqyiysFhFnzODTUQD//EwVb2jkjSYfQgP6EMjKEzfWwpDlopJaAoTYZ+936iHBKRn0aeKHvbfdHfcd1LBQaER8lKuw4Gb1JYyL6LYjCmbZserzSEgPfff8aNUfUbhCvY2prjJgLIPeQz3URAxLxbEzdbCjnusjcqOXNs466Qq1bw+CxOAH2rWoS0D6uR/VIhFP1v7AC8TJz8HCo08UPfdNOZjtCX/oLYjoYFF3B9/mxZtVUwsui/M2W4WQCv0RXQGuZj5iJQYhXuQ+VWZBxuJm+KHhg9rOJFKt1CS2GEFuHgETS8XHEPEngiDffCo08UPgdFsDaBzwWa015tDPIqKnjzXtDNGKEBcRDBDfCLz4zW2eLYmb4ofA6JC17S7oGGAkaWmJ6jxkBMzM1jj5mkD87MY297Zh8DotiZvih4XEGJlo6vYv7wFasaPUhw/PnsqglDpX5XIPE/Aab4vhsJR2gyYmb4ofA6LTbqN459xB9dE8ZZR2FdOtcPAsC5NoyTwKHRZJvih8Dol1Rx5SyS55QIE8rCi9FixO9OPVoMmJm5p8R94FqH6KL3wwzy96s8WxM3SAMNxAERC0bU2NA0uF7u7BGzvRKdvih5T4te+j9e/jTL6TIHRbEzfFDycZwTjsuYHuuDU+vDIuA8EF5o8DumjQJAeI8EtcorMg8DXwrhuLpvf4JKQjLMC+6L0kTZuD3PEZN1Oa1tbeL1Brf81cfg26JHzftBPiAMlSfrK80+vgBgnETnt0U4hmZGzmUoXMPr2Wn5B/rVjB1C/YRobgnPN+1oDC4Z2n/n+DzT469BT7wiQMEEftScy0/bVLiTT9oYdRKSCMQ8vkM0FYqJbxYdBLGveB8i+WBnABo6t1ApRRB7SeL3vhFToXyR29RrJfZ9/DqICVWOES5sOQ1TzU/veQgN2/mXc6VZxKk9gINWfvk6UGnWt0b3kXDRTR3+OOo85ME9ncID8jtBrmWXXCJYlF7P/MW7aledD2YcDCxkmrXMAekswAFJMw7W0tlOiV83TAaXGuoIpr3HyrgV5UKIRhKod1U8xMTN+eK+sy4R8VQnpkYdAZAZQVjsa4A+lcJODWeIGPPbAruAawsxFZi43efWGq3FtJP6eGbO9b6zweZFuTvmcAdGMgmLfBzqIAu/AeNroxLsg/EQgylkTx5PowIDbJgCoe2G11AAP3gmBVEO0Z0uZK3EvclJ7/Ej7TWjM9uBrKho19pNtQi0HcH1QhRB3E+3+SerGZOmydnhg7dJnq+TFVDM+ENU9T2yDUaXvKeDsvJmEGvESkQhjEwCrHBZ2ye5sUo6x1bl1wDtSfhbH6ZBYdDUCQXDlemMqoVeWPkBBN5anUkXItuVSK617seOOgleTzAFN9iTrlHmt+aCA6oBI+3oiViuWTPdkkFLOIiY+r/kaf/Jw//6jcV9oaqeQUGIrCHey332HAADTEzO0AQ+VD7mo/Li5kUg3lQPi2+OqlBN6FXd9owf6YA/IlyhNcdgKMbuPKQrWbHArAnaqMiuWxg1IS3QhWw875Yv8m1nhw42xROsEQqMM0u759PQ+531GMYJrZT6/TDlYhRy8Uw825/AYqJeYo/GLug3hznuhk6cP2Y7lhf/zZBBQkE0+wFAAAlRhxNtxsSk37gMg727FnoIA/Em5WS/XX57OjwTRktVFHmA48GZLvJfy4njO5dBKZqvYNkmdHrwHv1r7DKz58Y6SWwo0IvD8S9UFb/NAc/+0tS+9rP4DJyshJJJcLytAYZXMfeF4npNd12mUNoDJS4ceLs6Ybqiv+s7Xu8LY65rkVOXpI/f/hE9+OVTcVbEQHjtuiZX9G3UWdusGG9XT9y+wsZuDqFL+x+ZVdkI0FL7uB9O4BWLCWdbQP6BvqEYjeOeTgcJ9tt4zLo9FO5GduQ8jQl7tKDJEVpIEpxkUR+KfAbVJWtdF8bPpUu7HIi46ec8DhJ56mMg50Zcf6v2VdbuijacO+tC4fTfN3aTzVEgV84sOMWFdY8ng5ebD5rZxqDHLZpccAD+70lrkVUBR85PUf/r0+7frpCz2PaXqXWo3DWmkwBD0iKca5vxXYa+hSl/X+T+e/YrXq4B3zn+Fm1LtGeASeXLo89OhrfVBjqgUqSqkCsBjjiNZ8DXfGKAN7dCWow2YvO+qjuaMb7KlB48OlMshpvexlLHRv2BqiemDD0BUJleyz4bMW5PiikMCkKbKt7CmoQJOwvene6ERn/+SXD6O54cDOwNwohBJFJatFI8PY35ZQ6Pqx3IEXwgD9GybOm3T9GfE9IPTrl5IXDlaLrPqYBa027rd/iUgOqzhAAhqs1l56TZl9Z0sMYQGoCd4+dI7XOia1h5y2e8ZfkB33RYUiATbtymtJLsXvxUERwwMt2IoK1nUW1252jczlfQRX8iwtGHep5nU8gXQBjNgA4K6s88kEoYoaOC+quop3SZy1U6vHtalLPCAlLB2RJO1CkUQxY86/byMHGZNTkktVqRvFSEXT608KSy1cn9L36U/L5BCeKNY7jMeccoi6Vf3jadDmGUw4q38i894iayND+VvQgVhL6rbncuM3fhhWi8Vxs9EZW1kLqPcdMNqtKUDBFR/3+AYv1YfgXGMgsh14ii7KRMkCPMr6eBNCAP/pFoe3q7y5gETo6RvVmz1XMcUdysZCSF44fzCyFc9YWEbA44h0FlEbdTu3yWsZx+6h3usnZhcC0nqKOigujOh5Az9eEIZ5pXt9cEfDOehaX7RmvKtToDE3VB+u87xCv6JQhP2qagieiAlfd/gAAAy+kk4/yM2hq+QrFfHdxn1A4LsQC/417o3t8ixM4aoABQJj6am7XXCqrouyAQOti2lYR1CekVeQ3wy+CL955lscvzjkAV5aOczW/I4ragXbHKK4tv1tCHYzbUDgpVvVpb5wltIUu5MfWTyBOC5CF9tqle0PGOhqDDH8tpXcACfesmYfnkRMAelusDh4wmdNSMF4NKlkSQM54V5LpVJ1Rdhdbwy43qumDdMHuizoOQgfOsIOiofyGGhBF8E05vwpqDo3pd25X2Joahpn91ElqoP0MQjg/6UCqkMfJwA9uY6zTY9Po1Pqk5OlSiOXui8mKoHe0l+u2WAetuiZkRLgxOI9NrfzPWLgyEYgN1tySrlDxVEWXKstqzpHa56YhlJSv9qcgnHDX9eNQ5YqA7/z7OY+Tt5eB1A8wjV5rbYOP5mqZ7iuLKeoq0KbN7MBXQAzWYbhgzAqxBLbv5JGGzkEbxclGWKLyMkH/o4kbNNqiEHU0oJW/mDuQ8zHDujhTkC8C5KanrcrH2h9qOgsyWMnBnbhcE41vrd7PWhr+gbKKPI3x+FJagnad+t5tyTH/sV4XYQKq+LtGZlq3RSV+BYYvBvODf2S7qbhLl3ww86xdoZEegiIQxU4BB3zGoNusLT2zl6+sd6DBzFdeVvwBpj5k+1/reb/lIACBu+uBVUz8YmY1Z/PUbfsXk6trn2fNmhaugtr6YGuMpHZiFZzW6AMrDEpmMSVzjGMvH9HBAcbJPzlD8X5MCgbtV8rm6IhP7MzHPvMshCACJN8IM+c6hIimfWT1G8NukPYhtIGxMzxxCKhBTRfP4artP6QYT2rUEFcELCG4bIAI6FYpJuXyttJMoskGbW3TJ/Jr/x4ZseFzLqcK436DVfsAofJnrsEjTrCiOna/P0RUD2jdvclRbjK/wn/fj1afnJNUKoedl7qdaaI9ZrMFlOH4b8uKzsxl0+obkODGazfiYz2hPnFO+WcllOffwPk3in3n71cv/nTmJFEVu5NJPMefsPwTRM7dd/FT9HDfAYyMcn3o4Z5hWAQ7dtchQowIvOFogf5KlIoEYITV01uGOjpr0oiBzJAq3Inl5Ul+6kmM68DwsB0DPVbAxCWX3gfUDzApwAgtwVU8paXWxgPLlubQjQr08sf4KcuVPVYCtTR4PsBDYP/4IH/8Ca//4Av1iLSRi85eeVCEsAiZSJrclUo1KLYLq2ZTaIAATybHo/m3XMPeGFHactKd3ogk1Au1pnNZK6+fa+35kx3EBl3UmRk+IPnMoE8m/JT3rTWN16rEfw2ud+poxfO1W/GM3CP/ZbN48d5vfae5OkPRliKrt7vG9VNACWZqgP7N9Z++W5rvGXtV80+TXU4ugMBA/LJsemkfVv3XSb4aigLn3ON5nfO2KlkCfHQIAWeqFSoIA+TlYKxG+TBVYdyaX8bEU+ECSL5kMkO0kD/UY6NFnMFZy6XtXA7/Qq/RUG10rTpFwIwFJnjbJGjro3kIQi5Y711E5oIvYBT1PJ2YQm33unwpUvqe1az33x7gsb2MEASPka6MuHvuCU46RpizaiJLcKzWPZZZ/G9LtnftHlgJYIAZRbAwByMMwkD5K2dyNK10iWTuJcpY8eOq9KIVRz9UBLjILasdrwGenOWOfTSz9y/kbometl2OMNEeeGyvcfdGUluyqN+gTBKVKT+Y+LqAamyvAAIfkZLekGifvyGbHoIqtcAMjVSZgQYB4ow35tGQvA7tryh6V3hpylg08ozcMJy+EL9nMmEgHWGe+hMd8RsWoshjrCSi5jwQE2JW7VN/7UBmFi/Jttvu7zNwmpIgGf/o08i9h0RrHmyqKDHlQblGK/pg5Nnb+6NLDR95dEcTicoEXTDzxMt12zxS1g45lpw4Zcg1MCN3pU1tk5Bz77QWuGBQAbdRgB99i4yz0VOQlQFd2nPl47pimPgtaPzPoErusgVviFE6qgdbyi/UhM6PW9KZqZJAubdGb9TqKu2iA9dW5oR5fEANzFovBnqZAiDxBup0pLvGZjmiCJmnsufAiQV5L46oTn6obGcWQDNhv5lcSJWrsgRwszBMX3f6ZqGUbSDHVz5aB2FbpsiBcndUdqwYjarQ4dQbf2uz+C6fvPZSMIL9nTcJdHSElDIEV7fwzHbikcgAMZMWJY6MuU8sLS3Z3WqY3odYOH9TjylSpTOvPDuWCSbdaH1ZV7hUe98G2ubEQRY7vPy+go99E+/99djUSgyx5SwkBfi8CKs88YA2P3r6VZjPGNx6Z2K494G1/soirihCrxo57BYN9yzBkfcylx7YmjzlfyPnbpgHE6g2i4scvGp8ubq2gb4L6LCSRXuC+uPF0cf+GPA4pHU7JaeUwgaY8w7ELyChv7Grj6yM9ANFoXUUma1hmwLtcZk/TMC0KWus1n6yjuxvznVsZ4NC2HmrgdzEbSCjmx5IBVEr24ZLusD0VGgPEP+g+6eI1h1ydzs6GeW04uYyWUgXv5TWTVUw1d8QH6zyOazkZF4QP8GHxR9PkDcP7gRL/LMeCNQgb264xSm3wCeghP3u8M73XAqcpymgqH+20p2JFifOCf2YYX2RduqOffWo5s7gCR8WtbV1GtLpb0gVg4e73JYc5Q0PFWEeAGYU1gEkdKsw0KdRga2BGmEetbVRbkyeUWCIRy41auJnInSCXvJIpJcL+Goe19eddYh6zlkN+QHOlzONj/fcUhtxgZA2MpEm6URSeOco9yvEwsl56oYo/mgre1J3HJ4a0VhGWoikSnXbWhWjYpA6gfBrAhZKDLqykSIBwIiQvvaiWpt9DgBphG1s1IMYdNJQyxHVGaL8sNUssZBr+TbLRpa5b1kYZgHhmzw2BCrW7rxIQkQA0lSJhv/yKHiabAJkT50VItgp7ocxWGAd7a2qY8qkpu0EapukdncN4JzNHTIhOCNvE7jB9M8bZd8+3cK+e96SzLqlkK2LeQE7oN38Yg4xWBJsfDEuNKqLdIc7DiCpgg1sDzcbFp/85XuGu79PvJ7GMrkau4eDhpQw54fguVy3tAAOnO1RmK1jccAAIvMd+7LMHa/PYtslf5ce4orrtpkzfWc0sAb7G/RvupVAWJgPbvOdB/ha5pMc6p6Lc/2xFpQM6+Ki4cEXFLeJ7Fu8p0oToX245KWwP/sKDsClJ/umQiS3ddvTxGX/Ps/cfvGsW+X4v1Po4HWeeuifsXNkMFG/xSMeEXtp+1dRFhf35ZmYTKQsIWiKf5XpnMtvjiXwxHpIfYSxdFETrCoIN8Z73+hLtMK57al7dSKux0MwhwjXCxRAq7KHlPWXfED0Ocpv4g+LHajYKHL5W97Y5m7JAAHZ1/Gm68vfEkwkN2L+rALSSUwkoTd9nLvyGMFJUTIMEsFT31n3Elm5VVj0kN7hKV7E0E8FgnnDaz5QrnyF5nh09NIlXD+A9SjNM3tXt2MiQkTSADP4gfFChQLBxmcjR3mx4/kgENZbS4Sfq1ZXAGvqm9TYzGCXFCaNKF4j69n+yMRvQ/ha9M6f4vVywDwARn4HUQAjq9EPdAVg0Hi4eHHefCLwL9/YsQibsvRcK+Qp1TbEtKvWI/vqox967nkWpl4UhHotqWNPW0VLPFHN6UNK1sFe6CVCU1fppAKADRV/alfNEZGg3BfAqEt//9Mq7kO/23+JFl/a6B94gmhrxk/uUNpduOLZfXKdsKdbJyVB/6in08DQDPbyw7iSQsBTg+/eB/oJE5wmsrfRWvZC10Pbl5uvD9+k1W1mcfvqUVcUawQhpri6seaqiEb+dPWnZfdcX3qsGW0LDntG8T/yKgYaryh0fRD8X+fw5hHdHxplW2xKsC2sJNRJpBt81G5GoltqNeToACQBpsirj4+BmvEZgno+zFZ66y17bFA2gPMpDuAcEe5zEhr5MUaM24DeWwX0iUhsY7tHRx0v6ZowKI0kCp5YAA2Xx1Y356YI3hPHoUKlVuZp5WjEwP4Uekfo7P1VWRBIiKili3AQDXO7vknIiuvrGyYbZjoqH+dNbWZd2wFSd12Ro0x/Lqg0VNRzvpwgsxv1EEHc1VbRtTCeaZBswYpyXu1EHvTs5QpXvzWKJCNHGaVYbwPSfddxNKwbd0kqwt2lpClKu6CI9AeXnvXFG/RBiTG0SuFhN5hXe8NhtvkRuT10SKORcUgIrHcWe5U3lJrmCNergmFKJqLzcdWhJTGe2RaV4VSB5dEuOOf4W5bEG4RmxU3Zm8ggwgTxAwwOYkTO6Hey7vJRPTpEgeKTpUHdaqmNaQ8g4yAWfajr52uFhMGNfwC3U7YOzZOc2C7mNzBwBOH5c3NEqRvzckcpSz/4HhiUXtSsnYiLv1y4YI4fYNhqO1AHG3yZVUZML6oJZtGCZRxsDGcSc9A9fcH0wU75hC/3YtQ1T2K4wyjR2aTa8xiFd+Az+EwI7dnZQM58SQZGNSY5153s8OW+Vh7Zo2Xm0zFEdjKlhPdgZ3xCExRLRjiK94wqubo8qSw3QGxMdOWD0ALOCACSSVwYEaeugqzort+03Jm+TGh+gddM0AOnqFwerWtrraiZLCdakH+7M9AfXom4A5w3/wsvS+Ft0yLejyXd2ubRjPBD/AyFUMOEX+srIwlpGAGxYW0ODVWVEZtSvnvbdVhYMtNW91ZHlVWxzZn7oTjbXMWFp+InxQkROG00WO/s0AmraNCVyeQ5hcExNR0DemEf+y7jlJifRGewLb22v4G5WkNlR4oESl32yukZ9TxF48uHPaM4uhh0vGU0kh6d4ATqVawWQLoYAs/1+VDN/m+s+gfR8foS89W+nUBqs5xdVPcd5ilR9h/ZIuYKLuh1Xa0XvhdG9//r+LRjMZGRiuEbOs8skD5RihVMPGcLsUpjtpCmcYp/Bqj+LGFkT8QqcBAG2upNMm7YEz+5MrduBSqTdLGMhgdV7b9gzaWQhm1VaAe8mATlbCA1EfAMp+X8aKZvkUedc3bB4wGJrfUVBJdKH6z95QPdRiIgx5ilHsBVEnAEypZoRmYRw4rEvzn0Rs3+c3trO4IDGK8A/vqBasMGQGqvhbcQuu++UpmkKFeO02mKRDETYsuuQqu8eWdLxXOHtFuNumfQw8VcGqpgtzImvo38h00AUbYbvm/XLWc54jiE996zVt2JMWGMtNCCTusX/3bmAH80DHOKVuFc7GtuPqc5/Cf7QSJe7o3vuovoNMyRqDnDoRMy3ANEuh+N/ns3x6RILccpCEzF1fcrB3CzDTU6dkadP7wIgZvVPcHr0d44v6YrMPbu4VR37hcteoM2yyNm3CNGevyv6JpE2yWvjW25BOj1w+AfpapxDspLfddhO4RNooaLy9AKE5pPIneJsYxYQPvEa/DcTUMuGo5p0mcwTPDBqu5AAHmFMPr8ohsnPXRjepCEnqheH9CxnXDUIqAJi6IzpCZ7B6ihgdImvSFlth1287hx8GBeVyaQ1tUyzc0qOwxWOeJ9ndhVN7IFmnLmZX/o0fmdkja2qtVnj0SzYL3LJRDTzWbTjBqpHCfhIo7jQSHxCCX/JV2FRzWYYDm64Xj5F1gFQr+oBUJ5pB4gsUFzAtlMStX62ABTZdchr6v+HIrLbr3fNVKSdAE8wpw8JHlZKv+J93cvfBroafIy/VCr5g3sYyzU6Zg0VutFzCkN7Qf+SNp2RmJmAPgMTMYSzV2ni/xzkWZADVGmLPHo2Pe/IY/nDzCqKufHzWMVj2ntNv8GucwFRShJkCShpC7M8Ka3wTCPKD3jzuWG67C/U0S4WH1H/S51yW5v5gFv36pmZhA7XrO9HzkaVrpEvNCp0gmROzg/0bdHlshEBgA8P9nMhLv6R121mZr1lRaZUVxT+oJlkJyny58+RuSaG8hffngLnx8g8odSgAW9ptl4CQbKzWeXdYZVASLYcqMLzgtxOXFoFs1gYFz9m03WwHNIR1odnqkxVrbiUbQsg+VUNq+ZdJWVTQH4hZLOjWehrjkcUL+x8F+dwXXXylnndaR9IhSVd4Q5Xx5z/nzAXppljxNJw3awIhB8qivYfNA615LZPslplmETAP5Sltn2JMUgAQNIA/aQQsJGlonmpEd+V9u12Wrsdc6qTpKMNF+afuQ21BgS4DNogwWO/1RLtlWMWPniu7otc/VN7VaM8hPG4AMwLPNMFRjSBUfkO3BVe+EUTlQ44VCDkcGuBxce6h0XEvJqACUC2ZDCD9DgIqgzrEkOY+o27kfD0giyhIJrz1ROQDsoGqfTNltucV9gz7fn3FOZCT9m6MksUiLm5o7c1IO1cUASOfRZjLy9GgSZz3CFqvVCrmSsjTaPSEEkHABVMt1Pz/le6M75tfVUbLOr48jENPI6cjdFcLfNCahOrqtzpYvt8gFinjrwyfFIArJ2jEQKF7UyFMHSB4TYJNfLQBh0FQ/f+BFJmSUJ/yC/Y+7sM/GBOAkXy4OQVkRfxG4UDddutDi5KCVOLToOed7F0Y+uRwsEoiTNEtkGgV4dRINILwfwGXbVHAkVyl/ho3HlfSI0T8W/LLfqFQgdgbPiY6OIusrgk3T2qz+Dv2ATf2Z2J60PHBq8J/pkwzkyPqd9hz2KHEsZivPxDa7925f9emHSsOZRj7k0WU7/pVy+NNE2dYFh3jD5G+XwvRuUp5l/2qNAx621E0t12Ib4+N43Q7Kb5ETp5ChilULq2KG6DiYTZFORZlIcfbx7y6+BPQtjmNno/BIO1CaNJKdBLZ6mdmOonrpOukoRr8wTHNs7vGYGa310+c38SkAIxbUt89NSOmtgKwXXramDDTeqPUiUv3Ii8fgvtZnWKgKe3iV56AVAWhPjqW2bOC/R8ndz7noitvp5aoiA8h7Jxx6V9TTa/SbvlROMIAsn3hvTa2LBeOJIzbd2bmD6/GHqIOXA1UCyo6O1QYZ4RFpZ0KmWPv8lsjgBxBS1jQXq7JhpefB0ciaA5DZJX+QyywFJeN2OFdZCcfZ+72XteT4B0glEt7xKXQWgZxgVp8DNss6UaKON8h6XYfaeW20tvlMR8PJ5WY87jYUcWuwu3toHbQV3YFbRh+iwS8vK/EDt6EDzycmB2xuHPFSJCykM1ZJxdt//X6yISyaDo+8p/yyVQ2pQGtwd1KLdiUHdWwshuD8hiHLN6U/JBBpyf+Rkop2Tfnl7f941L3XUXHeSrD47v2rI5VkPpoY0h8m9TcHCnr0yL8qn7x+rK8abws9PkXNA3QPj5jVZrJeNhpedaqC0NNcTRTOH6Lt/b+JhUrls3ADJdOwb37oAHty7mWbZuy/cVS4kLrgvIHg+C3wgAApcLuyV2ldfFC2oaCI5ToYfwdJ91hNl089Sosx9MDQxAm5vEx+8FnXgtkAKJBeL6JvVo3lkiZ2Ob+3eKPLt4HOrme8X2Cf97Uu0a68YaPY7p3Htbiculf6TRiT2CDzQe1QFa0qH/Ac6QNCdOZyoyINBF2zttZuicJj0LlELpCkYitvziwGN2clio4F7e0OAKsAQCosg0hlALxhDJ1J7c0y92MXW6zuTnCec+B9TNwww6bLmfNCui/sZCrRZmrdPVPrCijUcuUAtzGBFULHByDf6Eu0zpunJ6j5yFCTFmWCw1vzAlUJchxYH58rWSCe4moYoC96LI68pMrp+a9VlSg7pKUYDz84e2Dv2RL7lMIgDtWNLIKK9SMs017JJHJ5wuNJQ+Y58Cu1DdPR0L/lgDNpJwDoiLfk2TX4OeTrlw/vzhGa8gqhbenKkGPciQMjzgIxcwQDts+AAmY6yBKWYHM/BxOMmLOw+ychY6H/x5R3nQmsxY9+J35fsQAqFH/z+PeCNPK8hwfvNS79S6nLjXknSEbf6yLnmXQrgOtGBjVc7CWpK0Xkz4uyeycohXmiuF2lxiGGoxwRp+SIH+HTU0K5k5FyKrInwZ6JJowEbaBsazoxyhkDeHlucaaKgik2acoZxDKpWq1ZjIyL8hcjb8B4OFZNbwovUJyyRasvUzjxtYV2tQ1YdDIIUFmEeyJYMqm0ldreLmddOxofXB6VzwJ0Y1uTEtf0wazneVA0ONmCYKTspaXGDZM8iw4YUAIujWZ7CW83pCFde4AVtEoFsK8AHlqEvKhZCGv/Gs8ykSLxZrupvMcqJw7j5bvMdTMcVb1w17v2C1ky7eEuGMi+wAlIV/wEtmngoSQB4NmIyan6Nkr7rvmJmDoJb59HwlyPkvrZe1GbwgWRfTqOf+D7DBBteKo3ZCnKI1c9N87VW+cQbPMBXqHKNInyVncUiIhnZiJSaucpamPqwqizbid3fKO+f9AKyKbDLvjqa0Xv1CVBiOmI9HDbQeuY7vZLfQPSFZQtnMN0bO4qgpGjFquii4u0W5m33F4Xu1dfF6v4sCxhsU1H4Z7KMkt6xX4eWqwNNP1XvX99HkQpEdsqHhfsN3WhPLJh2+mAs3kQ4spRnCHx1pbgf0YuMvmSnJiABvF9UMp42Fw1D0KO0ofoVYjc8VwIQ3KjA+0MMmCNmJoOXCWKEYetmmR1uW/PydPU85LSMgmudeNn3asmn5DyvSFexGr2QrVwLfJxXJODYmp+yZeVDtElLHP3xksI2zd0g9pZSo6jpn+Rb7fQgVWE9fsR2Pc/ApfiTBClr0JWz5KKS4vqH7I4UJCvp/NJacLl3Zw7k/gCLcoVi3eNJC2YhmrmoqabRcXfeBAd4YDsOh6C915qZGtdNbWMSCJYJANqTUf97XTNkU7Ce7rSdBnBiT42gl1okUYjF0l0FnkzceF3P+72wrq8KoV9Ffsyjsv5D2q5xS1XAGnxHDgFA4TI/DmiaJCd/1XwrvkXoCZQTVXlqZb5G7cp7IpIE76CCxiQv/+kUwwlUVlkj7BiJgAdcm8CxQ3wtLjz8Q1P2mK+5yvHGb89o1s+cIZ3bCsz2mfV4t3OE4iG3st1e6/dm2We0EPWzL3F+RuKIXpbiXjXnGPcQgpc3vQp0ciC7IobyorgQxmM+YTM5uWSW23GRBU5bV8hMYY7SdG6HKerPY793cfwPkyZxTa/QgO22QqYEaF9A/W0HH7CUbRL6xM0C9QKfEXaVK6XEDKL8W1V+HJGZxzB+RIY/yWZsN+rf5suxVIw4yxNiXuAkuU/rtcgNE2qEE5/xa+hNn/QusdR+44zPye/zn84QFTQkI/NVEH0pGYqDgIGrPjeqAWREfSEcAAEAjXAAGaq+misRS5wF321nvxni8lOA6sUDJAbUiJTz3KnoMBp7EAwWPM8Hki4obQ38OylXmhgh85sJEocqTxjU0MgNA+5zy+V7Zdqs/AJNP5lYEg9I4Fi8bWqpK6rs49jvBVijAorY85YXzgmmuJT4xjZm/vJdc8dkEmAFKFmY/dcDyKcAhhXMhKB5v7pCF+AeKAU4pGjCkEvSASZiAxRODu0ulfXvTWaVHXoYAZaPVxd6OM8npWAZBUIdECJjh38giU9PtxUeCzB6mMIwvQt1TegrcMEEpX0N6woEMW3WNRIfrrmaeT0pYhUWXUCm5BldfRBlAFiKv674FMzNNbhPWpnoqJNRRkr3IoW4XuqxMxze2y1LY+3OvE+j2lfs2ngv9tJVhlLW+kHT5anKaRy4FHcekLG0Kyn6ahz+x2Y0i8jaC2cPR/R4Dv7e+/jwiexvaUXC+HZ5ybCOT0T8WcKylW5R86G/azJbadOPU5nLm6QLRa0axmqPcdvNOHN3zjutCK5XbQFlFZabF9+VfIvQJfiEPR+b6gBCQS33oWittCf9OGrZItdHqOejhUhZPlcUayaFn/Eu8HUUJsgAAAAAARBt95n5RwmCWg+2VSkH35VEHiOKfEx0UI1rLpzAvbsTykRy2aJuJWOU1QVJPZ7kL2YtzXhDbKzXwnmFOHgaR96vOKRd5gwSBE7mwnjSZBkADMTa7jPTpYz+z6D2PYulkyS3Py3dMlTVbLJWBroodeJQGs84ykSJDoOGL6e3YB8gq0uZU1r/2sEAeQ46vjfWupblmP/0YZDGNPds+rVCE5spCg3V5asXnM7E26M1uySa634NwAZonoCjyZvRU9vOZXuVH1PZPW8b2ePE7avNPt+Sx0aZ/Ktno1q7r0GXQzHUbyCopW6pZEImsS1HM9CQ1yuY9JcXnG7YG0JlesbM0ddZeF2iWgwpENmFN2T8L5H8aU0CvhSjydIkMok1RQKqw+VzDW5eM9kzjX5oQScfwnmC8JDD7yoGEAaKzfUVLoD8mbLxpmUqlx0o8242FsNemd/Uew2zBj4B0kvPEsvc2/GkyGvZ05NI0nq7YAAMkFY7qzbHV27+k5+Ev6UZu1C3gMfjKBgxMXBtGf1FgfOmnvTbHJgLFGcD340Ad/5ZM3KR619yw5uYIvtdNgP/zn7AA2OGl/IRf8nnwpByQWJzS5ZHgxgdfIsYuyjdvrUO2UaUywvwoVmhlOttP7rSoInQekeCrw5PuEYIMJ1x+h1wlyM2yfPgzvVNVKe5jx9y+8m7/XcJpDFLk+ftvmUcifS6/w+VlVjorZzcEwvdEhAg6CYIypFMFRhC3Qve/0s2MQC8R8pyavZVgYONOO3uDGEU9OuhfTEMcKmaAcVSszQhzHnJ8iFR2NKgOx2P88S8ClJ/yT5ef8TBUjJHOJmJigB9Y/4aEhOwHbrw5fb2Z/jUWeVlZBJ5acZfe+6qnju+FFsVBghWzM+1iTajJdceFbDgyUJecHEDcrH7VwMSQLRhzH510OBc0XWRunq9czMojesnen51Myd8ONCq/ze43HhBeLLsFF+ilXQ4Dn746HD0IeuloxPa4FP1E/VXwBOJATU4nAubN6cd9yiJGRHncw1KR5XFLryY75ei/7bj2S4sLhqI/3q0dC0mDwpT52ma5tIc4IP11RD/xRycA15qKkfEU9P/POxEH5Vzb9FQXIzxy7NmnS9UowncEsJQ5kqyINS9EagFD2GLZYvkpwXOdf3VXZ6rImN3wQt72+CIZJcK3RmbTAmyJBUi6ELw1noTTwmw72FfL2CxUwudVPegLH688AmrUmeQoaYyGjlJfl7mqsQGrAGABovcW9TnmzjD/hvYwVBOeo5aQIZojRMJ+JA8AQ1vB/5+CF+bCY//ttYPlvNIDcUQMCmoJJYVnxdGDPxwg0hTl52Ex8OV5lX1Iuf1+nryteKLUy6acuAItUu0locCGGL3woGDZIpe0WWcjPwMqn3EDSaYoYrFjEruygsQIZYuEsAZeXV9mQN/Rb99nxneuI1a4HXVwBSPGS61BoXWVqvwSatUaAwsMECoWna9j/bIu2Wpy+daNC/tRqMPJ7lWhogOHFtzYucbxijsSHXPkc0dFaBjuD0TFs/aDqFSDpkbiiAVK5BC+ElRuaacY7q63MtMVrOh+cKOh24RkgfPkOkJyaZpzTJBm6ZsbrNf6yUV2Mmqn5vDfcKgNZ4En8c0c1N1I0LtBF2fU8WH8SKVybjb9cIq1TJdOjUW/sMPsLH5p43+p2dKaj28zSIrTLM6HeOQADA8xX26bGd/v/5BCdIUOtpnYzj9YKjAqxKx4Z7KU+MdSegUKpPWlgUpQK8z+F0dc/6Uhc4QmJnmsQutm0uINcBQWvHpTokQP4kuCxZ4cOLMP2CByW7NtyXWOR5u4bb+70PnVV9EFmJ6ngR3eR069sUKSo4+5+rBEuM/BtBW0GXagrddtKh7yOILIdJIAb4rNmyI2yLX9L4mFTh86F7AVepr+CjjduFIgSkwo2eRuUqGyHXDVnvIToFcaRLpmtYZuR4rjweCUun6wGE60pFuNm7kiAZ2mDazpor9J3EBTgZhtlNMJFNAEFsXel6a2oYA6baXCdeSv75bUIxwN0CbA21LFnGHHI5vsGdl+fgX6L8MeXylclWb6aq3XmjSY+wb7IHy8BZxvHJiCpgogYaLptCthigRupL1x/10Q//+2jMoZTGAgu4c//IbjeF/FfOAKrvzw/TuHlKjDWU4fWt0CfPODz34jo5Ay5cs8pAYoi8jW4ZG8apZXn1xSNgA6WXiTEi+YOkhzPBqVZzjhoqT753ME2kX8nFs8HL7ybqF/e6/aPpspoQAiwcI3EPBv3OBE683L+rdiy/0i/1gPx+75x1j16J77UGUpHaQk0kCKJKsPfDfZ/ij0rX/7Wwy9FXw6G/sL7cAKeaGeMle8r0X/YPzq9qSwkbsgE9wIpT4d/wAyMti8nIX4WbiWCGX5HrSEITvI/tQ3gY3yhTUyunk6tOQq6UiTBB3vDkBpyf8TrrWNOouqnO0IUfXkzoJ8F8bDcVAPlmN0zV33NNLEJ6VJeRvR5Z5NU5SXyEwq5DM1onovfFMCR4Tyjj/Swrnb49jvk1irwun+YI8083f+6PlZ2f1ZaDLEEJQ+Zrap+ixw0vsMe39KuU8J6hdyhJRkE09OJfGy7150hkXx/QOCO2lgR2Toi6F10cRSmU0QAjpGPH+R1SKvBhRT4M/0eWGLpbvRdvABZF1b+imVoSP9xx0RGepZDp+EVOQhkP82yu8SqQJ7p6zyXFlCmyzS85Rg041IEEBjvmK4I0HH/4JFcTN3pN1OzFm9doZYcxmU784RmG6M5+X/gU8Er0TpVe0ovkJQ+ofrCMPl+yghDMajpdY0xULcEISFmo6y1EoKNkYx7bvBp1VsuWq6fEYt5t/uTbZOTbyZJM0EhNRcv+ZuCRJuqQquFMdiPbva05BXidSCkMI0u3ImMqe/im4jpF4t2jN571nu2wF8LVK0APWz+k+6Co+nXQZZKfQ8oV8W8py+W5oh1DKH1vl9QALgaFUTazgTZsbMLzBRqBPj3yzVvHCzRnbp+V3Oo5lC4fxS/H8m/q8bzWXqIWkGnXc3b9Y84sD5NkHUIaTsi5EJqujISsDz+W+EaKtFIXygKtjIFy/Exajg/+XD3vk5B0SD7s86cZd8n3wGomWJu8kMxrSHRP100acV3xUcze/4nFv3KbkbTlnXlBHi0PbmMPbpfwYZtmkmiLiDLluIohRZ1OiEyiJyo9PwHN9/E4XZ2JzeOwwCdlGQrvPFcS30/eqhNmlpebY7UZXzY8UvhDUFZch4tDDv7GaV4bOZ/vj5io3wisa8QT+TNTwyEDi/6WnLzmYPU6G+K37In3tTQSU/H2SilQV2dBAZ/Drtyi4ywhQZWPPpWO9rKgQLk3d3t/2XP/0iJxM67bZ72l6i3QE9jB36Cr3DYLWD/v75gY4hroGNfaP5UZStJjW9eAGygVTMcUsR/iAY5xrC/mUpKpRupJXIKgQIsMlU8OFw8RElTss5+V7D8HX0ZKTkjBNtz4dfFC5TyQYLBAwX9oBCpkYAJ4eYVqjYbb1z0CDL36y1S3QmfKpntgU/UivL2c1CfngpLmsPjmz9dcszaqFiymI4V5acEAb1PkbaIrAH6z6/o0DM3/bLobVQKdloIkzP6JdFbvYiz+ts8DwLl8dlScpwty6znVyEwWlIVo7gyCQxleQ8QxJBp3b3uP6OtrSIJLp3mRU6u4UipFXvodStLPElgE/egQ4p1jX/P8HpKFNhKM+IlGQhyFshTTzeOtGfgcZsHDDabxOHBlqR/t2oYD6iD8NunarJ+MM8PrZIZJYQ5EIs4T2KMasVISiDWteQflWAB4qnSoqewjlLEJPW0tZsT+StK/FYm6p3ftrzMbxxwqUFiltvegZW7w3mPpDfsCIuldfm0L5zD3KfPfuWwRsKfN4q1xoApdpTd4k/0MHYIJIYkzt5RuvAO7qXEqKKydbRq94Iqg/UCZy1kCpYobKDV2UrTK1rhWc+94YMEG10SJ2BCueQ8LsNL9cVZHMViM4jzylbEkR1LU0pP+bHWocF2rd1Moa68e0gFjF/0ZPviIksDOmWY0jnWxbSPr1++3ptvshbQXGsfHskYSIm/3wsBZRkDnXPK9qadSP6g36BcaVQEIvt857zVDyzl66DDG5h2KRBwgifff2o6qfLH9YWAE7o9K24J3c1/QGhc5oKPTl3SpirT2/+pTnFHizFYFvJaNQdlgF4pmzj0kmCK5S0TkFw2MVDOXy7N3yP3iyoQDM2dphw1/8zGygTBv1D5ueHbFddO3o6yAPmMeM6W5fjul2GNB3mubLeZuyBva8KSXVfILTpGWsSGHWgGBARigt3ISE0UYXsCvzdrLGs571xnEuPNHHlmvzLJtfu+W7GXgdCdCmdjzEEv+4gqeStzaBYn8se077nFNL8N+5MdD/pbz55/6cUpJT3wTvWkigGSpKAmVrRKcY7CqkSt2abENEaYVhDmFqzgoZWlOVoK810sOZ+BE1zeGSAvvXrgGM3C0xxONCN1BgrPe+N5WiuhEnM9TDLyfoNlnxIey1VwtlaGFzq6KzlWujDdgFWu4kyGdHewdkOtio39/z3PXvpWbfl2CfobtoS+pZIq89SxbWgZr4TqHv0bm42PHCto81Tgb+0j8NhZoopZa5WnkJ+4PgpdHaf8L0QE3FYTxneXaNJY29Qk7pJi8YgXoKJer/YOJ76CJHlEKlDxeULmxIGPkA58sR0MSCc2Fu/TUAAEVYSUa6AAAARXhpZgAASUkqAAgAAAAGABIBAwABAAAAAQAAABoBBQABAAAAVgAAABsBBQABAAAAXgAAACgBAwABAAAAAgAAABMCAwABAAAAAQAAAGmHBAABAAAAZgAAAAAAAABIAAAAAQAAAEgAAAABAAAABgAAkAcABAAAADAyMTABkQcABAAAAAECAwAAoAcABAAAADAxMDABoAMAAQAAAP//AAACoAQAAQAAAPQBAAADoAQAAQAAAP8BAAAAAAAA;" vertex="1" parent="-rQd-odtE4Rxx_igMqNB-9">
          <mxGeometry x="488" y="182" width="78.28" height="80" as="geometry" />
        </mxCell>
        <UserObject label="&lt;img src=&quot;https://cdn.prod.website-files.com/68ed36e99e31581dedf5dc7c/68ed36e99e31581dedf5dce4_a5720d179e00645b59a680ca40cc9200_redpanda-logo-red.svg&quot; alt=&quot;Redpanda logo&quot;&gt;" link="&lt;img src=&quot;https://cdn.prod.website-files.com/68ed36e99e31581dedf5dc7c/68ed36e99e31581dedf5dce4_a5720d179e00645b59a680ca40cc9200_redpanda-logo-red.svg&quot; alt=&quot;Redpanda logo&quot;&gt;" id="-rQd-odtE4Rxx_igMqNB-3">
          <mxCell style="text;whiteSpace=wrap;html=1;" vertex="1" parent="-rQd-odtE4Rxx_igMqNB-9">
            <mxGeometry x="28" y="192" width="230" height="80" as="geometry" />
          </mxCell>
        </UserObject>
        <UserObject label="&lt;img src=&quot;https://cdn.prod.website-files.com/68ed36e99e31581dedf5dc7c/68ed36e99e31581dedf5e0e5_logo_apache-kafka.svg&quot;&gt;" link="&lt;img src=&quot;https://cdn.prod.website-files.com/68ed36e99e31581dedf5dc7c/68ed36e99e31581dedf5e0e5_logo_apache-kafka.svg&quot;&gt;" id="-rQd-odtE4Rxx_igMqNB-4">
          <mxCell style="text;whiteSpace=wrap;html=1;" vertex="1" parent="-rQd-odtE4Rxx_igMqNB-9">
            <mxGeometry x="88" y="232" width="30" height="40" as="geometry" />
          </mxCell>
        </UserObject>
        <mxCell id="-rQd-odtE4Rxx_igMqNB-5" value="Prometheus" style="shape=image;verticalLabelPosition=bottom;labelBackgroundColor=default;verticalAlign=top;aspect=fixed;imageAspect=0;image=data:image/webp,UklGRviBAABXRUJQVlA4WAoAAAAYAAAA8wEA8wEAQUxQSNBJAAABGYZt20aC3Beobv+B094MEf2fAABVYFZQPQr0YmtNE4GejJIr9B1tTR+84FzyAxLgkhSLiYfvopfsvQsv9WVJ8uNLTxTQc9Ts3nv2xdZaMidzYr0kgOpXTF7n/5/mSNOd43093u2zjnf7sce7ffbjff8f/Fc5/AeY7vu+b+Pdfuzxbj+L9/V433eDTKm05HVJxd7ovtEVMlIkmqbFMoSegjUoQ6xoswyxig+6G/1CBymS3Q1rkEJoCtawFCzYgzJ0kOKH7mafKKZINA3rQQqxoj0oQ96egt0oQ1AX64bFFImmYT1MIXQK9qAMeS3a7AohVySahnWQIo2a1qAMIRfsB2WIuSJiAibgz8tC8W8GkCT+9/53bGbyb+5v5W/jb+dvq9P5WxoO/9aGfwtRMRf4fys4ZP8b/ytFUfwvNf4X/uca/2uBGVUU2AbMzU5NQ3GYxxwMBptSAwhCVvSyomg3JpNGrxeyIngavmkhUEkG2PYU+tsb/R2M+p3+qN/pDJvDYVUOWRZCyBwyl5aRHJwFh6LX6/WKdqMxmfQajclg0hhMBoP/mYIbjCUGL/aBENiAECDl1c6fr9lvNpvV0uEwz/OckGXmRiUxtbMQQrvb/Z9qDVr/E/9j/yPj8enp6f/Af9/mpJ0ZgzGQC2wv3gkkCAHblP87Ovs7OTg42DrY6g9DbzJpNNqNRrvdLtptM1fdK203Gu1Go9EY1Mf18bheH9fH4/E4ME1J2ODFNhDCGJWvdv6u+qNRs9PpdKpDBWbTgMsJ0LRu2JPxZu2/6+S/Y+/kv+2vs/HfM2m7PIqRYC+miQjBtgOl1b+zv4vt7dXtgy23u+NBt9VtNZhxA0LcsAHNDNCYDMq2TmuXl7XNWu2y1mZKESHgxTAEEJCioqpnq/1RvzNqNvPAjQYbEEJTiKl1Y1MbY0CKZaY73vhv+W/6bzje/a/a3Rv3QnCwiSVe5BIROzhQmv/d/D2sbf/dHfYZ/A+djk/HE27QQqKsmdOGcghrerS7rW6rVd8/2Vje2NvYuGxTXhIBL1YhbFDM85gfXPe3+p1+R0zXtpEQCITKzGMDxkaSmGZ3+dV/xatn/yWvlsdFyLJgFLEXoYRkBwcA/b38Bf6eLtYONNir7dcaTNcRAaaiGoyQNQ3arXqrXr98ffz6eHd3t6CsFB3wYhIymJjnsbl1vtIfdTo5U9s2USCEqNQGHJAkpqzt3r37X/An/Ql747aLLBCj7cUiEe1gDHT+In+xv8TRYb5/srfR8lSWBCYJbQRoCg/q9fr+yetnr169etWirKSAF38Ag4bNvHO4Our3mzlT2gFJQogENdgmSpSv3X36x92+vXs5yXo9o7jYI4EDARiu/5JbF6s62T2uu5wlIjZJbABhlQnden28+V9397/s5ctnE0olsBdlZMBA3myOVs87zc7QTBlsRSESPthEibKtR0//c/6zbu9uDnqNDCEbebFFQiEY4Owv9fd267y5+V+z0SpnIckm+Q0grBK6rfHpyaOXf8ztp5eUKmJ7MUXGBBg2Ryvb251mzpS2iUikSdugSNmTpx//p/1n/BfVWoN2AdFYiyYRyDCw/ebv7/5O4/XxaVFiiAiTNk15AVmre1rbvf3Zf9LTZUqjkBdDZIIhjvpbf6GzqhQo64AkRFq1DVGUNh58/J/w2dPj1mAQwBgtdkg4A1i5//f193PljeWuAUMUmDRrQAYB3Vb38u5/3kcffFYHUIx4EUPgYKgenB1eVyM9ygZLQqRh2yhSWn/50X/K13drp1kAsLRYEcEB0NGdO38fWj5pZeUiadqIslljMN5796v+Y2q1EkXhRQhBsFH/au1iFEJB2WBJKE2V2lak9PLrjyZxlIfMNkiLDRFsQ3X9H+z+RXt3XGIUSekWWJAN6rdurerysgBiFF5EEDiYONq+OGpm7QalDhGhCmZQ5QJsJODgYNJtuZlnBQZLiwVCZEDn+S+7f97anAQMxEhld4kqWakBhWLr+ZvteHLZA0WxKChwMKycr19UJ90AEASikhuhSALagDTsHwxaY5qxKGyDtNATIgD9i3+YF1fdehtsclHZDYgENaK38nj9qve61gNFsbAXOEDz+vFSp1vPAIIkU9mtCGStVnF1pQQwgMib/e7pqapuZxjQwk2SA+Rr/1B31trdngkop+IbBFxubBZvbsUEQJKw5Wzr8U6n/mrfECMLdYGB8zf3D7r7DQCLym9J9PZevz+NR2+WVrEqX6mNpLya10+7nWYxwAYtxCRsOPgH+Qd4Mxz0THCMCWAQLL+7/Szb+kf4xZUwSoRSB0UXxfj7X/Hv9O9XhyiCF1iCEGC0dH+9sb8JYMlUfivC8ce1eHYFf7HHlySqjQRsfv/lf9Ttu8cDQOAFlBABuH/nx/PTno2lSALaEcbff1lsETn/9iqAEgQwFhSDjf+gf4t/r4+BHC+chB1g9Zf82OluABiZJAx5pH370/z5EMLVhQsskgYQcPfLL//jvnm2DwItjIRsWH3849tJD9uKIhGNaGx888FKHjsN1i8uISgmS6ltSb2Tb/6N/m0+2EeKCyLJmWHnx+fVy01AgElEK6d3+4P+Csiws1YjmY0loPb9b/+q73/YIGRICx0BhtV/oD9itYcdUIwko4k09p7eHkrD0IC188uEAmwT0eT7f59/tT/ch1wsbKUQTP74wxeDV10QCWoJ3n3ZHEHMgOrhSgPkZKIMtJ5++d1P7+dkmaWFiwDD0pMnf4GeyZDyxDBSOH33WV8Ms5KrTgREctsmD9m9v+EwZBAjC1WhwvDmF2vt3QAITIKKyy+zNVCmaPpnoQ1ONEyEcHv74S+eQ8iEFiiWq9cvPhwWOFi5SE4rwstPt6rkLkq2DhqBxLct6c4/2q9tZVWUW154RDJbTz68073bBpGsJtJ4ebKSCwMyo37bWEo2SsDDlV/84zyXMxMXGgLM81vr10AmRSUKFhvfa5UYeyBDs98oIfntjOqTf6w3Z5mJUV5QKIYCLn5vvfE+A6JJVit39uzdSsRMWa1mKQErh9A4+of4R7ogZI5aOAhw9erWw2YBGcpJHNrLm20AT5HHYIxSACIE4q0fn2RFlTx6oSDIAtfffhVvTwDJJK6ofxe2IWZMqWiTIiNk+fY/xk+uyArQggAFee350hEQHCPJKzi+3ekQA9M0ShPKAp2HHx4MhQROf1GFqf7a51cnEyCa5DWx2D/OcmGmGYLyVOE8wkQPf9nbph1iTH0CDV/cOsggWDEmkRjcbWxDzKZTFMMhcmqAGLJA/9bawYCoISHVSfTM+j/R0fsTQDLJayJMPuIMmfIG2r1hB5EmrRihcfbi19aCC0elOBCjtcePZcgURSILNt4Pq9MpbbSrfeQ0gXAGh2+PusORcuyUJmIWfP72L9M5DuBIMhtl+8sAZmpDY9AcSVgpojSCi+2f3x85c5RSGcqk6zfXB0BwTCpg8n5yCArTACaDan9ICg2BuL7Wa0YJ4/QlOYMPP1waTADJJHVk8seEQ4j2FAYG3bzfTyOKEQb9L16s2UZKW7Kt/Pn9swJsokhqwf49jZC5wf0QV1MJDmZ0Xc0HQ5G6IxkM//F+7G4EQCS2S16fDgXTMjDpNg7OMEoZgCRC2Hn7o4ylNKUg8qs7O/kEMsVEoziZDOEGQGazdbCKRQrBGfHssFk/yInB6SmSBVb/Ce486BpEkhvar4oLiGF6kcD++GAbo/RRmuOs+vhzZWQRpyMRUH/98VkGFDFPNET7WbEEMtOX2dy8OkcmpRZoZYf97ZGiURqSyNx8/Fd58zoDD02Cmyh694ozMNM3cFk7PCfaSifKIRSPf9IJdi6nH5Ghs7dHMQBZLpJdMK5RZUZrmyvXQ5mUKgLEHVpnnbZM6lXJ9q3vzltgchLeOJw0IijcgA3dk3x0iAJKJUA0DC7uD/cmDHHKcUE+3Jo0toBA0ltkm/f2AmIGxebuqzqY+WpU6RwU4ct/ja1hTpFyNCRrHtw6KoBI8qFs41kLZN+IFfHyDydgpxYMonh966CZMVSaccHQea8xxDapsDh5NQAxs8efnYCYn1YkAW0kGr3cQwqnmJyiubX65zNSVAoQFJf3JiDNzOsPNkBxnqAkACx8trrVLMjTS0bVIUxEsEmDgqy2O2FmDXvf7BZEPA+s6EGRD6tKAIMmIXOVLK1Eev3rgwMcJVKgiRAulxsQfGM21F8+2jDY84Hwurc16kejCgeO5mDrutMjppNAMxvENspsUmOjvtdmhiX2nz3dBDPXrejB7sbox0OThHYmGnEQqoQU4kh7eNhcIUSJ9Nhq1ArwTFgRv/pomXlox/bd16213xmBEgApBrY6h3mP6HQhFGiGfU+ItkmNdos2sxjef7oBmmMmt599HP8Kj3vgRMB2ZBL23SQoZUTa+XU+IiiKtGiFQVEFNDM23Pv0NUR5jiksv/ph55/j+QkBKQlQVGA0XMvbRKcHW4Em+7FBdCA9Wu4WHWbecPL07iYwpxxh76P68ODD5oAEDY404r46BKUGQqSdrdKnIJIeLTzI+oA9Izbw+sHtU7Dnjolh8OqnOU9WGoGYHEQK+jrMGkSnBQWqcS9rMCSQLt0ITRAzLdF+9sElc1v0PtpbgiWTsIEhjbChKkHpwJFecRiqFI6kSuG2qyDNWCS++lUboDljIlz+h7U6uhjWAStBiC6oFttFj+g0EAPVeBkbDBVImy48BDHjxu8/uuc5BPjZs2aTzmp+ChaJGjSkES/zKiEmnpzTa4/afTJH0qURZWbexsvfPNtE8twZfHfyBDpn2oQQlShEZ/R7K40euZMuZgx1mbXIYyCFBjQ7Eifvnp5C8Fww0eHVvawP+VUck8Ah5rSyEw3J5ESTKXrDbofgSAo1jrMBikye/nQPPDccw729NuRZfqY6VuIQHei0hr2CPCRZzEJOPdaJCiShAc0pjGYHyF5+eQmRORnJPt17DpAfqE4iB0XqsU5OpuQSuB1O+2A5EeZhmC0bnn36GqI8ayaH/W9afQjkK+omE9GmfxramXInVQxZPGxV6yZaJKJKDJo7tkCz45MHL2sGe/bkk/fDJtGBvBMHKJEIUa5X60V0UDIJfPbifUcEmeQ0gOZMQMyuMcsPHpwiM+tW8eDkCGKA2KFBQlsBdV51Q4jRSSQKjd5+uBGIJinbWSdKYKM5YOTMw1lCkfbLjzaZgxKTbzbPwYJhlR5WIiFHwka/11ZIJjN6c3QWQSSikSeTQTwYSSDmpjPnsyb07rs90CyZCBvHPcBAXnVGYlsQO6/qcsRJIzJ483vqgkmO+r3/gHdHD794nkOQKgMme/TpMUizJR6dXEF0KBEBJRUYusujRpdgJY6r1xdLBiUFFlnty7vNw4udnS3mooCeh7Nl49rLVzULzwpWcffkMQgDUTYJbkFfH+9XiXKSiGC2/2oHy+DkEFrbOn19993t9hcfvhkSpNlzEeaAIrUHn51C8MxZEsXTy0OwKBUJZ9i7dxB62EoQFNR5e78IhEBSCjS6UOvls2fLVztvnlvMxbarswUSkwef1sDMoiOcXLYFRiWJHyAM/WAsRGIKMoZ/5voBWCSI0cr28LJO7ddfHz35vE8WNSsybocmeJaA4sFH+xDxjNnRyxsrIgYLwJYwSi4k4sbxVmaQEgICvPkxDrDz5ACs4flocx/f+7h39eKxo5ld4barzLpN9uzjjZJZ9avLaxCmTCAn4Q2DovFZj+SU4R/u/mYbiCSpkQ47py1imPzW8sX9N1WCNAsCt0NzToTLBy8vA7JnxigSX+49Z5ohI48JRxSxdncFUEI4eufDrRPIciUKFqud8QDlxclnk7O3a1jMbmiHzuxhYPnB0xazKBi8bo3AKpdlDBOPAPXLYhk5EaIKju5vTwyRhBW6WhtBZlH/G/5lPms4J8yYXTJoZeDZIori6fen4BmyRfvd7ZcDsMsVk0lASUeOY+OR7DwmgPDWncMxBCUO6OCwA8GS3//h7z+YIGY363YL5qII777fZOYNGz886iLMFINBIAUGdHm7B7lc6SI98qVfdBqASFgJrax2wLZg79/g/7gJsmej16r3wJ4tm+Ld9ycQ5ZkBdj9ahhgBWxAmk4DtpHOk0R46c6ZY4ZDjraMhgEji0VUfsIl0/yP+PR4YMauNVtfMzbDx7n3LYsb9/tMNEFOHbisjBTpC5yQ/i0RcyURmOv+/pWUIiskj1N/qAMhWVvvsT385Ac+cGQwaoNmzgb0HD1oQPANWpPfq6w0ILhNFGJ8WaQACLH/+cGIHVMFKV54chkBiD0fNEmzBvT/7H7LJrLbHA+aooH77mzozLLH36lkXXA6Rne73UoFDJNw/D1UQFVwK/PzWMxMUk0l0hioBw/h3/3ADRXtmjOv73Tkjiqcf1EG6MQeoPX1/Cpips9PNAqUAiIGV0eNbPXJVLmXi4sXWJlhKJsjzWA4o3n//zV7GzIfWZmOuAMW7by4hMrN73+wGItMt9msFKTFErbxZa6NQsSIhrL/pDIBIckvlrAivf/27AXhGbOie9kB4Dtj07v2w2wOHGxNsfLwHMU5hyC5PehCVBsjp31rrX9l5rFAW/W+PliEoyaYrUftz352CZgQI4/0eROZq9vrRbht8Y8DyNxvcYFHbaIBIh4Hq6HytINqVSMqstQ+3GyASPIQwhW3qH/30BMmeAYPHtTZoTtgRuk9/aAG+AStSLD+4hBCmsCku97qAnQoktn5c6maEqAoE+P7jDHCiZdPAkG08fXqSMdNhfNlg7orJg8+6SNwIcLm7OwAzXXcvN0mTw6P+cNWICmzg917chSxPMNMumIZyWP7yswb2DETh08v23DG0n37WBeFp2bD/7t4+NwKnG5cFOBWIAM076/vgiiPs/Ml5bINMgvcG7WmUrX30WRsxkxGPLxvgOQL0Xj3YKLnxzZevCySmKxi8Xu6RHiMrj1faOUiVRoGH98cFQTmJbdxoNQCVs6H+/TcNJPsGbEEY1+ZWtn/32WkA39Dl0xPIp2MLGrv3GthOBYqEfHu0vWbyCqMAK59fvAeLRJ+UmdrQvfv0NYgZ7dX2GsxhQe3us8kNCWovT7hh0d7dbSNSoxVH69sD5Ioigjs7zw+ASHLbeDJuA/Y06D764bjAnonByUkP7LlhSzSe3u4CnoaJUwRPD3plpJQgRa6+vRpEW6ogpbee1MEowUq7pw0Q04xw8s2zjJl02NxsMccbT28PkJiuoLfxbJMZbL961gKRHs2WVs4yRAW14WcP70GIiWZcr7UhaipF6H78sjcDxuPlMaC59fJpFyKeBlB7/boN9rRs2u/vnoLslCCC6D88q4ErhhSoPjlwATLJ7nqtAWK6on77bg/pBmy8v9ECMad7995tMH1D63ivhbjxUH993AqY9BgZ7bioQlQFefGiXpDFnKQ7PZkwbQdoPX3URbJvJNSWByWeMwZ3Xz27zMBT2HB6dy9D8vQMcPnoXhucFhTJ4tXwfDuQVwgFaH6+/prEV8Sne4PpYSiW3x8XYG7Ul8fdkrks2Lz7rDGd0tNXlwGJGxW03j1qI1KkY+w/X6mjUBFECMO1pVUgpoD95QF4Woaw/G45w56WRKjtDuaWLdF4+mAAeDrjV5tC3KhiZPL06SRVSJHth8M6DlIFKL24081w4gFF7YYgwund3QxuiMvdFngOAaJx924biSkF9Xs18A2VlkHpAWFGvdGWERXy82+fmSAlmg1MTl6XeDqK0Hp5r2DatiLZyW53zkHj0aMJRFxiIozfbxr7RmwzeffyFGSnBhykzv3OuCLEzPHoojkBkfy+PNk3YvqG1rtjEzWNsq3l48E8aN97tM8N1nb3wdywTbb56lk9YFKkog6WwiS343wTZucWPYLypDPeP74suOGSZ8cFivZ0TG15LwM8l2yy092NnqcS1C832sykEWx8c7cBTg+KhOGaOytm3mG4f+eSFGjj2vtT0AwM7r1uMX3j/eNaAZg5BqfHe8UUht7eSR00A5SMP3vQQ6RL5exUW8jzSzbVO4/rVvJhfPJoDBFPy0C2sVzD07Hx3qN9EHNd0N193cMGbGgdn7SZWUl0P/immz589qLYwNZ8UoSzz71JICaf0F7JDRugdq9mPBXgvVd1iJoH7dcbBUzVPd430kxg6P7wTQ1impBw56BR3YKoeUSEN3dOC5wCFAkbd+szAILxq72APb1HdRBzXBK9jY0e02wd70PEvjEbeu+fvu8G7PSAbDV13mkTmceG/MmbE5BJftF+/e4U7BtRhO7u5TSMImy8PAXPtdLe3kmPqKlebxoxoybC8tdPe+kCK+YHz7MahPkju3q9ugKIpDcRxt0MMDcsGCzXzNSW6C0/Gs+Xk8sCSiRoLZ+aGRfUfvrxhJQpcXbRag1B80WY6x8HXYJiChDdWq6ZASavayaqXGnt3r0B2HPMJXt77XJEmGycGntmDGx++fWAqDQhYaqDs34gap6U3npbKzBKPCzv1Q9A5sYNg+XNMA3j7vHxPvPRUFxeTgDbCLp7YzAzbNH64bMNkJ0ewEHKL1xHzEvhoK3H512QSYXLp+cQ7RmqZSAbsPHeu0uI8nzITjdblBVwujH2LCCP7379rCBlKMbtx42xjDQPUGBlvVMAIhX69XgNxAwAjb3NNlMbLz+tgZifYVwvygCN01qPmTcRjr/8pk3KlGgejntDEPPQgvNPWm3sPPFMFF7ePweLG7Yh26y18BQR7X5WY/52a6cZ2JDVai1m08DJr3/aJgqnB8mB2FilhzwPMLy5v1kQIilQ0Npv52BmeHJ6mlFeonfvh8151NgsKZ2cbDZmBUP96+83QCZN2nJnrXsKc08Kzs/X+kB0CrBob7jKTAmo742NXW787MEm2HPPFhSnrYBtmOydBiR75qRs44fvngWC0wQxxvO1+iSHqDmGzMHz4RgQ6fBkfwXQzJQOLsdgwNB+fW85AzMfS8b1jLKTk7ERs2gEr37/swbpUhJaOdXQROa4gfNfVm8TiCnAiOXaNeQhzIQRNC7rLgkBH3983CNqXqhk/zSADY3LEs1C2eV/ty8nRNnpAUJA2VrRQGGOEeD543qGRUo83twBmZkt2WyZUsPu169BzNtiPA6UbVzWjZjt068/fZVJpEpbbF1vbmLPKcmunh/mQHQKcBQ+rh2CmYX9csrR7qcbzF9R1LslgkatbmbXVvT+D3/4QyA4TRBjXN2uTYYoag6hwNaTfAyOpEHBfr0nsGauPZWYPPv4ch5BVm9NMam1mG0jePQbnw5IlxLQOR3mgcgcNnD1xWSCUQoworuhKhCY+fZ+18iGcPz0XQvZ86YokSK097vGs4MNG7/x2/vEaKcHMDhsdycozCECPF5qFVikQYu9yy2QmY1xF8Cw98OjMcLM26zVLQEGtTqzb2g8+P6bGinTiIPVy33suRMD1e3DISDS4uuTNYiEmTL0xhOjkmd/1D3mWbcboKR7UjfBs6WIn/7bfQ1OFUhx9eyyUYU4Z4CVW8NLcEwNx5drIDOLvdbAKEJ297d3S+Zx1upmZUJrf8JcFLz/jZ/uky4lYLgZY2BOn33bq2OUBhxF+2R/BIEZd8kkIEW6L3/Va7DniQ1Zt1tQOmi18Byw4eTD7973pOD0AIast9VtzCHDxXqjh0U6lPcaAJ45oGhNMkCDu0+fTYSZx1m32ysJ9XqDOWlE7eMvX4l0aaSVrcsxniPRIR5crwAiDdqRvZPRkOgwY3bJIMPw6ncfdImaPzah2yrT3h/35ogiPPo3+xSUKpDy6629erTinJDpPK+OwemgdG/jilnPBpMC4N0fvjPzvZg0yoy72dwou/xbH+2B7BRR6hNH0FyQzdadcAKO6UCwvHcO8uzQaBSIydPfegXB80hAu5sBvfrASPbsOUD3h08/rkFIEZJFMRlNMJoDGA5vFQMsUqHAx5vnzH7RaEDj6TcvW2LeN7qTAL3Tbglz0USKH379nRBp0qDOygmY2VcwulhrB0gHltg/nQBhtrLeAN7/2Y/rxOj51q53De3NlolzAwle/R8+hig7PSDl1yvvRbBmDagejRqkRSNae3kf4dly0YN3v+KbjArY604C9MZdM2cNJx99vwsyaVJqht03Veag8NaL/D2EPB04srd8EIkOsyIghFD/5tZTCJ5PtiAbNAy9+mDuOCj2nn3927tgpwfJ0Gv9si2kWcOsPNE+qVFw8nqbOam499H3r4KogOXa9QFz2y9//RGINGlhvljBzLLI4OqN21jpIAJ7y9vynODB/+1X9YjRnl8qGQTo1QeeW7z6m25DjE4TEM++OIMgzQqymkfVDEgHlmhsdDvCmr3Buz9363aGme8l3YmhaE3mlOHy48/eG9IEUn5155d0hJhVmc7jzik4kgaNaG+0I2Bm11A9+a1f8dv3IIR5ppLWoEzD2HPFVgzHH/z2LtjpQYL4+JO3HdCsYJr3h7tgpQIsNvf6ERE0O4B2//CjSypkNpgY2q0Jc90vf38XRJq0OPzk8yZmtvpvtYlBqQA4Od7OHW3PikHFq19/qsogwqRhmNQnxp5TvPrDuxCVIhxg9JNP+rOkAIdHoQcyqVCwd7wamYvCgFwJoGhNDO36gLlt2Pvgm2XA6QHByrc/HoI1cyLE4fUIQKRBR8HryyvhOQAIqBiDktbEeA7ZKHv1wdcnEJwaJGg+f7jejJZmzgzXO/tgpQThyy6ANSdAlSLrlhkEMbclwrsvj0GkR2HYefhmCDMHdO5XX0GIpEEjTjfyfgkJapO1BoGi3cBzDMGr330FUnqAAKu/7NsOs2jT/CWdGmly//UoJzpZIOsOzKTRY84bdj962UI4RQBnXzysEjxDIsDKemyA0kPteHXoZDGQtUom2ZyzYfDywfsJ2KlBgpUfH66ApRlBRhf9HjgtRDjZO4tYJGyZRqOYc1iR7qOPL8GkSNN582JJIGZ6eL3SBkgHjhD2xk1hklUuSiaNbO4hwbMvX5MqBXSev70YMsMy1cfNZQgxFRjRW86aJI7B3UFg0jbIcwzws191DEoVAba/vT8EzQhQvVV9X0IqtDhdro5AIVlKs0FBo8c8tOH1B+8bRDk1UHLwR9ypMqOyTfVN5xTkdADsH69UiXbyMKm3GoXRvOgd333UgDQhOPvkbZVgdEMowMG1slRR2zioIpKoUW81MuajJcaPbtfAThUrL54cgMUMWNW1CDiSCiWoLW9FgkhWlxStVjsDzT0Uyd5/UCNNSmZ49PxxVcwE5DujLqnREsVlNwqTxEW93g7MT6Hdj/dA6aH8xdulnBmUyddHx5DlSgNGNDY8ggSSAsVpvZ0ZzYeAdz/bgKj0IDK4+vxNDrohYLjeuQcWqdCitZGvgJIHQe903A7MSxtqz5a7gFMDGLY+fzPkhkUw+Xp/H+R0AIyX+30iIaFOG5mR5weX799PwE4PgrNv7+cES9MCw9Zh7KWMUROZRO5tbvYK5qmge+/lGEyqWHnxZgvMDcqK59UMHEmDVizpDyGJDI2Tvdgwnh8RHz/dJ01Kpnq0vhOFbgDi9qhNihTU6h1hkrl9cjJqMF8Fyy9PU0XZfOfxeeQGIyFejPYgRKUBE/HmRICVQIbGyd522+D5YOONu3WIODWIAKt31iMxTgvIj0YbYJEWBzW2SO72ycbFxMxT45NXmyDSpOHszuOcG7TRen+P1BgirY3mKlKWQDa095ZrA2PPk1C/t9wF2emBknURPD1oXjfH6QFo7TW3kEnoYrz3ej8wjzc39tqkzYMn6008HRHg4CwPoHQgwWCv2k8qQ2jUHk0CYV7Ygt7G+y44PUiwcmt9C1uaonS4HQOpAcG41qyS3C7qe8HM20h2stslVQry64u1nOlKIZ6vtEgNlmD/tC+CEitkbc+fKFx7PQCnC+L1/bVI1BRAvB6dQoikxkndJLsD81iEzeUBKEVAgO37O5FpCmttdAlBSgO21K55JeHmtY3LKUU4wNb9HSFNYdB1SYqcbMYrkNMZEMqRMrdurQm7jAhG5ys1kNOBI5NadZVIls5svL/XBdkpQnBQEixRauisDhvpAWjU8gNkUrvrl3VSpmDl8VEHm2lejQBEKlSZ4QiT1o3D/rgBShESdC6Ozphapn8WStJihMl+3iTdd/dPM3B6KHtwvdMBlQjH7ZU6WEoFLhmc5jk4zbU3T9pgpwdh2H5+HpEAZG33S0gHZceNoUj3Wf20R7q04ezxoRDltdo/haCUIOh1DVgpzZbwYJw6AmytH4ryhsPOmNRoUdTdJNWXtE7TRunW+iG4xEbbo01QOjCoPWYL8ALAaUKClfVDEQxg8tX+PmmyV9cBKMUBHtQL0ufW+nmOQQRonlV7IKeGoh63EClv0k0dgpWl6yZYlJ4NSZe9VjxIfTRKlCqA6uHhGYCwqgfBgNKCKFraQibFCzcGWcqQgIPt86YQwNloQrosBloh7XvSKlJGWV3tnAHCrI7qYCkdaCqnORs3BgWgNCEMBxdXoJKzfhdMSkCQTeiT9t1uBBCp0oaVnTMQoIN+HYLSgYlQNNRMfRTtANipIsDo6Epg4KzTIl0WjThcAPQy0ujK2hnYoIMSpYleoRwrxdlQtNPJaO1AZTjodEFOEUURIzjFlfYaKUQwuj6gTFxpdkmXRSaR9l300ocE/fMDYaA5GgZQqihI/w5ZSCWj69UmpStVkTKzsADAIX2Uxu3VlZL8IITUwUIwBKcSRmdXERh1eqTNoIWA00rc2h6BRs02WEoLguCY+gyhjNKFMKwcrghWOhNSplkQ2iVpdOVwi5IBGKUFi0VsG/qHKyXVBlikSIEXAFIaoWR1BPSbJShFRIXUJ1CMgFOGDc2r/lQpM3dIe0Ce56TTTplRcwJKGXk7/SkfKrWMgH61TdocxlCkPobNPOU00scwFAE51anar6YQqaQPsTlsp45qvxNJ/c1YpJDSZqfXnkJOFc2tkVCaE1ZTBTimDUGzmrXJm3mPtFndGkVSfz9vkE6rnZJqDig1SIb8YCvlCaufT8AoXaikmfVUlUiXhuHZQcoDNCojUmjfoQMhXbhk9SoipTmnmmpkRJYySoerqxGT7uNo2CWlDvO4RZE6TPVwNcdOcQF0kKeWPK+uOCN9Ns+3h+kOE7eqrbQSh3nfAbDSgySaa+c5WEppIoDOqnWITh0WDPMOGemzubYzIu03t2KPtDrMO87AMU3IDK/XzlLfVh9AqUNYDPO+C1JofnjdV4qTlZ+5JKXmwzJGKUICDi7WcqSUJhyv+gPASh9G5MMmGanTsPJ8J8Uh67AzBot0mufVFOIM+m+WhqR2mXjeqUGWK53EvGqnDjD9Nxc5wSnNoOt+jfSaq0oGVroQjG6tD3FIayaWkdOIRYxDAqmzzK0zUruhc15tpRUg5kNlYJQmJFFdv7WTCymFqeTsYAiIFGpEjMNgUqcAzm8d5ekMWaPVQFopVcwJ6QMHuPr21jCdCce1gzFYpJeIUwiG1W9vRewUVrp0sAchphcpnQAHP76oElJaXDo7BqO0gmI6ERw8fLsNVvoyVJdW9kEmrUoCsFKGBNXnTx53hJSyRDBn21Ugkk4thDApVBguPrmfQ/qyzq7bxlJKKRUp1QEOv3o4JH3LWt/eBJNmMAI5dZSe/9rnQ+y0ZcKT612wSKkCOyCRRgVXH95ZxZZSlaH5+GyPdGvb6UQyw4s7325H0pUCHG3nBqUagkgliEC89Y/yIiJStDDnhwCOaQZngZRqR97/u/wr/EuBUtabi10IUakmhOAU0333L/DP0yVl5/cP34NFmrV7vQBSBTNGgOYcFgz+v/9cG21iWhLBXK0fTEDMVwNGqHIJCKEoAhXeZt5a/O4/3+axI05HKHCw1syYT6UGUdlD1qt4ipS1TSyjOWNH3v+Kje9BpCVz//kyBMU55hIbKQKRih+youJlAeUCAVjM5ZLBs82nY1J0/nbtHljMQwsQ4CwQc1W2UEaVyqhYPo0rR00gAhHsDCTQ7GFQI4xP9oly+hEhsLZ01gYxR43BSBEQomxjrxvOjoZGFUol7XZGRc+W7+5Xn+ysdPKyEcVg5qwdORvWHjmSgpA538kDc6i8BBBClmUhKyaT/cFw+3otp5JnWaORgVShAjFcfvobu2tH29dr12trO4dnQKS8bSFAs3O9tPF9AVL6AV7ceQ9BcXYMNkgSAlF2sr95ur+/udltDw/uf7F+GAOxMgkoskk7o6KrWXzwjv722sXFxdLS0c7qqDrMh8NhDpKEXGI0U9LZUX13o0CkX9O5c70BFjNtEICYOmRFVhRZMTkd9LIiZFlmoPlwJaOiZ1mjUYDsyiSofvvVEkxO3nU6/X7/4Or6aGfnemft6ApQpGwoEejGMNbBqLn8nhynGylj9PzAQGQGXWIASSBN0djc39/fPz1ttYdbZ6tnV1ejHLheH/RQhTIRsmJSUrEF+cWPL1a69OqUX724uDhaWlpfO1ypDofVYTUCLjHCoOnhELV2eHK7LdKuzPNfMgDfmEEAAhBAKMr2JuNJkWVZCBli2m9W2gZVprJZMZlklQ3O77x92VV0KDN+1uw0O52t1euli52do6OdK6ZplwjQVATYeX766LLtPNXIAT78/D1YTNeY0ihAonzrtHZ6url52u3Fs6ur7dWzfk6prBg8PO8UgFzBimwwabtygcXWwx9/xQbROQ4QBpQ/O1o/Olq6WNq52qo2q81qNQIYZJBBZSxre9S4PCY61QSqz7fzYDG1ESCQKA29XtHrFe3uaTuzg7GYfoyWbY+WwiZYVG73wmDQzkCVy7H68IstnBksyrqk9b7TbDY7B1dHFxc7Oxfra1sl5W1DBAS2WHp+72uQ0oswv+ST/QGBHAwYQBEQ5evj/c39+v5mvahubV9drZ518nICLEIAyRw87o0J5JVKEIqs220HKvvw7SfXECgrhGybMKH89tHF0c7S+sXa6qjZrHaaVUqNMMIGnV90j5cLotOKHKh++/g12EKAEAIIvV6v3es1Bvu9YDCI6StiMAYDhqvnjQkWFbwIRXfQLiqZoPrmw+fNNsKYgAAjQMZAXq1Wm9XOweHO+tLRxdLFTqekvG0RQvPqauv9MyIpVcoYvTlvYuEgokCI0vHp6eZ+7XRcL6or26urVwedWEYllm2mKwc4X5pkiEqeFVnRbrQrWWlcenvr/QRR1pSXiDgwzbi9dLRzdHRxcX41anY6nWaT0hhBw4vzjZcDo1QiG57fmYDJJcq2G41Ge9DdbFsiSjnTlmQwGG4EbW3nUOEaiKzRNdgVSgRp5cMv/uyJJZeUN0EAAgswMKxWh9Vq/+B86eLoYuli6bxfAopw/nyyt9ElTyPCgfyTH5dBTD3Y39+sXe7X2tWVs+3tq5VmLBMVsHBgZoVZWYo1cKxURoRJrFIMWj0q/OiTn1yBuVEDAhDCNlMP19Z2dnaOjtauD0adTlCe53Cw1N973xBKH2AOv2jWAYV2o3Rw2rWUxzhk+hEMGPDMgNm6zz5Ylaq0186rFN1xu9I1P/zFIQTJ0yt1CSVCFtigfFjaPDjcudg5CnHYHzXh81928m5zQEwdCsDPfnOZ0vr+Zu10/3J/oq2r89WtTl4iAZbJMLNr4OxtMSBEKlojzwmTemUTDJfuPNnqGjGbQiBsM818+/r8en+zVhsP2u2Vgzy73EfpAw/XzsK7bxr1bj1THOb5cJgzXQFGBmZLDrB+OMmo8O32UNAocSULMa5/9+FnLSTPwnSFkAOgmOf5+7tPH9x9tbzZCm+Waq9x2pDM9fPLn/7wsjZpNYZb26sHo2YuIEoOQLCZo8LVw7McUAWzaLSrgsm4QcVf/cl3/0ds5mYZbFO2124ParX66f44xF5B6hQQJruP2sNqdci0BUZmTpv+/XwZXMlgisF+A+xKZvW/+vkB2HNjaoEQAgiD09f3lk/70akD0ObdZ3sHo+YwluQiGHDGfDz4sdjHxMplRGPSFExOG1R2Qeftd09isPAcQwIEOBRFLyOSStuTwNQyU3uOyYaj9Xabit9olBm3K57jyp2fff5oIuapFBVjjnAqMUgCbAjBU811EeLo+gBAFa5dZrA/AVUyMFz//Cf/NoQ4XwAkbNKqBRgxzzv3mydgUckFk0ZV0K2VqKJh9X/vL3MGnieldiDNBjP/zdmPOsHESiZgMOmUbJZQ0QWjz3/28E8XFp4vC13ZsHOraFDpBY1BU3iwPyhxZXM8+PHXvn06EYuUIsSVtTMAVTJLMGk0gW6tS+U3rP3l/uBfhxAXKYDmnf5rsKj43UYHGFyOC1Dl0/nhcgOjxYqD7+IJdlRFExSDgtLW6ZjKLw3Pm2NF4qKEsujnS1kPZCr92HmZyX6tDXZFk6xh7u3cwosPMvnadgdAVHIj2vW8U6YY1yZU/iCGZ4f1tr0IgRl+svUKQqxspZPBsAoSYbw3AFc6RHVp9bIO0uIDXH0yPMWIym4xaDVzFCOun0zArnxakbdz4mKDCLF/a2sSQFR2IwbdTiRKUD8ZUPlFEHH1qG3hxQY3X5x1wbHSlZYRwOlyF6QKh4j0H1+32gS0qECg89XZCZhKp5JxP1J2vFFCEubnW61hJLKIKDL4C9yiRxIKuvVRBBufLpdxpRMGrS4NbNAiguOLo1NjYqWzynSEbThdrpckoEX1+fVmAC0eAFsfnr2CEFXpQFAf9Mt5/Ho/A1U+SVQPO3EV4mKByKKW3jbbICq/IKs3BAbw5uaYRBQmrx6sZUS8OICspcMmJAMwzpjm4GS5AXbFQ4jRk8eTgiAtCijgP3V0F7IYK54Rk9O4NY3e5XELTBKK4fpVry/iYoDIxMWTTpdktGiddpoltnJc2y1xAogA+frzujFa8EWC7z/pNjB5AhjR3e9XyUMACWrHLZLSov/8alyyCCivfHt+D0JUApS2xp0qwpS6ttsFKQkkeXi4sr0EuRZ4kR7DizsrbRBJqJLT/pDyxrV7dRCJKILy0dJRm2gv7JD15khgJQOC+ukoxwJsfPJqXOIkQIocfH4RcocYF3AimPibb+6BiUlgCU73VyKmvPePL41ISCnobKW/aiJeuKFA9cmaMpJThM12FOWNs8uNEyM7EbDF6NvnLRPQgk2Y7x7uFgTFRDCRUAtDwCoprS8fD0jU0a0DRhBZqCuIw2+v9sBSIpQOTuMKU9oxku29qkNICEmmufLwcQMt1CJZOHoyagORhAyRVq3fJ5KVACJsPGuRnMJi69bqBFtaiCmI0ecXlxCUGEDrctREpryE9161QEmBFENzZ/voCIYLMSkLw6NvD9sgElNQr42qCJcDwsajcZIggqpnt9Z6EBZgGL190wMnzLjWz5lmCHj53WmJkwIpsv3FRbVj53GBJYXA6Hce7oGVGJbg9HIlEqYCwv7uRg+RoMJsraydZ8gLLDBrn1dbJKxo72dM38Dl7nEP2YkBFqu/2GnYjlpAScHwB189zQjKE8NE2pc0AWsqJAa7z1pgEtWdpa3zQ5AXUgRGnx9mbZLVonU5PECYKW1Fwu7LcbIoysrPf+doDEELJhn44tf2GmQaJkx9o7NCdJiqbLb7tA5KkLLxzUWn/k0LCS+EhDM3n78Z7pO0gvryqMONh3slESeIFFy9+GLtt/8YFFkgO/Di540uQcMksSKMN/rVGzLZ8rsTEAkrmm+Peq9222FhZBgu3R9tAFaSgOBkvBKxpmUT9p8dt0DJEnG4frGjr9+zYH78k+opQTlJagStcQ8w07dg//29AThRwJGDH4+6u42oBVAwK+ujDcBKFCwGNbZAQdMyiMazB3UITpYIvL1zQGuQ517giJCtnDHGEgnrSP118wwZTwskivdPWyCS1uL8yVE12ix4pay9DHJ0wghar5sjhLnx7NXtMUQljSC8fXI2zBZAMW/3ihARShYJxsejJjObvb9dA5G8jnlEoAWPAGyRuILLy1E+EzbZxrvXbcCJI4JZMCsncS1o1waAZwRqr943cPKAWMw2muyxNTMg0X15uw7BCaRFLDtS3x2eoxlrvPymjsTNZUHr3nBrpoDi7jenEHVTSYLT406Hme89+mEDxM1kl2xs9uNM2YT9R7unBt9MQmHcygDPlGD/6dMutm8aGTE45hAUZgYkurc/roO5qVx/NTxEeKaAyTcfdJF0s8gSdO/mK8yioX33h02I3DyOUNvoDMEzBhS7Dx4NwL5JZMFgr83s7z54NICbRcBgo701O3aE7mefdZGdLMYLJaFEMZHuI51DzGYOEI0fPhiTvGbBLBJ3/Gp4gMwsTz779BKinCiSFkzJ6ig4OR4OmWVDce/Bq65Fsmb2QknKkwTkbq0B4NmxYOPj2xPsJAn1VmZp4WMr3zqICWI0eZWdgwKzLNj/4OMuIkl7718XFnhhI7CGF8+rCYLoPgs7IM8WovvpRxOQnQhG0PitrxuyzAJXlvvf/WYHjJLARJj8oC1k5mDjwcevQSRo79ExOLDAtcGNpftVklPwulYdMgdtitrTz14X2MmhmLdZIDezQGIaFSebVcBzgAivP/1mgkjQPO+ZaC9spICGIUsOxORRewdi8KwhQfenXzeSZZFaTG5nhxCZk6L7wad7EG/yRNg7zjsIzwEbGg++f1kPONzECVJo7U0AMSeN4NX3L9vc7G2/H1yBmCsRxn/URw10U0c0vuktQW7PCUCMP/qoBrp54wi1995CmLnpAK3Pvn7ftoJv0pgYiuXNKmDmrmg8+v5uxs3c7Fn3AGTmrIlw8luftsE3a0Tvs+4biMFzpuzmb/+0BvJNGUdTe5YdMLcdoP7pT9+3JfsmjBGNjcsIhLkEiMa7n77MuFmbPTtdBZk5bUXY+NO/qo1uyoj2B91bEB3mVNnLDz86Afmmi6M5udfbYu47iNbXP33XMvZNFiN3N05zUDbXMJHi7p97wM3Z25s7EIPnHAiWf8V3bXTTRbQ/GK+DzDw0XP72d8cg31RxNLsbWQeseeAAjacffbwcsG+iGIW9yx5AYF4qwru/6QNxs1Xf7/0SiPb8QLD87/DlBN1UEZOP97dBZp5anH780e02Cr5JYuduPxpUIwqaJw7EcPnB7z4N+KYJCu/2DiCGwLy++2/zaSByszSSfbD8mPm/8RtfXqJo3wQxOVw+6jbnmS217336W/fgJol4/36ligjzCRPp/fDv9H2BuRlqFT9srEMMnlfY8Oiv/3KTGH3Twzlsvts8ADPfDfWffnn7VNg3OYx0ulyPVARFeh/8377h5ug3L+9DdJh3ILj713/UuynS+/jkGmTmvwNcfvTnPh1HBd/EsHON37WbgkBljPiLT/IDMunmBZbf3TuA6EqhwM7W1Y9yTqWOcojSAkcqQsxjpXIUjQ/e7wCmcpB98ZtCVoUCszA2FVyN3c0CMJUzEn9xP3QIVObQLiBkC6FQn4TKZMSDb5ZyokPlUAz8BQ6ef46liqRRv2fJCx3ZOtxSZUK0v3m9DjKVNIPskz+ih+wKo5Lm279YHiILXjnLzz5sAqo0dk7rbl1AoLJG+Mmd5haZVFnKNh8+H4IWPiHLRz+WVF6Lu69GEF1hRGCnuXYHR1x5qnced2IIWuiAFQ+qlccoMvnh5Q5YVBqL8NWHBTKqOPHqIIrFW0daz+pCpuJauYdfHMQtgioPYHkhJKsiAU8/uqgSySoOURnbw4cPIVJ5Q5C1EAJirDiOonv7co3KLIcIv+z5BLLKo8iirR25/KG4IjpTBcKKgbeHW4eEWHlYtLVEePpuFUSgIssZncab+4EYKs3irZ0rO3m024QgKhQIfr7unBB1cwDBxgOaCFOprej8TXa4BOKmoBXhm58+jkSHikUkE/Grx22wbgpE2o9OlAuLCh40dP+FYpNwM8CCV7+/tcWQHhU9UrDVvLMGcfHPUey/3DwHU+lDiOjhWQHZYp8dufxhskV0UfGICtzqXF1BTC6nCyWVlZM9fbcFyJVPDlB/cxQgJJTBaUKgRLJz2q93XwMmAQXQ+WRFTUJMJiGliaS2BLvfxyYoETAijlrr6yAriRYHrUjj9teHkRiSAREIK1+tNCCBLLfrG+OotOBwtnPQlJU0ltj/tH0EWCSkY05/dbJ2heWEMQqtvW82Yp4WsrDz49pWNEoWS3D39/t9IhmJGZ3hlc9jQRJ5sv/+MiotOJw/X+0reSLFZ8cHHWGSNBDpnA1Wh2AnCuCitVG0jZV8FjDc2RqKZDWC49/1KrmKRCE6qDq6E0NU4ii6DQU4+TBQNBVImqhw/DI7jJikdYzOd0ITcJII1KmGFrmUAmRnbMVehhLFgsuPWkfEvHDSEEPItzi8dCQkCEL9vNHDmBQooNrJAnKChBhde7q3lWOZxFWIZMXOHzXGdoKARnm7QSA1dpqZSVKDxj9c5hBDIIEt072XHQwd5UQZbq1EcCowxL5IVCt6eJAdDgkyCa2w23jeR5ljgsDW1YFIi9qKWaJEZ6L/vFEgi8SC0VorDsmjE0Iy9M+vmyAlnjDNM3fBMSkcc6qxuzPCIrkFDBrrfROsZChbvT7qgEh+mc5qdkpyyoEwWm8MSDaIsLq6GZtEnBAODNfW+6mhf9gbE6RkMJGmNq+2QclmGU6LF/0eGUoIE3cej0iLo8NeC5MMIqPXf1Lsg2WS3YK11T03yXEiAPn6rT4EJ54N/Z1iQkKanKb3VtdAFkkfgf3erWGPDCWBxHD9yRkEkj/A2Xm7QIkgMnrDW719IJICbbjuv3eVHCdDvvRiB5ASThh2tgong8mpcm90DTapUMBm9iQWZKjyARouPT+qQuKZ6mE1IxlFRpG/yPYBkRIDcF29F4fkhIonBbN15/MVkBJNmJXHYRk7r3yBnKHeV8+BQGqMQI3nWUFGrHSA6X/7xRkm6c3Zm+IUi4ofySiyN2wCkRQZgMPiLkNyh8oHnU9+cQUBJZgc4OpJr0ECBucMeVdsgwKpMgIn8XnWI1NMgOGTP2IJTLIbllYnWQJEZfSy5/EEyEmZAdhuPItVcocKJzmePfnkRQeiEksKdNb7A+xY6YJzqvFV4xCckTojcFI9mjTIoiqeOPrqFweYJDcHb3WCQqVzzGgMdqonQCSFBmB7/2XIyYMrGmBWfu9vvIKAEkoOcPVdb4BFZQ/k5OHl/ioQSKUR2BgeTnoOURUOmt/+wX1hktvo1mE3o9I74t5ke7gHRFJqEKzu7xrFUNminK8+/L3v+igqkSS7f2e0CY6qaIFceHfzChRIrdGw2d+aFCavaGBY+iv9qXOwEwnD+cNYIiq5c1yfHIw2wZEUG4DRxvt6ITK7kgkO/sw/1XNCQAkkB3j8YbsAUcFtomoPXm2sAIFUK4lBP++FjFyVDDN8/NXP7wwhJlDMGN7azgBXMisq2/yTTvpdhEi3NqZ5ubHZywm2K5YIsP7P9E+2AjlKGIFZ+c3OMoRYuWwhNn664SaWnXKQiLSrxKJHlCoWYLb/Mn/mw1zBieNC8fOdSRuLim1J9F6/q69AlETqtR00HC+/HFfBoWIpEppP/tQ/zc+HxOiEwdWfnI8hxFixbEV48FuNnaFCsEnFMXfhRicbg2KlAgwv/j//JJ2MgBJEFOLWnWEdLCq1FaH+btfbkEdSs0NUe//25gEoVCzJHPz//9lW+iLPEyR3YH1paQKOVGo7B/+q3xqtKjqQohWDJ92Dyb0CclyZEKbzi+v7K8hWQohMHH279RosVSgTI8Xrjxv9DkRlacrBOTr9clcRsoolw85Pfm0rd8jzhMjpcfXml4UAjlRm44j3Pv1yp0/uwqTrqIxJ/ax7PDa5cCUC7Lh1fXHnAGdWAogCrj9Z3QAjKrIhl0+fvtI5gAJpOyMnn3z9qp6LYKsiRQwHv/NXOhviPKriSSo4eP4Hwx5YsVIJWrf/pGejnJw2KTySkbVXJ/snPaLkSgSYfHXt8Y/bChmqcKKwdj7cXgYsKrKJonj/tL4VAUwqN5Ho3srhh+dgS5VIWBSc/Ln3A4a4okkEDt981elBiLEi2Ypw/PsbVUXJBSldyOZq58XVaAXJqPJgS8TlDzZOulkAqUIJnLnz/NuDe4BFJbZjDnu332+dg2MQaT5GO6t+8qKDQ0SVB2FEZ//j98vEKFyhhM2TJy8wdoyVyLJg/OB3swNyOyPVKxIIhw9X+6O+IqCKg5Hg8uXJXndgI1RxhLIA5z8e8RpApvIaKbL/7nZ4PARHk/pjRPXi+ZvnVYKJlQcJo1E4efZZQDkVVwib6h/c6WfYilRiIxi8e/CuH5VTBBYABNy8dXjWWc0VsSoO2ETae8snbrUJCFUQySGYg4df9C4HYFGJg3JoP/hjJmcrLBytKHqT4flPjiBzRBUHQVC12al9VmsQo6icQsYcXPzBm5qdKa9EBke4+9ONJopysUBAIsDZ2kW1ujWM0UKVpjQX2es9QmNgG0nzT4IQAlw/vH9wr06FNsRI4/1H+xcXYJmFZMxxe3/48Pl1dIBYgYShs6b9V8/aoBiZ9wLZwNnbt0cRB8e8IjlCce/Zx0WVGF0sMBRMuDrqVJvbMUZAlQYTJeqbg3wrdgscjCTwfBACZzb073/+ZnK8CQJTcW3lwg8+PqmuA2YBmgvq3ZX1T65QAKnSIGyrf31UnOyeZECMEp4XCDBA89bjW9cTCBAjFdfgiO/9cK8BisqyhYcUbOL2WT/rHAwljCoMIEXQ/qS6vVrt9rBtCTCeK0JACAZYefL2CZfPMkBUYDtG0Xj2q14f3YpAQCxEHWPErc2Vb9fXom1JlQfbxO2LteJ0+bQIEuTC9pxBCAeE862lo6XrCThAVOUxgIpXx08HQ5QTglmYSgQI26vB8XCoCKDKAkhR4BZnF0urebvNlJKMp+FymoaQywNsHd1/s5Zt3JsAogIbFEX74+9Pm48ByyxkFSOMx8OlDw/yGEAVCNtoeH7r+cjd7uAyYBspyjaeKYHAGEnEw/PD68OtHmBDVOXBoGxw/O51AEVcsLABGx2M8okOViTZQhUFkKIATVh9fOvVveONjRNuXOU8hbENoMPznfWllbB5byMAiMprrCi4vP3xyZulCGYBLMVoWifN9TfPmzagCoRtpK2jt+vPPv7h3btHe40CGxvPjJCQGPbPtw62zq4ipTYoVh4sG43vLm9kQI4zL3yQCMDZStbItq4ENkKVpFSSKK1f1k5rJxsbJ7XN03G91crK3WjcWtm6OrvavrqK3dOTvTrlRcU1Jkbwve9+qB4dApgFs2KUJ5eD6xfnz/sYSxUIHECUunbv3r3XGyeXtVqrW2Qh2OWkGPPhSr/ZbDY7nX5nmFHWtqQKhJFhcm/veLMDUTjzwgkIUF1x/Wd/mU+2gABClQQQUiwHrVa3O5hMBt1BtztptIsiBIhxOBxWq01CY9Kt1+undVNeyFRcG+WCwQcfXVZf9AFssZCWFKHYHHz1T/f/fnFYRbZUaUCSHYgS08wG3dag3e5lwYp5tUnMMdO1jSRRkYXd3l/+62wGQJHMLLCFbcjPH9/5xVc/fysgIFRZSm2YHoSiCFmwQYp50QvcaMRUXmNFAe++fnT6eCcHCIgFuGKUgZ/88E/xOxcHnWjkWHkAA7aJUslM2wFJSFRkS3Zo15drmxMBUWRmYS67ZOV6/e2vffXzdYAAUsUpNYCMZspEIjYV2YYhwOvvn+5u318BsFnAS3IA+j//K/2Zn51vNYcGx4pU3pQaT0cIEIiK7QgU7e7l5XgSAKIcFnQIMHC1s3Tnqz/46gIgWFKFKm+mbSq7bQ0BLj/7Y56NHq4CwkEs+BUVAnD28z/1N35yftWsAlS2BLWQ7KIxPqkNGgEgRofAYqAAQzw7P3rxs1/76pYAAsS0F0AR4PizP+lV5+12BBQCYpFQEg7A2U9+5y/zydJ2vxMxwiitGSEioT3YfN1tZwKIItgsHgrAELe2D5/87Ks/eDECcEAojdkgCei9/+bRRuf+VQQUjFhklIQD0P/kq59/cet61G+CkYzSlRGSoDeYXC5PMnKAKILNIqQAjFa2Dta//dnPf3wDIGxQerKBnNLlZ5/dG1wdbQlEMIuWknAAeP7Jz794eHF2tpVDiQGlHQNCEhTd+vj1IDCkNEZgEQMEYGj2D84ff/vVT744p9Q2ktKNMSJSuv/s7sv9laPVJiBhs9gpiWCAzv2fffHFm6OrlYMmYJABpRGXSBLQq3dPX3fJY5NS5YBZBBWWbFRd6V+9+fCTn/34hrK2kZQ+jEGRssv33t2reX27I5AINoumEtgA/ScPf/z2xdr21cGWAIxconTgEqEI4FbrdHOvF4fVPqWSDWZxVchGzWb/au3OJ1/8+PaqBOyAFFOCTSRSdrxx797u6dbOVT+CZAcWYSUgUKrHb+/cefv88OxsaysCGGFAyeUSSRHArdb4dHPsYaeTUzbaMou2kmw8rA772+t3fvzxzovDEsA2REDJ4zKWJMqebizv7p7kq2crVYGinbGoKyK2Ke0/v3/rzf3189WDs7MOU9qAlBw2EiIigPZ4XN+vddUc9UeUlWyLRWAJOaBhHptnR28f3rlzZ300jQCKgCqfS4AophzUNjY29mpxe2VUjRBlQsAsCgvJNmWH64/Xnz9eXzs8OzjY2hJTWzYIVSJjkBBEUbbVqo/rtTqdfn/UpLwMFovLkghGeYzV4erjW2+f3H/z+DCfCjuAVKJKYgADIjK1a5u1y8u9emN01m8OBYrYwWbRWUi2Kb+ytnS0trOzc716sLWytdVh2hY2CNB8MWCQQCCJ8r1Wq96qn9ayYWelvzJiSmEjFrEVhYMVFTVsXj9/c2t96fH62uq0wKGMptBcchkwpZKY9ni8eXq6vzkexK1Os5oLReFg2yxuS8I2Ux6erx1un5+vXZ9trWytrIz6I3HjBgx4Kk3HUwkQoBIhxNSTQXfQ7bZap4X7nVF/NBJTGxCL5EKSbav88OB652Ln4uji+nxttX9jAmPAqMwMGgFCiBtvnHZbrXqrXh9P3Ok3q8M8Ckmy7WAWzwWSsZl6eHZVenC1unp1MOr3+6N+p9NsdnLKSgKJGVQZcYNutCeNxqQxmQy69QbDar90NGSaplQswguQooMNQiDyzsrh9eH29vbh9urVwcHqqF/NI3PaWa/RbTQajUlj0pgMBo1s2MnzGKMESFGekkV6AZKNmXb1YGW0srKyMur3+1vBeV5tNofDfJgP8zzmMcYoIYGNHUIIWciyIiuyIuu1e1kW4nBYbZbt9KvcoA1C3AwUQsK2AUT5GIc9azisDpvDsnke8zwqSgKwHRyyLGRZUbZXFL3CDJu5pqRUisK2Cdikf1ZQOCBANwAAENwAnQEq9AH0AT51OJhJJKMioSUViXiQDolN34BMyei/pv+n+D/p+T4oTxHOv+n/uXfFaw8D/dv2x/tvv6V/+p/2/9Vf173geA/UnmieUfqH/V/wP5k/NP/H/87/Ae5z9Of9/3AP1l/YP/J/A//c/tr7lf7J/yf+5+x3wA/pf+X/af3WP9T+0HuT/r/+n/ab/hfIB/Pf8d/8Paa/4v/s9wj+8/7P/7+4N/MP8N//PZn/5H7e/8v5G/6j/uf29/3XyG/z//D//r/S/8b4AP+T6gH/P/93uW/wD9//c/68/1j8dvBn+9flt/bfVP8f+h/w35cczln3jv5dMAj8v/oHn+fWdsXrX/D9AX3j+++ABqm+KfYA/Wjz2/1Pg3/Uv9f+3HwA/yv+6/+f/Se67/af/T/U/6X0lfVf7bfAL/Rf7z6Zv//9tP7qf///s/CN+yn//H+JzpJBm5jOTAzpknJSlXTEPB+ItlyUkiuD0wKfAvkxkh9MDGQJNJrT+hFP8YmfC39WrB9W9bbfQh9EmYSxYpQNHk+Qv83z3SththOCF2lPpMPYvQE1gGspeEkRGLKgPeYECc6SRhLFGy9dHF+kiFkRLqFUoZsQm+kVAKXOkLHXCQpHzGWY9CBlIGbvXaacTb0SxYpIt2gIqj2mTzCxOdI8es8qft4RKe1G2jtV3dQqAL2DxbwjDOX/3adNVwatZJGElpPOswjleX2E50fZBBaXB/UlnSKjN1tEjj8CTheWv6Jkrpbv825z+ceTnSPEXrInRkVtBoYKaAsB44Ym3BZ7q5UE1HRNeJAHiQtJsSkkbo11LAMrED7C0zkw0kAVAN7WnQuTcnThJPLnb0hYJxWblux4TZ4UP+FqqJ5qEl+q8BpYsY3GVG6s0xLqsqLSI5/No5dfiOcF5htQJEA6cd9G3wxiQuyyivgoe5yaqWxtzYwrjQnzoStyzEzRpJJQMxQh9QNgbOVFMnXBBRkuLSxYP0vHtKeSiqLlurQAKjIuI+aLRvnLL5UBuV1+8lf3nB023HR5PtBapt+Ot9BgQlh4Q0i9I6ylbuSTg2sX2CWVA7fQzsoDBLdy2RRzYmOPCOv1NfcaEWcTSPVdbcWuLu7ugAPBOiiV0nyJGBYwlDEsuwf0pDqWvNa7+VICEQ9ncvsemgFEaEr4fAELntJJwmOTMvW9JBC+drfOf0k9Xd3Ny4LylOPcF2nQliwZn2O1uw8eRTJ+qy/lYnOjqj4NftEsukfYUi4C74MCM4JAXfOqkoNHRGv0bfPp47acJTCqcIFLSAWHe1kyWJzjL/VS/cCxSgaOO9RvcuYT6u7JItx7omeUiiBksWKSZT3EwJqr18UkjCWKSa90OLRKXc6SRiZbvhk7+ssTnSPZkMqmA3DBTJ+2pYsUn6oh+upQUcT4c6SPU0Jjh5OB52jgaJdS0O8W8zFipKMDrRpJInCo/vQDPo/a1DorbTfhzDPL+IWjIzyo8vnvo+BkSzfgTGSBtNQlRVGqitZyucdYsUnOu9jI8JRjE3NM3jedE8rJ8yS85D6p3liOZ9iPodqN/o0CqbRGKBaUTDRxTFFHompLwZdq0eT6umUKSfVxaGXj0Sj620piEkIRwKNdDC1GtBaeLA6Ddh3Dv6TlqQSMJYsUn/3lHLnouOoJIFo0cm5qLDQPETv/EpjmmaYlncuAz3watZ3Ls/izuXZ/Fncuz+LNm8PVRBo8Yz7BLeA7JXgzML5hnaRhOcjunjUKh2A5TwgdJ+4erRBD/jrSAdg888OD9Zwrbmo/EdI+71Kc0vqWf+tPWx3Fncuz+LNJmGqGhh5NvDshAgnDi/OZibvNUooHyw3uJShVgwcknCWcjynhhWKGBxr74gXz6d4tNdFnm1BuTm18IrMd8THHovz+LO5dn8Wdyj4DPrjpIyfGWvDdvwjn9ODQVMNU0ln3xZqMd3c/erIvvqozOvz+LO5dlrlf/avET6ugk2Zm8jCoru7o5GNc6F1dqbKq+SB0j0jJqlnwvTOR+e971DH9ZhW0aOkJ7oacBdsJEfepOEn4KN0X1VO8f/wX4N0qxTeN7LhGjMFmkFJwcoowAJjSQaWozerv1vryScJZyfNsDhiYoOCbBmbkMHWW5Z9CjMMT58dvBI9IaNC/WrL4IUONt7ea36CM7fogeSyxDfyev6jXm/n3aPJ9Xd3TG/KPapIwwiyk+0AbeLD4ac96Q7mgUKd1vzCJ9S2SxSku/zyhIeNubThLOkkYOnxaNUaPg86TVviu8mxUwYPYSQ+YW3lo6r0gvurOHnOSKy2hvCMQdh6JYsUoGjyfVLo8l6DVxWDZj+GVDUJxnrtAwMAPCGEJuzPYmi4aNZd6id/7rSScJOAA/uGslnjEv4oA+oPQlIOPcpr5+mTstOyBDalLhndp7G/hOMtOuHE5D5ENVUKRcIvB8HKDm8ircoGWAcx6fNsr581cdGaDgkFHpbk//aVZZtIM7tmzUWA6ix9S4DQBSaooZQAyYt7s0NLSSrFCnAha46oOIv94xoPHIpTU4p5ZXAcQBa8xjfK6fLJMuirrADkSAMY4c3AXsI2f01A5JygDPFm9qAzWmJnlB8zGrjI6h32apx0RHjpQ9jxPOIDDqY8jp3+6FR3OGGizYrChkaZgTXypep8YNrxERszVag3Cur4M9RliWKEb+AiXsrOgZg6UM+HOAJu7NjW01MS/dVL0ePqmZUPc9p5R1cICHq/sYWEjdN3XEVoQ6pa+f1beMNJCidrklMORLivw6QkTUbzesRA94sfm5P0rhs4GPHlMcsruVl9J8c3rtgL26BL9wuq00Oc0P+Txs1LHSrX3zobngy1j1lOPBKnOIvjcoimdbTV0m9Vxfnjt2CL3MRcxrGb7Rub10sHkgo4k4XILmxHZCsYEZwottrrUsqAGWX1s8qE2UuF7wxW3FfAs2YOjyb8E+HK4iNPSgi4ia5NRztzpg1fE6HjthSrbFfMgutlZ1ZCewErZhz1MvsbHSc0u+khj54zyTVWhuJBHmLtdYTe0gmhNyO25YHJwGR6DCXh6PFsBtEiMqQH11uSXVzlKfei0T3P0w650jvBr5JhcHzZWgjAorwRublwvx+ZRItoCCT+Gsggqj6QBtuWNKU6MCCnnj9Qx6UW//BakHSfw7wPbFYt7aHB8a3dUaX3p4f9/4AM24dvxcrOA7vTDy716CP8GfXjKK20qEYx0RrtW575sFbgH8CjXOEh6C8flOY2TEYwbppDSvUZldk3eWvkNl1tV4RfL8svDnfZ4ajWqRVYVQGDxEPLv8G5OoT8tVxysh0o9NtJ05KQVvH8xos3ppZ5sC/Sml8Ic+kgLoO8kR+jhecupPOz+1tc1Bqp6S9jjRdRChQUbV/ix5QjsyfSspZvu0afZVJl1oJGNCSpyPZTjo6AAAIcS4wqn/1bi3XLKRLESl+IZowmmV6tbnoumi7jgIbYlKKVkpK35f37xOy75+DgRXUYP5+lGe/7W0cb2YwOLk149geIe/z8VBuNofu/5yC5eqlf7puOoHCc8D9aN+qzfSUcpPkr7eS84kwkCyz739klPnbSyM6deEV4XwCPVXlNncQTmxTyYGndZtgPoOl+dJ8Xplfcch2XVS0w2hspITY6NZWpw1I0a//A0gJNoNEHIObXo1EQmIu5TlxylFVnVw+hV+che1BpZ77t7OY/X0RISMuiZI7JjFw7tHIJTan7WlMyQSskVw8rMeqZMerN3ufyrYB9tP0piMw9scgAG1sxaf3w+zSEy2ERFRyzH6ouvcyILJRmfAHzU9SJqTTIed82ia9Hl9PiiU0LNNKZ356XgTN2IHtBaMCSjVFO2oFQ2jcpv1pku7mfGDey8YDeOo08Pi1SdFainZPFpoBeDoFIVV6E8pig7Cp8V+gfRDveHlOj6+jNCc4cealUTuOWsr6UIDa5EACXNq7QdlE2ZFG/Ta5kwsgTW9VRSproAKEdbQb/tICOlQIiFzjzMsQu4LpNrArVQ1wZu1cYTZwqUO3D+U8fDBeFmR2Jds+eFQdJJmVozTrqT4qX2WMTJnFXBFCEPAQEsUbkQQpeIayLe8WJDX1adMk69GQbF9jFDapYXfDj4GAHtk5QRrPi6ablSdAfW5cQ7MnTEsCS4RMp6JAOeC1U57u8afnzj+212ifNIqgO7kTNvZ0InEI/qI6WNhHXS3XXwNjbH3mbFZEswgPe0+qRCPaM3NF4Gy0v5nVutGc4J5woFgoaBdGZEjGQPyAcR/lLL+fTYE8mn6dv70cckMSDmV3kc766899zpMaaAqg3VZOlYMPC/HskBT1MmTNPeWgxvNrgAb4mAE6Emzc6+9hT+an6LJDDqkuMXttJHqRNvyPHXPQGE7OcE/iZR95gFexVVzIlFo3tf3KwtzIpkq6Ql3FGCMGVa0VX4vLbYoffIfzkGmu0I5pL90J9IdAgIQhhPfUr+1Q/b70nSZ+GO+geFNfqk0qx9760g0b0pxgwjp8AgLICBCyk1RH5TcWNUssHLWu3WVoHSpv+XAZM5IfaLK+sCTeqXLstjXWp7CiGio61cb4s7S2Ad7/UThSfdLHlhPMEgaIqDwLxepsRx75IhuUdmOYXJA2fYbwe1kh8+mBrNrfz1E9jQcBDiBYrI5rKXHLeGcRm1Dd9rHrY0oLwtRQEd1TyxvU+E8X6vsiDHPC4CSLt7PTWhO/SbB+tvgnRDPnM7GSJEW56BCsAm7ii5S2zMRhHd+GR3QC01n1v6JuZDtX66Wa0SgSZV28s+BBjWBugownQdz2LiWulO2cSI6ueA7bygZQWgSYpqSyFSiovKV7H2s73kSMCDKKbXSB0dQ8A3p39wpeMZVUZa0lxBEzTIVcauVCUTbMOL2he/jABtsM/9he8/KyUQx6S2+kkwE9R+37x359623kXTsCojZadAWI9H6HI9JGxfb6MOr7OOi/5mOKX+UEw/UeoCHHIrfPPaULdJE+InyoH3J9HoMecm4empmCajfeIvmMpdRdo0ir4hjOkgXofsqu2DzcfdGD4rC4xd3AhyAdlCvnQ/0/c1o8cinhde/fyudXNHfIO5BC13ZANSooy3tneNibGbsD8eFxOwrbRn+iO87ZCXsBFjmEu0XkOrpFrTiF2ETXVcc4C9dAAry61zwbQUz1uTQNZoZ0FxMik5+3MWobBZoasUwjsvuW8Ah28jS5xURl+zD7Vfschp50VahCvc2YLeIfB/VlKwlRLJq9zC/pBLj6zsfn9DrcpEPrEJfSLueajeIXaOVA8ONCgi9YIuNOXeQRS8C7uo0lgJRBn67yj68p9n+llCKck6vW02d8JUb7ualy9qGRJ5a0Xe3w7HeujXTgcK4UTHb3zqatWtBf90YAZuZ8jGMX8ulVpy1baDzQ78f6wtEnwr3tdQtfYghE/m8UO2zZ6PVZtYuZiF4Xkm8fT0kCkbJAgGv9xjEMH0o6svS/QQb70PuS7E9wlCWQ5eSkViQbkulb5wGxJh9XNppy7KMZ+59g1+SmVcR/MAk3ZR2yu+GN6jqkVOgTmKp+x5w6fita5GiJARxF1V+HphEVMCkYbEjb4CuYIfJSW1aFMyimjCDyE6UHPa/ZFfq15AhOo5NpIul+JOWudL0Y+eoF+9u+3yRVgAMq2MyuDIp7YZx4LBRdgWil7hyAskvRdmXzpo4W7tXZ4UoV9LorQPxBx1fhRSA7fpu7+FvHavYenfZO4Fij3Glc3rKiaiENy7MO0Fym9r2W7W+bqZwgsS+zMDTwh6aEB0Q/uDzWS+BzgBpPgLC8LpRbSxdU8KzAw4bGdEM8lPAqa4+GPsb1LTvmHkk5QioMqh64p/Z9w8iAE5JRjbHvqh7r5pA0BceZCl+B2EPXqqJz34HQOsEUmzaPMHBvymGig9+R95OjFyLTYPmK7CT//h7XLmbcAQL/0kJXtiX3ocYrpw0KMpV25fuwpVDFsVn0pzv2usYqZiebYxZDCgvwJLo2gnqXg3dOnyEkgLrd3JVl97y9/Mx9p5A68N+ZObABz/UJ6GyVGqwB87SfDYBFVR+BfMGtiWMO2Ymc9QIRfzLeiJh1OX/w1uvsN98tHxpB0wZ8414aaFATTb8ouexhKsRNL5DXCs8CSY5vLa3h5q3UJk/upIRDm+xo+JgTLVz0/glxaG/YwnhgtXWcptt9rnKpv2jE7PjAPbEzyejfzV5cTIFHn7XyvIYe/m5HJuz/LTPaDSUovSixjv9lN4t06AHCI4dl3xI8YV3HGJKLwRrl//qIAOLSJ6IGm3Lgf9OAyMKu8lfjA9i/G+quL77N2XLKDkpi1mKF/2GsG3c6SSm5vLkBli4wxJjgnADnDmLxeZI89uQjRAfvZjw4KQaFLZwyEux4sw4gdfO/IbiIedKLnq8jiq1YlznshT6PSdja9aNKhgJA5KbQFffFj4xOXh3ptgADCVPj9VgdqkQXw3RgpwUaYuKfJxir+QKY+GZiKTYyetQWtyKLj+qehOJ2v4mN9lPwhtuqi5d1AOMkgkkzGm6so6HlvYWKKnrFK6buFczu8I9syyHrsdwyDK3ukooooL6MCA2439NZ9w4JPGPi7UzkvftFQor25Azg7gxDKK5/FDLM0N2Scn/9meheo8NNLJH+ncGrtBg0xtgXhXt2BJs1uVq78SLIV4dlocHocRNee27GPSz02HRiTeWyjw91uwLyIhzkYB3l5v+wQgSZgJNBogqpl+LP0Qv5Bez+QOEKpaWfyKuol62VjJPuv7eqjCGVjGeVQiusticzTq5qVmxwkOEDv9pKIP57J3hjxOWemXMry5JzEXgdGDx4C7UEmg0Mpi87XbzRZ660xn1P5xQMzK/FMc6DhAMAzBQ15cJA3mxKBNsgkf/h8y0vaSkOwnpI2MsWP3+rvzHjEVR2czc02Vxws+e3al/d3Q8KHXwWLtkug6jrNIm5/snRk//zGlY9pIt3XgjyChxnCzat+LwMsBtBfG2YV4GoeCy01dnz6M/b8XbrxOyjRjPLf0NzqoRGVLaeDSxdiJRNWPSANOmoYJrC9pmXgfgT+F4ObEJLc/IuwxttpMMEVnMQTKJ+Rbm5ODJJhJkcfe/0rwN6fUUpSk4jEeR7zgUyC+ju4RA/3phjUWyJ/ktuQs/HNrxumu+T7R6/cB/iDMy4sAcC6+WRISCbh+y3kTtmuBVt5AJF/QhPV+j1R1wB4udGdDkcWu5AyNhmL1Sk1AdvwafmYXHQUfBdUBbnx38TQttK5uD/GqyLfO9sLML6QVIaZmpTpDgdGIYJdxEZXPEs1IDdW5a9C7sxhairAq/pxC2x5/PzbvPon7qMOC5UQOM5DPxGP1GaAcDkQkszBradFB+pv9lqAe3Dq+rr+4dt7eoTNXMlb2mK5HQzuH0E2pGcInfDiBsTpnkeJiy0PK2obrlYu7m0tVyc6o1y5KVWZEiYlW4AkXbTC2ldSivqGfmjTixPaB0an3Jx5QjMgvA1rgw31rFKAKDJ5Z/eJCD1or4en1gVUdujlAB7YC6qurAw9QbWyIdGkn8G4sp97TvDaBg4xJEDEFhyzCnjQAEQZiHbSSVu+pDnIgIH+zqKSKuY3KozLx58vr0DwoWtiZlti9+XNrVcsdkpwSlzKlWruZPdx4mnfYv9SG6RSsktC7t/m8Vc6Vxwa6NpOE46JHSEZ3f5bzScE9oFG9ugXurX9eDQl0DP0c6yBdyArEHYbobr0PJweQAKarLoXm8C1KnBP1sVpVh8iC+fpllAd471BP44MjhMtz615VXJUmewMhu+goxGpF+xmrGDusMGC5ZxycctjAMYA0yDNhqumSbGYKhkUio71qJ5xF9Wh4lxkvFBdz40hoE6uXuXdhmXPYszvrkZRGhhj0/bsemhwtfMBCdq/F85Wb6a/tUBL9XjkalVm60uczh87PXyrjb/IRBFYIO2r2Snpt9AXUBvnMyK2B6+zeVP7QmLzKHM/DAXQ/ocJYL8sYXDMKnXOEAGsoBdtKHOAq24z+N6d2DQ8ksmt6TqR3BJlc/x5Tq1WN4aXWsxv08uuhLoYZpae7wepQGtRDs3lNPteogfukl/ygclCBTaKa/qT5ADTQP43GpUTHDHOVDM0rTH2Jz4AcuPPh+4it1yM6C7NT8SQuCOtQ6CYkqTdNXH1muQvkFv9kJTq86iQklSRZtQ+OWZOKZfm+zwEc5gkEsSkPzlzJ4J5/ATXuMBO0BVYjOXGddVHw48klpgtq8MO+WWPABH+VPe7EsPTvaomcHqd3xDEHZM6EJzACDIyB6PxFtUA8zTVIM5adlF9vFBfbehGLi63ApiDHpf8kMJ3LC3qSnFaNFs/X6A5zFqWp/Un7Mig+k3KgU8Cvo2CWUAipy8KbjgbcgCUoASv+POjgC2ehsKvnVJuAfSHehvKSQ/fcpDLXEvkMPBicNg2oAhS/CpFmM3LNmbmUEO00q/iKYP6IQX8fnl/Yx205eR5gHbpYNhPRxzva+sX50IRtgWJbQ3/MiMGAi9idai8W3vPpDviTITD/b0Ii84fP9J9i3qmlSkYO96L4egroD1v7Bf+ZVtuiRTYNi/QVFEjSk95SVGlKVc+6iBIdpYZSmXkoZzhwQwOyV0RO12l+XccFLCluneFegsyXc7HO+sc1xQvwzpoF4tCNXvjZ60z0BmMGz1vxGq3K7i7EVVe2o2Pu8+OQ7js/ivNrH16oucP1EChZMDI//eLJggBdpgsCrU5ZOVAoIgh+MobFcOemg1VAeQsbYR9EYEC8i/UneGInx+qzBKWnuCMrx93sDzUroSwyS/hcNU7x+BOfFqtywR4M7KeVdq5UrL+u82stMUwFIqMndZBqcb18rjlHR5UJO1wUwIWwi2nSV9IrrDge87WqlqC2JdpWpGFTXohn2NFR6jZY5/Na6aZt9rUjf8MaqRxboPLQU5yIePiMEvnd4MIootTSw9RUCA1as9xbBt4rdpJA6skUKUmNYacl8AvQ/mjJFsA8I56OhpSTzMo96g2up9MjCnDPfHpBSWn5qaqq5DShis8xZ+yAml3wp/dJCLKi3wA9sGRG32e9cdTo4wBleN8fl4H5au/r4Hopa34E+kt0hrgE9cODjlfa8gq20aWIVosEn6QYwTwWPDNWq/s9fJs1GWjrwSuosHzIxXcbJQ8ahtzfDOkqjV1u5op2i8hUHb1Bqs1MCkFIn+Pr0Zx0ClTTVWYVVv9q9yzj18j0YlFpjOWAgvep2iB+t/qliDYbCCDWX+n1t7vNu5Liy14oC2nJiu5kNe4DaggrYfep0z4E6TVerex7VetJpJ9n1RBUzDEhMeTATlAP0wjAcBSaDI2YmDP5pTTQmtLPNzo/fPls3AtfSK5peo/KSjTs2/fPcFrRjJNL+DGo38V5NAf9X0Rm7XHpxxzhpd6jUq9Ed09W/CukC64x8pzk+ZZ9zjcTKLGypqjvs78TDNh1yxcPTPVRy/YV4q40KHa0kcTIScTlEl78ddcmdwv79z9TfooGz2qnc7I/KPwmyLd2Khgelx/LaNlFzUYAytig84nVqeSHBnRGNydSDFeo9qQDLqnVbYSHRrRBrkKsiezY6X88L4vOA47Dfg8+gabUXkWr/si9N48GT4zmOBy7OcPSUXPMQyPUgElyiYESrYAVs8mokYHBuCb4uN/bjFF+7JGypzbv7KRc1AB1RewAFvpp3ipK6bOlaH9rcTwiZgcF2lIfNRNVRaA/TUhdiaJfOPeFkl+m4oS4zQvwxlbYjIeSMIDl9+E3JWVvpU/exPTEOwuiXi2htgPJOixfj0+FanFK44KSl9GXMLyUYodBqr4u4CH4hTYQoFkY/E1SHMK4QAW0VoFiBISqt/fwVWZdYDho4oORC7pNqUGb/2IMOyLGN5aPtOis4MYe64tUn5wZg9pxLS1nlL3iTCIkdagOGgD7xRG1D71jehci0joKtBG17+Y7UBKdLKsyTStz2BE2KWi2r48MGVIFMaHXCdizfW1X7v3iAm6tWSTtJLGwB2T3CILH+NXiGE5m1AaNGI3nDQoylvADU6FbHMUVR0Jwv2u9+MrMY92jRUH6m1emuPdx3/SkALw/HovEvllMECqvH4UF0fbAEG9N7SOTzUR9s8O3qgTkBU5DbULEtLNzlNYmZjdFlRAs51hmAcc01hhheEa3/6ghhZ0AEVb5yZrVYak0wAZ8v9A0dmMAba0Ifn5FJf2yFH/ws/TtejPIk8APPpsNOzNhGcCsX+clDbY0WCyRavYePW3gSBMUy4q2oxSdtH4SPXipP8cKKaP7Wxsd4t47+DuHFLa8jNC8jFJHqgwWQfgW45JdwjzuGxnMUjFFl9w+npzbgdOmK2sp2wA2RLiY6/cmsrUiYiHcemp9fuRYCMmQs2mbq+sWDI4QgZL0Rz3GRhG2fkEAag+5ERcTXkgJAkjFdzWQS9heoGPlTtxomJbZusd5/nnPUKULh1ntpBGKA6pPurGuIEw6xhoKBiDo6hiMwmq1tDm6LJ08nKRn/jJ9gyjngu8GBoF+vRvk3GOOrc/4OwPNC89XuSBizdAeATKjepTUbK3K+EtBIYp8+zidXgDxiEFx1gSq6X6mZlhoTMIOlQcinQfNCuwrdO47QskTSemcp+0NeAayODMsTZGXjb5/LH1F4BJZoNnGHFvN/8flYWqK6BDRHSiOzgyqaT3w0I5cJR5wsRXzCVNfJ6tp8Kid4Pke1v9HnddgKWMz4CPjwNguEuzrWHAJVOfkig+kVTCQwk9A8TMNBMCtP7BDdzuJ7faVRjYX56+AjXJtouesDD3BO+FVEZWmXT/Guo4uI8rss/L5TDLKSduZFPTn0MDzuqBQUo1ptETiap1gH2y/+obq1cod3Auy+waQa+LvCdErC0mYac5wUC3p6KyPRdO9VsD5PGoSiAZDI2VFBIeh9Cp/sCOxXNvSASFD9eA9QRbZo6dosJXFSFtEhSqU/u2+ZAiN+b54JSSZTmIy/TwaX+WaK+1LgCTUQq0J8AEvA3S06KxOPNUN6poyePkMsb/A1naPPjKOh9tQXuq8HEgHJNjW2IQOuyCWJhDxIevyFDrj3zyajwaNIpuk04LVDnKPZ3RQeJHbCp9/WR8L/KBX/f3qps/BRX5WSDyaoJbXEBWQfoDKQZhfGF6IevjtQxXuwAzl4oAzvE+Br4UnzTa5X+z3w40LVsN4hLxmQR4BtkNSGg8t9olY3uOWLsIBgWxA338jOQStUMFiKCImWtzyja5r3xgvMxrx/Z8Y70TRXiBOP35ps872CKm+iR1faHhpXkTk4pTnflTrvCWD9ILEmJgHIayhedmIww/erDagy/M3nvwq299VBmhIFFm8kU2ypIQBnnTXa0LvN8LgRhcWKMqqbqBWAJ3tpCAhM67ggMkOy0WY59e1zxE3Ss/ovSyyqsXIrOIIcKzmOE13Ck7afSlU2driDXd48Azdbzikz38nfigyAVQiev59djxXmhcOJaqbQzIvwgG3xFZ/O6UFR6YtIJDzzh34T7qi7H5+InY2spO6tleU26jfN/RO0fY2b7mHR/xPMVs83iVwC1bCzHuNzv1hqPszrHrihLr9Vf8L0w5InC65a+o7iJAq5q/dSkj6w9qC9pLSj0KCfrLasgusoBNXcYkakj09VnNhge2+Z+EaadqEGJx3wJ8ywYlE2ie44JNJa33++Aj67/L2L+Q+YJtRupFotnIwi+uybEHduMbmSB5vdEVDD+Yjru1ETDEfvucrlvFqgO6eZ862SxVs0Pu+HUeE6eTgu2E1bmQLq2cP+cQGQfSp6LC+fVd0NzxavIpeJsIdK3mlgbA4+g0gCvR/POJ5YrDR/0NMVEOo66EmqlPAF+ZR7Usm+SwsJuKiT1p2x6KgYZGPxTb9KzY67kmDC5NAPryZwJlf6kmPN9w6NUJw6U7ji5LVokMpgXFrYHwVPIThjiU/ZsnmYsBV+0oPTNVwZFXQbyuD+lbhO8wV+zIK22FsJ3RhPvYn71t/1um5lg0TGq9w106oV6BC5S8Baah6oLvvCZ5/zi4vIXEpsDhCCeWyjyMtrxWBBaDlKGtKhAHj9uyPW66LNBFkLwu6Vf+Vm6xp0Ndl5maXKRXe2xGsRtwO/3DjELJqOBsCBpKZfDiyzZ8yb7/fItG4bqYo2BHCHOKK5AihtUE7vXc5lLWHDuHO4t3KwspqTwKDqNGYDqVEvICMaor0jIlFKJGfBBPXYU7W9f6P0uaT6r+CRnQEeDkmTPCk/uD7nkIj4zJlPnNct4J/KSjIzzOPerwFKJpRnGyTebMF44g3wv820A0jBEqtcC0Oeubzf8MxwxENCiA0wol/VD+kg2lv9NyVTEY32EfC2sEMiveS9aDuzuYOM/RjAoC6GtnyvlaH9Qy/mdJKLc6apRrieZ05kW1feWCkbgZD/wjMrvWGIgK62lgx+p0696cTRf+nStTnWRymqvAu+ANIl/owbYzKTGHuQBuToMvSuceI4i/L6ui9lEOP8K8vcmrNJIpMB/Ek85v12ft48O32Hf+O30OTDx5UL3eATeJuUfmXN9c5BiAAvbZp5CD3HGshQuvcf1c2iOewid6aIMaxL+ync9dY/5bV2kJZnLaSli8LNqd4oWqqFBtG7sEwCr9TMpg1R6bWDqarmqheRjBzTJ3lg5piJ+hHjkqJeIITt6OAAAW9MWDL6B2jXJAPddoZZVdVRTJ3+8abyClSO1PcV4z3cpt7aAybaIaFicYeh4gm/+PhJqopQGFrBrPohxxPNUtT+aj99Fs4tbHzQlPpwVLnHFLiGNDuRDbz4J3WRLMeSSRpJxtxVp2rh9pzkYcZ4dsfoWAdvO5wLfxZlRrqoq8W7QSQXv4mRWJYhGfMTHHdtgNmN3AiP/l95xtNlUS9+ivbXo16jxqAPy/gAdvmi1gIdSSyHrNhgDwp7NgtUorxh5DMBPyis4RVt1NhPAqtbxVseN13mn+xAn0bpqdQmXtuT5NC9PPLPkaP/0jKeb4IE/8ftEpjYEE8k+61TzuLicnfgwUClKBm/AjCan/5CCUJ5PlopniF/Vhg41swaSdnhgom/wJpcKUrYO8b4dB6exCugEgAEuk7iXwr6ygK1VPaYjTUUZPY8aPL4aWMs/fXPRRulTKswAWSEm2IdQbzELIVsPgELfkFqSEW74vNdjFRD0HZraum1WNUqlavLyYcCuv3jyqul+puk8kCH4HDdxocASn1cHv3X1FQOfnlKMfd0LWTPYv6Ze8OLlyzx3nLXto4+9+ifhnLrGcwKO2k7V/8+5IOxYStwg4RA53UpOYPw19wn0GbAwNa371zaAL0/LGUxz9wzXf/FBioZTB82bxBKKILwe7dcu1dxxWKHMMlnn70r2L/1f0qq1XM7suA7jz8gn7v3TgBTfUXJ98Q/XNDx5qbUEB6DMqu3abrjiaJcNMiIPNSSNYGB2/dazjtruKvaH5qqzJ72jkH0oLoLSy71gvgCXn9dnsk9Cb6IEUoJJ7ejgBQbNHngtLLRKqBgfzs8ebGyM4sNLmznna+hpRwzXlSqgYH87PHlipkdkpY5oYQ2eEaBr3/g+24tWkCJGpLuaBHXJABhAJhKmOphONM7E+NZqvYjcbZNNLXiejMIGneTQTUnHvV7mXl0fxM6PkAdddojX29jw1N3vaLMkdqirUaxK0mwJi3BxsyXXKsglXEOFHm2XATtft0k++4+/RrkAy+i8fWRjZihqd3Y/LmDcYFwOuB84gU8MxMto9ORN9i1wJ6t2aYtIM/mHPMiiKDE0gg73RBfoWH0RnASnhhYDta9O4N0AoLmKtN4wX53dpRf4b234ua0byvUkOsFEsChKlcScZqNxMTZ+K+Fyp+HMW8vPBZC3ZzHbEKYR35pSAkAK5L1AaR3gfsQlNurEbV954Xrh7rAXXpBcD60+svOA3SSDjBHsSzRy47tXmSA1oOlWvZQnO9Afv4jzSn1ot4WsLpg2ml6PmUpmITRX6b0pSaOhDuzTQHnVkZK+OJ1N6AsmGOF/4DzhaLSjSYX8htuaN/RRBrhuu5kthISEF7fZ3i3zh+1G+++4yAV0FhFKSlolCWTbb8mpT/LB5jjK+/MQ+k+WUV/fqOBk0A0jPuhwj+mpAKr1mOW4uZV8fg6DRDL6DfdpMNoL+2FxAmvgLyrYvZd12ProE/44ekuXaTQmS3eN/JAYGHbK0rqkjym6j66ioWLh8O5AoAAOj2JQ2GwmyB3XR2Hmj/I0LJ9nUTeRoWT6qECHtPXVzjPbNH10IAXSpRL75FaGmCNhYW3jj3NbPABcGHLhR96aNmtjsTY6SJ3QThGw2W1WTzxQF3dzMlr5nez1Uf2YrQtBZp1LHIp1MrNtpJkIv0zaaDFzpSXIPpeHxxsa5nuUkNLoapZJgyzcFBboj24nxcbjVJIoM5SJ1qHMiAldBFd+VATsCaYUzmxaYaXf2XFq0GaFKDkeudsaTeKpyBIzhmixiFNvUR91ocf8RgBsAcr4RRLjm5AFkJ/8g7DmSabrxUGEe4PmTDF/bbH5aVYQbLlhBq5VZ31K1acFdfo3Q6Adt5yJ/LEpo1so1qDMTPrjHjV1t8EqJkBdSWGA3ngXeib1H+ziejyx1xrsIW46RB5uAyhEIDBNylvHDv7cvOr0q1Tp1NQE90IaPia05SOAgH8jHaVQi9ATa5kBIveTslzjDWq8Pp6QCFOXqHwYBzT9mfnm9GycZtcbB+8mwoV/wH5BG9opYgQSBA+b3S6mWPtaCj4tzv6UnoMwqyWw66i4zzPo5sXIRCdHhM4vdSHCDUCKQASVga7grRzvYc2J114ZGvmrbLbpUnG0o0kCJKKDQHXDu6tnE/x+tnIzLlhDd39Krlbn1WzdV55XRNmImx8s7bK8Av7SUFp5MNNiWId/l36ATl6kKJO1fhzxF7dMb1FnNG7dOWahyg9jqtj6IInlR7fDOeEfx66YBTyLjNfr2NQYC0rf/2GaKLPCckA0h5FqCv9lBE5oJF4+KXBUEnOS0lEDm+/lq15HIsNdHOQ7zjIYcyaIfvNh6RubS7wKZGhpX68X951kEIfmX8xr8DurSf386pmtwjTdHD2uHpiKwfCDH/owZAzys2O0+YwZ7WgSV+WOW9mre4ghNQ8VDSrW8EmFe+mIWfPugLXMiWPZIYSLKeTZh1GgmHM/eDrhBs2ASgF9KwjWj+wZo51CwUw8/HXZPXzbW0WTX8jgWAbB9dlm6bU7ASL+3YRdpaTv4bFhM5ZZJW7JR0WhH8NZ1kwVMAcg3Ymoomeo1PFkP9MkEsMrcx0ijIAnJOyQ6vKpA5yZ7RURIlq9d92PR2+J4NeiIskmOaHZr0c2oe2etO02IfY2rPBHGTg9N18yYdmDxyeuqRVcO6eOxrqIRUkOvIR+gJwRWxNMbnnBSvxKumjqZlczyxQPUSHcbaUFj+o4EHYjLPDogXj82AMw5dpQdTS9KURjYi35rI9U+zxuf/Ld8XLSfmetFP4H8AvRq/hkMC8W4DlcS6myFbvLZQVCGMdURI6FGVU9qb7jmy7tK0spp15hKvg7FvLg9fjkJ988rYf2+F99fcOkYryocCo+3sKV6yAH1qA1OrI9SlIIyvLNCsJ0TJ7czreeAHrkfcVl+jL2fKeH3B3PxTM/jkOiXTiYn1DpW9wEsSUQsjbIGjwPaKy7qvaxJdB2dxNrMWim7VvLfw7HHgA8/Wk1U5Yv+wo4PIcYAs90X5ANMTJL/xdMO+KcSvTWtpJGpM+Dwr7mtJ/SxLzSQGQZGQFkBjImsQB1TROASMYn24nDnuViJxTFZxE2zHIolc6IaY8BsltB6xZcdzXU9tIXukwK4r8KXsXKmiitgMMePUB9TewYSqlW/rjpfecbDCOuql+Tmmf9jx9HqUHRBvV6vy/92/MTo/JTRYC4gTOQaur9L2nq0yXLrnhxzGIULJPkBQ49hAiBYQTXj0eR5QIWhhl8mRVA2WnWeRETQXj4KNQrBp5+HSBUxsKSMLa4E59Ild6EWF3Mw7cKMFUShEHDCP9HKEg+bxMcn+UVaoMLAXzFTNuqpUQTsMHjMdF8f0+KJk7fHfecoWIUG4vYeGa5seeEQNoo0Oho9pIpAOZOls3SeptnYkor0elIpuBf/9Se0EUIxPE5ExGloWkdme//Sa2zq4n2i8A4dE7GIUmYyoduLqNfU8QVR/ya6Hdt9fl/iYs10BgboCRN7eCvGXetLf5y7wHxkmDy3PNmc7v920iCzfXVCSWFV6OBTTQr/u4jnHstf1gWD7c4nKLTpuJlfTj7zgQKyvJXc/JQF0U8++o8cb/eETKbvC7Ry1EYpRmpVjwLK4aJc5eP6jURHdsz87vsvR9lIWKL1SPAdIg2VxWI5b5W69As2gmaGdIePYgFmnuJq5SoIkuxMbgOd/z2lTHubqmM6YeIVOinoXKz0voEFrMnH9l9NBRu4/WXCMMGyZZ8FciCF/AFYZxIsDI4RSXh9BuahpgU27ddo8nI2Cr3eFSAqR+jXD/JSVJsgxZdWbNFWSaMRQFdpCqLrNUGZch7CLyJcNnwOnR+WH4yfq1Zejv797jXzpsoN6nWP0o2vr8wSWCioiHaFAa0ezog/T2iUZNEn/VhVzHLlC++ScES7wgXHtKoC5bUREE4sJZqFMvJe7pZPKY1wBjOQq7FIzpVWwcfvJkfHR4lzq/4z+pgsxcV5ryrdBgnEC+2V6R/eEaSoVrvPMv9qcZqN5SPbjf6s8yhva1EJxJSwBbqETyZL+Hys/fPbAp6Goq6X6V+rn7ypBNjF8XhNbW8BVGK9fTkfnQO6u4CIp3sxqXmcpJNgEbjmgG1/p/U6cs6xbL3DvccgsdXeUOteh5hXKoPGDjlakW2oUX9UQMWxjgQev5oZ3rv/W13NjO6DVFzuKmoVM0GD/plDKT5ksbxsKdpfmGygE5zf5arv0oYL7P8rVvR0m0zxOQhAwEmL4QbxOCpraoGhm2Nv+UMuYuIyfHPwvNDCq2o0yMPsf2UUiKs98yEpK4k3DfHmwk7SOC+5i5G5mrue2789dtJTM6BeOrdNAOWDtX3I4jQPVm881ALwIpvn8kGihU3DglqdqmVBB7ahpzjQ5XkHpKCjgxPbecmjIidUYa/mR8ylF2xy0WjoCqlUWyk9AB8a1HPfDfJ3/Yn5TyYydJGoEWHpv4GoqJojwPtzRAGBdbvvV3CDa4XoRPn/WIe/0HkvXESi/X6NCbd76a1GKsN0xY1M4JBx/8y3e0szUaMn4xf3PGRdSwlMcC7Y2Beg53MsQBl1DDyZ9pAUsUYnGWo+SGjvGu2B1daqIrdtc/SK8at3Hwgk+buwpHn6oFNdbXlOscrqO8Y/bq2Tu7CqOzJZ5SljpjGAAAlVWf9kX5mXFK7o9CkJ9QJJljjDjJe1g31ffKA0czQXDR/pTSuaS09dXWeVZhQI++MdMzDEa6eAarL/A8NZO40gjhZRDwqTwlKOTeyEMpYwZ1V+5aDil1iM9DgAHZ8d6twP19Et9invOBDt8il3aQjjgBZ0ZD5ck3I/1co1aTdpr5C/3cLiMr2kKhJtSfP8y0P9ZaKJLBEAgjq8AIV34B3QXvkbUZDHqtdUpTUO8EJ816IPsWV1aMDXELaZMSmkahViqgy5Mo1zDcRQYTcZ0wOuKNnO8U5LV5yKB6y/CCwvyuzCcRTh1K7i89KesRopWjZXpf/eHaatkegIODWrTd5IuI1ty504WsM9S4BVbIp/ypjhrVrNubd8fCh1nKZrDNh3uB5QPh6SvWgZ+OxklVpzEVn5ODW1e7jNVET0IP+dziBYiq6e1r5YUg+29xPZVTGdxRCw7TMsSrhRF0mTbrUqJk1cgJzPk52qAyIV4mw/MAM4pXiyEsIJgLUtqr/JCznn6b+pLXUxMkmxtZcAzJPQPqVXWHytL19gBYgkC2fvppiBhEZR74ABFn4NyMd806tfVAceg00aPoIw9NmLN0PkGnUBm9Tgp+6EiHXFlSzNcVmK6Np6px+tOTFbAdqPBviglezOEvBasBKuURjvYNL8gMVfFDp0O0vxfZa3XN0lqgmH2NZ0VJsnX3Z1Nnequ1/rr3orvkEjyjnUU/MFRzvobrTKRDof1EDimBVhrE0Q3eDCZROqe1O6BR4qjUF1qLUOw4ywn2/OMWZ9XsuWcF+jXD0an1G5cRofdul8hHaNCKpcWMC+WWIOtdHZRdzYRj3hKkx9kplIifzgNZN6+sERkGk1FazhjHWQyVXl3PCA7XmwtFCCk4AG+sUmrHweNfVHyP4gsjaXxr6q9YXHoC7dFRwgMMIjoZTTQCyodOa/CuaGzqdvzjICBPgoldZzQWD5UWvYaozrka/MKT5rEvE7uga8D9U7ydXH92GQU5AXHUJcQP2ORn6aV8hMy5zWF3FBNcyYqy2en0Lzf6Rq3WgcnLKCZUzGlDOZ8eaqaPgXmHKjJxL9kBsBiZ1ay8qlOjwY697YWfMApohucF2WPKzb0rAM+pR7jVqSaZSBc99NB+68VD8K6drOWkjmcq0WX0pJg4n++baZTaBuKxOa2rwC3ScnOBk/SXMEM5fo8GuVQeoAAAFBV5Mrrts+cJAmf59kPgi60hoPg1d5QnS4fOBnArAdJ2ONgKxyXW/44D7Ai2bYlzSyksFdIFCJ4Qm3lJi0TJepBPWqNBMRiVzNgHICJNRakmaW28LGqxfNwE6AYD2/cpDgLvCOVZBTucwMyucPPb+LVw/ZD32oV+SOpZNJSAXw72QJNlfVWfc6JBPVml4iXHsGqAqZDj4QmyWjrq602msUuAVX1xA/R6EMkIyKIXYzHNadOhmD/WC5RzFq/rltT4PsifRCpW7PJJsPSIf0KNZXDuq3W1o2lMqWem+xl95Iv5Fh0I4S237+cnSuNAlDgp+mmAV4tLUx/iDyG0YjQ0n+4S//9FjuGgAAAAABFWElGugAAAEV4aWYAAElJKgAIAAAABgASAQMAAQAAAAEAAAAaAQUAAQAAAFYAAAAbAQUAAQAAAF4AAAAoAQMAAQAAAAIAAAATAgMAAQAAAAEAAABphwQAAQAAAGYAAAAAAAAASAAAAAEAAABIAAAAAQAAAAYAAJAHAAQAAAAwMjEwAZEHAAQAAAABAgMAAKAHAAQAAAAwMTAwAaADAAEAAAD//wAAAqAEAAEAAAD0AQAAA6AEAAEAAAD0AQAAAAAAAA==;fontStyle=1;fontSize=13;" vertex="1" parent="-rQd-odtE4Rxx_igMqNB-9">
          <mxGeometry x="408" y="32" width="80" height="80" as="geometry" />
        </mxCell>
        <mxCell id="-rQd-odtE4Rxx_igMqNB-6" value="" style="shape=image;verticalLabelPosition=bottom;labelBackgroundColor=default;verticalAlign=top;aspect=fixed;imageAspect=0;image=data:image/webp,UklGRtqEAABXRUJQVlA4WAoAAAAYAAAA8wEA8wEAQUxQSOZIAAABGQZtIznSzPefHH/A/RhE9H8C1Ha/Bec7ZDg9RLKgDCU5zyHX7GJI53lM3CfPMyTbgDAIIYVQQjeAAUwo1KIupCnUVg+Dto0kOfxh739HICImAN3EG0ejo33jpxr2o0Pz8ns/zv6/d2zbzr3yUitcJ5Qp9957F/lmCIq99xbee++9995776VwWLKqqKLs24CJayPhD7ADGwxGAyZWF2rnBwzYgIWZ36hOLoyAUL6qC3PlwggI5ZvBB8onVn5/AbHzy2BA+cLM5QonFwgM3HyjmlDY+cEACOUL1YSJlV+MgCc/qODXgIkZyX+CUn7BYHRgVRdq5xsMCOW7ujCxGjACduCwCxMr1wiIk18Q+HdgYedyxM43CAzcfGHmcoWdCwyo/KCaUFi5MAI2YKMi5XN24B+wARcM/h1YswuFk28GA8rX7ELhNIABofygmjCx8zsC4uYCg4gJmABc0fY/diRpvPfee++9n1nv/dXG8qfh91TdZvzy7gXQDBRRBNYmgOIgBGMSQHMoBGNEYDEIwRghWPMRKAKbFyKw7hAoDCLQURGHQGFoBooQgY2F0AzGCEBf/QGIwXdRANYeAoNBCNokgcJQCNaIwC6FQjBGBNYlAWEQg4pIAoVBDNYcAItBDMaIiRCMKQB9lQQGQxPYMUlAGArBmEOgMQjBGnGIiAn4I/Jf839mvbuUwyFy+J/7Wedvuue9mtytue/DHvNAUL6m8eNf8FhydYG7533Pc8A52uB9nv6G596fHF0CDa/OHz55DPdQTjY4fOgjHv2sF62SowsevPggrr15FnBeBqxce7if8Kpnj6lQfvbI529yv/39Z/Qg5WMV6UmnHwd7l16+CSIHV7KbxfnTm8Dutz8F7Bxs8FGv2F/FePaVuy0Vyr2EYOn7Xgw29e7+7giSci//jFbPvPapIJvJ/qs3yb+V4Px333xY2wnD/M13gp1rSf5pJme+/+AhABJ+4ksPayqUY0kNzJ35vR/YNUkomfG1l2ytQFJuJflzmr7shjetgjnuZP81V8Hk1VIyky/d8FNXAB3LVDe9ZRbsnEqqPpeOzv3od67jiuMKTrxw/0RjUi4lMAtfPdoCUAlhxf+sf45/GxJyT0OJxHH99uV/DBAiZUf+Df5D/t3+PYjJ9JPAXH6wm2KIlK3If57+pf51IkHTTSJxuv8XsvUfAQqiUvOf9M9zFgPRnlYSmMWfrP1nEFCkfOGg/r9X/Hf5D0JmWjlmTm/dbv6HgYKo2KROxv9yh39OOHr6SBjW375YxSGNVFEEJUv+z+mTh+mjmIR4/3Y8A1lU1Yr8J/jfp5OSaZpIGHbfPjrDIaZUWZjuXidJyD09FJMQ798PZyCsahEQ/wF5IxOZpoGE5fW3L84giSnVt4CLuXGwUk/7SEnggxfZhkFMqCx8MBJy0DSPjLz7w4szSGI6MVhGa2cdO0ZP64gQ+OSrzr+fQUy4LMLZRQ7BcRpHRl58b+0AkphOHBbE1sE4kMYwXSNw4LN3GysBxOQ09P/jtlNIgqZpwGL9vYUzSGI6eahtzXYgVZiekc27X/XPAojJagGd+mVuEsdpGeSFTy5XIEvTSYMMNGsPGyZVmH6J6nP8ZLsTQGYSW8B/2n/KZdIncZx2ER69XhxCopxJLQtG6YN+SqowvSL14eS9ox6IyW4ZzoeX4yGJ4/QK5tFiC64FZMFR/18vq5ESpk9EMPEv7O6/HQTFyUcBG731YYcETZuAyZ+c1DKwuCYt2Op/maREe7pECvzk9sOEoJRrVAFWetvtBEv5iAIcv1g4AEvXCiGSNOvvRJBzkUjikyfNIRC5hmNAK4cLdYSUfyiIwf3lM0jiNUUSadB+R5j8U0pCvv7Vdh/ENZ6adO7gyDTKPQqfvMrAxGuNIA7bwz2oUL4hB2rfe/0QLF1zpNA9/3dIock5MK3brcD1MoHZPdfYUo4hzGdvvUwISq8LTgndZL2tnHIMBWv9z+/P5z+K66Zl4oObdxMmt5QCj+7TJiheJ8Bi7idf3+NKOYWCGX38aAXMdcOOcPKuc0cmp5SCBzOPtoForptSwuTc754EKZfA8Pr1EIy4jtopO2+8sNRUVg6hYLpvvZizrOsKUlUe/sYdO5CUPwBr7+oQW1xnbYZrf7pVYpRHfPz2bEZQer0hwdL33rXeV07KF2THtVetHshcf20Wrv+9dTC5ohS4fBLPSZRz/ZUrWPuJrYbKyhMwnNxuc72W7KNLB2dqyBMUDE+eHISo61RyxcJ/3XAjSDmCae6P+gTk6xJIdPvf9aUVVVZeIMz6684QHLleJfvo3IWb5kxSToBh5va5ud73J3/pTjD5oIJp7s+MjXw9M97/7/mGysoDhGm91hzXO9kru9cfTEDKAZA5uT/sYUddxySbowu/tAQiDwxw68lh4PovirXvuNQzYyn6ZOL29hag650ERx9d2ylBBL8SXLwIZ5h4/asqpufuWABH3+Dux70xRtc7wGjtjh2wY0/MULu1e2huiEqk7bWPXhtDUuiZ8e58BHRDkGH7yrkFEKEH0w/CJoT0RgCY9so/LkIVeobFJ+MGIXLjvHj9xRJbUaekKk0PF/rmhimZYvvgYApJQYeg3z09BHSjQIa5M3dtEve2qf/4QhtCesMAMdz6+3Uxg2KOChbPrfUJkRunIC3sz985JOYku7a+mAHiRiKbjYMLU0zUbz1rroBvKGDTb527SsjLhov3whDMDVaM9w9O9amSwg2Mbh2PE8wNVlj9jfvXxhBvMqPXo02w4o1GNpODCxNMvJv5+/kGmBuw6dcONsHBJgIMXqjHDVmivXFrp5SVQg0Mi8dJwLoBgenW90+1BLtMerEdAN2IJEN95foaxxrQnGnOgcWN2fRrJ1fB0dZ9le5BkG5Ignb39FKbrBRohvn9eIjFjbubnd8pCHQR4GhGGbpRiQomJ7d6HGeAupcpN3YzWdvaAIeZcG1msAqWblQSlDetXQVLQYapvWrOFnADt0ZLF7c7wtzQvFs7AKMblqhgY+tSD4qzi12NsbjBz23tl5gQF1a83EqAeCOTzOi6/SlUUozF9fkhWNzQBcXiznqZEDFWezXYgxB1Y1NFc37/1BAUYDbxyWiPKaBh77qLHSbAAzT3u3WQb3DGjK6bH2PHlwzrWyFgcaMX1Bd3j8CKLuF0YS0BuOFJ0F09tVQnpOgy6aP5AwjxhoeoYHV+qYPoAmq35h+AxRTQMD29OyS8DbVXgzmmjtNLpzoqh5YIsLWeJiBPBQT17rURWAotx8GiAyCmgBJ0J5aWWhFayHF56xCsKQHCpPO72x0itnX3aAnM1ABXsHLTUkNoG4o7+98Hi4wYIvXhToeDa7o6/CCIjChgOr/TYoeVMN1GbzIEiNH67Aq2FFfpqPxrMCkzCJic31lJhBWyVkdfBosMaVi4cTEh4lqb/ZehShnCAeYOtxOR3Sz0l8mYASaHsx12SInKNAvlO0HOEAKmh0tjKksBBYay7qqMUdhvb28Q1TLNRvMxcCJLChid3zlKSBEFmpYfJIMaVndPCBHQUqW98haokrKFK5g73E5EtfbKs2CRMQ3T3fNNTBnYKG8Bo4whmDu12FFZCidMWinPkkEF5fnFOWyiWVQm7bVfB2UNybBxfqkWUjAdsy+7GZAzBmBYWF8AEc0yTDsDImvKFUyvbSqggLKcIaN6YFU4moQ11/81WMoeEkx3VqGyFEqDc+U7wWQQBJOlqy0mmmVN269DpQwiQbt9Yg4cTcC0fycZtl49URLNNqrbZVAmEYaN2T2RFEoYTdp3klVtmJvdAxHIooJUj5dBziYVTGePRDyP+6Yiy062V8DhNCoEKJtIAxswYymUiroiwwpGi0cFsSxTt+8FrGwiQbt5NAIHU9l+Ciwy7GRjoyGSxcBfDyirGLqVExNQHA2O9kow2dUwvRpRPdhZRVQwOjEFKY4M5UZPpjWUCzWR7IG9FqTMYqAfcBxh6Odasm65OuAo0jGm40wjwWihhiqMBptyJdsM9kd1IpANxWg6BmUYQb83KQBFETAe1QmkzCJBMxmNieVy1JJ9R3UZRwKKyWgIzjSG4WRlCCiEELTTPpF9NVrpQYTRsB6DlWUkoJ2O4wgYjoZkXsOwHhPFEgzrMTgLDUEKocHhaAhYWcYDoyGRPJ6MwSbz1ONQGtZDMJl3WBax1Bdk4aKPpaLMRt24CyMbin6YjdoO7BDiGEU2GndEsQ3DsgAp00hQtB3YITRY9AVZuBkPEMHC0GWkLo6O2Y27TNQUDVFsoBg3oOyTugRIEQSkrkhk4WOFsVKj7CNITSihlIGA1DWhBJlJ4DCyyUiJQLZDmBIJ2YEUgqdEyESxwJ4qBXOSTcv1k//SN7ugk4CnPgYFUdGknzAVtgNJkHSmRlUlQA4hIGtkU6REFEsFCdhTIIVRYdbImApXVYojQdaZAlnHcRgljWTqA8eJYQHZuA+e+nxupgE5hAqzccZU+BiB3B/3QVMbIz72uQ6Ew2iYTXkGP/e5Jpj6IE2BOpCJYAOdemPqY/GxQMLQKJgCf3CmIIwNnXoHZE9lNPCxQAIa52OmvIIPfrAAK4RsGG+2k6mOgPd+cAgmjJPDdgM0pUHHieRhvQ7YUxeT4IMDVhx1zjcbTH3/53MFYWxBdn4wBk9lBNX/fLAABxEI1w96THnf+zETyIpQ3+iBPWUxgnc6RRIqMcX92KdUhBJQXynQ1MXifz5VCORIOp9tg5jSfupTYyLZhvOHdYh4qmJ0rOQqijAcnm6CmNL+9adakImk3srqEDSl+dRyH0uFq2dzZgorWP7rlki2gcbGwzoET1ESsLzcgxVGgEjO/p3OwUxVBe9cLoMpRphbOgc8NbGAf/ufAkwkC852zkFMXW+ZIZyNzx4cguKUxIhPvbVpQQ4mznbmIDI1tfi3t7ZCJpJtPPfyoA94KmLEW788SW6qKpIKw9npbDJFQXDL5UkimG2J3tK/1SHYUw+ngbMjYYUSSGSn/2aHTFEFl5frgCLC7L/J5hRF8M7lzwEmnj37fBM0BbF471m1oHBywCtPVyHiqYYRX/9yP0QOJ8CrV6c9EFPRr7+1bxDxZGDl5dIY7CnIv50tG1JFPEuMl54egplqCr7+5VHCCidbEb/811hlymkluOWttTAxHV7+a22CphiD773lYwIroGzC0pcHEPFUwiQ+9+WZhrj2wZ2lHogppcU7byl6RKWIMmbvzs4Q7CnGv/15OSbZDimJxr/F40MwU0gBX/+VsiCojSK+869wxhQzwVsvj5qoKpoUiZpKCH7/llpYQWUTHr4za4SnDBa+5VMzgIkrNx6+2emAPUVwSLzz95sV5LDCgs1/o8eHYKaKFrf8Ztsi4gpFOp9+vgnSFEGCW/5hVMQWInn+0QaIqWKEP//9SUNsm+TBv8pOA2FPAYxg+fJ7ASuwbNzZef6yAWYqaLH859V4gNCKovf4o/MpxL/9ST9CmoksQHS+/NYZU8cv/2bfIhPbhv7jf5FZiPINz1HwK79ZNxBdmHD65ZvVREwFxfnZ/0FYwWULNr71rXMIvsHZkfOXaRVUEd4S5x/9S6wyNdy8MywRji9D44t/sTmI+IZmRTh8Pi7AhHiy8/hNz7rBgeBqs06EuINIlj7/qI3sG5gdGS81RkAVYSA4+8E3N7nRi/qDcAEpyIDh5/98Z5DiG5eA8y8HI1JFmPcfvP+0bm7oEZY2RjlhHizC1Te/1Qb7RhUi/YNVA1WUgeDsX+i3VxE38uHzcAlynBmG3/zFWYj4xnX+ae0IEWhA9vDxv9pewg07wsPTQQ2ZOLciLP2z/Qu0wTekIGWrcx3ARPvZj79/AMI3IMT4TWcddHPNFr3Pv/+gY/mGBOdfixegEGqAGD/97pcZ4oZrRbhaadaQiXUT4eCf4p+lzg3YqH+wmgG+2QaGzW/+4hs72jcYRONxZwZkbrY7QH/nuz94k3HDEZx/xBYC32wDIrz8Z/ruGHFDNdHhweEgBYub85v/NL9rDkX7hqLGzvk8xISb8hbjO9/67VPDjYRI74vOMcg36Ujpv/NP9P0h5oZpUjj41E0UuIm/98/wz3WKon2jEGHlNM8B37QTMNz9zlGixLoxYA3fr7+CNLl5hwSvP4wLqRVvCI4w+04yz819xUCrtfV2Dck3ABPD+eyGgHBTTwH59Y8CBOv6h/C35u5C9E097IiXb6XbJMQbABx+NLwAmZv7UsKgdvFu7hRf5+zUc3f6rYiCbvKBxXjmR02UoOscGn95dgkxBG7+y+zf8nrqGK9nJjUHX/S2AHPzXwrkXH5vgPB1DIvVlbMImGlBC79+0hMBXa8shL7/8AVEh+kBojkeHH1M0HULR9j4tD0PMtOFCdH7r+vEEK5TRty51xqAEqYPU8Lyq3SBTPH6hNV+/2wf0sTTB1LCiOYrkROuQ4Fcw52rLIfAtGKA4aOvlJIQrz9Y/QezEaKnGYgwU8t2Iym+ztg5bP7gdI3pRynA8NYHhiBdXwoPHm6mTEs6omfdxhEW11MjwW88fQHRYfqBGBhk+3cDQtcREP03e40ayJ6GIBHxEe1IsK8bRvCtj/abyIHpydTMh/UZiOg6Iaew8eXhAsRpCxIpnAx6kFw3EM8/GlwgB6Ytldtrza0FSK8TaWT104MTSJ1MYzgjji8GDch8PUhg6fF4FCER05hWSjjp5iOc6tpL8fk7s2uQhsC0pkjIV5tbASXXmjOUPd3oRzDTnopkj7ZUw+k1ZaWmq6UtiCTTHzjQnMtbRsk1JCciDLQZwWb6UyA6d7v9iNNrKMVpGCxDVMJ0qMG0VuIWKLlmEuR5DmpAYHpUMmSvumPh9BrJIfa7y32kRNMk2EL5Hi0guSYyoBn2cqzA9KlkKK5c3BZKPelCmjJ+50EXEDmrnIr+YB6caJLZkfHLNy9TiMH5ijBuD9wLKJ1cIeYMn74ZRFAQeauSU3qgrghhMtkpw6s7O1HEYPIXwOnyuB6I0ZMmpKmH9552U1AQ07FJVuMqdkUImiR2ZLizcwXEYKZlBXiwO2z3idGeBHaa0n76ppuCgpiuTYL6jp3ihIk3iPbOyz0gBjNtKxsGa5vnbZR6okwqZt9Zmq+BgpjGtSSGV41+F4c4MUaw+elSHUWCmdaVbWoXw+EqSj0BJors3jud7YhlMc1rlNI/PWwfQZgIR7j6lzloodQJ079CCemg0X4ZiNGuiknF2XevLk/AMtPBxrmSub2DiwgJqo6S9p0/qjMgxpAxXazMiPG9HqS4IitSf/CD3osczHSyc9FbOttOAwmqBGu8dPWgBlEhmU6CzIRu5/2zSCqXZaL7Vz/oLQBmmtnOI507p1vOCKgcrLCydwVEJWGaCZQE3Gq8c94P0S4n4j9q7hGkSWAa2jHCUuPRqBsTVEpw+E5ji0jC9LSBd394vB+DYjE7hvOXyQBImKZWGlh/9dV3UpeBsgdzFxATT1upT/PiN/+KuggXkQjvHO6DzPR1At3f+mtbAKMi0LgaHzG9beDX/8oWTLDAFmyehwiezkLwF/G7lxeUEMHg5DCDaS6l5ic/9/FtJYoQLJ93moCmtWKacPt7X/8DsRTtfpfpbsWMmXd/5i8qOhbB/awJCtNeC6/+Ev7EiFSERtJl+juhtv2X8yfkYAhBbiRNEJ7WkqH1v/obGIFFCFDMTHu3Dw8D2ABu9DIQ09/9w7MepRvtjGlvIzifPTcGRGgMp8EoaK/UKT3uTYdFQe+gDjYSHrf74OkuCjbqFBU02hnT472VcxCWcKOXTJMN53oQKfS43Z8Gs6FxODZSQTLsZeDprsJ+r0HJYtPfhmzcN6ggawwTsKe7gKzXSCgessxMj/d74wRsQJhp8mzYSJhWt4EiKqI4HVa03+lQWtNmSWNYSkybh8awX2IaPen0+mBPr7kz7DO9LqDfyIpJmh6rUJKmzRRVIk0F0rQYonhsdiPT7ml3kE6bSQIDsTvIQdNjIQtgQ6x1U6bBjaA/BlKMaoPrk0DgiVERl/Bk0GRyOFBwuLOXEGxoduN1CcQkNpNUaHKYkDTwzj/CP9Lv2umnkeZgPgddh2xPmMsolITtiZnUSdgOBQwv/+n+cf4Jfuf7ez3GaTfnuiwJXMSVqUiZxuAImImVirkqOp4xIMCEQzj81j/U39rf3N/C38lv7GSj65O1MJKTJATbIdguEJEoFGOMkgQOod8fAyQGiLJdFWFIL7ohS0JIAiCQNJAAJBAw88GPATMGJBwIgAyw+OJnPr7TTsDXn+bxixOSft+yjW2KCkCSkCTg4qjVGnQhIGFAMtWOC5evFvqdLAlZYlQQi6ACCqND0m+PG0mSJA7STYbiWvgHWRuurkLwdSXa6ZPv/dYHScchoghRqIgDNg62McDdu3efPLl9d3l3YRQ754dgFFUVk3/9G+/tNjo2IRQjAlYwYARYaZozPp+b3dlbJVjR+CaCpGD4gqLm+iq67/7e33oEIIk0SpFqrx1frp8sz6xvH813c9zu4CDkKsDRT/8b7zWpoqgwbXajk854WJ9b6WS2zM1EYa7PIojtb/z6IyZzPt/aXlx+9tWrNW9s1G1HuTxh1W5//XtM0tHRxdr6qzVOv/n8HFL7JgIgCYKvN4AZHHU3o5TnKVhlOcmMDYioGNMiqDbYWrucubXWdP+8nQRRqdB8S2M6StM8rcBJYoGISouRj+a3jk6OkvOzpRVn4iajEMjXH9Le7/p7Wzta2D5eXABhZGRE6KwedLIkAcVaczS/MFARghHkC68+eLbYuLcRnMbyjDtL/3DvHc0fLRwvnoBLCPcPzzIpxtpgtBWLBAng+PX35p++8zghhpsLYK7Pan/z/7WwfXm5uDw/sz1AWFgWGzvn/SDbAimmaSemKM9FCEh0ty5fX+bj4eY4s8oC+rN/cP14bWF78dUHy0c5LjBsPtzsBQFRab7WGoy6aR4CKKYXl/fTwwcPFLj5ZSDpXTVrtW6zdtF/9Pue1WRHLOBbv9G5yPM0BYesMxz2HpzOZc3j46ZixMiCtWfvtQ4enhJVhsFZ/WWzWevm8eTtb/zMJQgjeP7j1ZQ0JCEbdzq6OLn97IQYRNH5X1k7WLrTkcLNheu1szbFz/Ldk/UuRUWy8wYwYBySpNPbOzgcNjI3t2q1KIyl/Gh5meHpXGaVKnTWo/j937H3FgIKZp/2oQNOksb5WDEfbd/d6mIIJl34auvwy0NungsD/Z3ngw8v5AJoIyoen8/ufPHmsPZsJgUrCsH2u+vp0j2icBnl3vv8ncOtaBAwTpqU2Ts7fX+v9eoXdgEkw8L30n+lh7bwTTBJBQph7jR9NaK4+6SgtJhtg/vj882Xq0Pyi6NujoTtfG3/YrxzkFiUK0mYYPZOV5drWACJczkn2IDHvcbeii/vr6UgbMX9td7qanJzzEEAEdz2fIoMwhCNjQuEBJKAzZd/1OnWzOuIISLRurvWPH1OlMtwEMU9HibYFEo2AVCBMHfubAy+N4NFdIhc7o/vNG6OgQsMbtCMRQAjwJQrRUU568297MSj5UEqJJzk84/W6ndWsXAJcIGAfmZKG4EpKhFDdvWm8fq2hIXF0aP+VcPiJrpxgJTiBlO2AWMTBZ0vH2wefTgCEBGOntXOV2aJppqizIBEoQGMBc+XWtszXYKirdF6MtsP3Fx34jSWwKi8MiXFpLE0FxYeXUhIckjndwdnz8dYrkLZNsWKGpSH8PI8PjqieHc7bDbwTbZMsZSRq2RMhL3TldbbXSwQsPv67J2XwVGeGMoDTDT3encXCiLkRx42QPgmGonLIBCrVKg0eGWWk1ddUTzdVe8XXzLRdqRSi7DXWN9CBkhHNPrcZDeWShhrAuwYk9nV8cLHTSNEiFwu/gP8WdgTBMIqD7yZtUZEW0BTSXazjUCkdNBEAGnCysbg/qKjReH25Vtrq0aeCIyoPAzDoEaZZioqfK2phKckBpUwYoJF4x3uXh5FIwlGu++9eHxIDJ4AW9VwSGJeakxtkqjAZQkZrCKuTMIYVODJJGRcRAh7UqiIS6kAA0LGk0MIY1AJTx4VuIiE8eQQk9aKZk4LT1IQENR89sNf+5IJNtXAiEKLrK3u5BBCtsuQBDZI2LgSKSU4IEUIYfIIouxgQFEiBE8CIWGXkiJ2oECSgyeDFIVDgQTYcnkCXCVJEDAgCWxPnAGVMpoYCoZXFz/sSoCJ7H/9FnhCTFUUFQoMamzqCBQmQghclNKCEGwA2yDJZQgw5Qs8CYRsO1CxwFUTwkUpKQBTvsATI9lULiTsIgIwVRRgB1PSIVAo8MRMcgG9jcGzEzACOHnvVprYE1RN1WJWgCON03jJBApAyLYpV8KmbEfZpSJyqCCCPWFCEKiiJIKrIQABNmUKEUxRuYSwJ0KKDq7MUSKomHCgKsKmiopYnhCBJxFGPgxr2wtpQEKsfby/cGbkCTCuRFijtFEEaL/Mj4h2dQQ2tk3hwklteH6WSA4BaC6stUa53GkfbvSCkQsEGOgeH20NajH0x+dzm30QnhhhBwNbR1ujbjeNOOs3evXDtgGBKxHG2Kawdbxw1HhzBgoBWNg+PtoaNd0fns+dHYxBuGoCA+RbW/ODbp7ipNPotTcbgTIdDFFJeQISA7o4mh91m2kkZJ1xr33edoIQngA0uSA1/XxtJkUC0PajR097iAmg8oK12jkYpbA3O2pSdSlQ7sLMs9rq0oMstQ101xdPFlpdhfHqwc7DDkQbhEiA7qu3Xu8vzudZb+PO+49fQlTwRAg5ABxvH99aP14Y1Mga9bPTl09fbgAR7PIk25Te3p7ZvTz8xTsUX3j3k8+enKwNGK7uffrR51+CZFdJkVBQO7l19+R4rdWMyfjw7HTp3sN2WUBzPmtbuAxhA/F4cXtha75biyT9cbs+dzDbBkeZiZncUiAMF+7XhBCmdnL/x1dIrp6rYNLd5gYEopLVgzbgagUD1FpHR62ji7XYOTzYODtLnMDCyd2TvHM4biSQz89f9N9/vtknGkKAi/1bd588OTm+GMSkcXiwc+/9r71pgHC1BInhYmZ3uRUalwtb87XUoTOur56dLr3ceTnbA1kuxwFAo62t1tbCZTc5bzfmls4SAguPnt3/+Nn+4vZ8jU5vbu/O+x999LwDwtWINsT13eX9u8vra0etZurQGdZXD/aWlh6uzJ33i8DyZxfjl487oqRwAun2yfJMs9FoNDpZElCsNbutbr7z8movgHD1JrsEnd7iiyYS2Ojy7gJITE6BSMzobvcMk8LcH+VLUNWKttYu1i4WLhaaHjO7sjkOwMLy6ydbWdbPkhDi6HjxbvPeOzuHCDBsffKbv/L2TDeFCHZMVt7/h/j/XTWIrpbAQGv/1v66xoklCo1tNu98/mu//WWHaMoq2l3YOlq4uDhuMe4nDM/HfZi/9fpPemtxFBQpDErOHv8D/cNc9YmuhqIDzPzkpz/64NYICbAxJNnq4y8+f//lwTgDd7e+/V/f/vIPNSklFID1mWczC+kwS5IQQiBvjloLx8cXj//Qb/zGBkRTfU02oNNe/GokWQVcPDpi4lUCJDpwcqJAiBGefjRqIkKV4uXi5fFRTVmvNxz2AjAYJ8Yzt/ebh6cZCEAirb263dp5OtcAx+Xbn7z3yYtbKWUf/PgP/lN9swdyVUQwtUevb4XNwzGFWV5Qsr3z6Uc/+OLeGIRLzR/PzCw0FRq94bDdoTAfJozevV+rfzZDhXO/8+d//gcNgSuRAgxeffbuB+/en4HNXj8OLpoU3//h1YOrldV6IygdHX3ynf7iQJQUiRk9ebEWzuYotAUgInQXfvIz73/+g1/dSBCu1mQvSNprrxYtih3tzoNdNYcAuIRxAP3w5CWQioMf1F/VBKaawvmrW6+OR7HRz5IkOGQ5vVDrsv3sk4sMAw4BBIrdn3y1uvR0E1h8/af9zP1aauHEKGIpOiz93f1/3vSIdhWEgeXXr2d6GcD5Yb0/v3U0AoegVEE6+MHv+e9+CZFQROb41ZNb82nS6GdJCDaCIfDiJ+tjrOAAksCQur/zd/X3ctUh2pXEhNHd3/uX9dniAPcevHPW6B4/ebWQOlOULj900hnXe/04GM1vNe/0xy7HzJ988ixPCJC158ZxcLGVA31i5PjrjZXf//f1R+05mmoLTyokSLonF/MyAmhdzkOYAEzl62+vzWFHes+/mw9QTKh2/uykmZiSCpAk+dqzH4WrBAQoRhwMhsWfjL52j+23b41/8kFKmcFIAv7gP8p/849CVCYcYPftxf5pAuw8vdNeHYZma2390fKtFhgBB9/6+Z/9/iECU/TVs1rDlLZFyOZPvn70sE25NkCE7Pf/yb/nU0QFMvnuD///v/DhLmx88c3np+0sb13uf/XV6yMMijS3oJ+oFoF4cBaKSZkHtz6YOT0Fsi/vzQ5jtN3cfvRscZ4QhAa3fvOv6ef/NztDhKuDJhkSDLYXjqIlDKO1EZiqx1r33LiYarVBa/HV5dJZgPO9Ny/Tj2uAqXpcGGUQooMhEiHmR5e3bwPOGo2sNmjmCIkQoj57/fDscPfbR8MRgI0EGEQIOfX3/5b+fsYgV4IM8+++V8swPH348jQ7TER37dV73/7OV12Cgajxwz/rb+tbwdEltrf7kEjBSEiEzmD52SehTwUShJB74/P/6T8YIJcVAyd/4Jf/zHWLvW/+o/1vlzJHE7d/5c/4Uz9EOCAJagAWZ2/2MjCAzN0nT+YxPl+6s3TY7+bO+nFr/dXMbhMTrHj/r+qf5O/plz51NFUVk14yg4Wj4xgQwOBiBCCXcAVsHzPskPUd81ozzwdH27fyITg5/HTntCmikgnof+t57+LR/kkeFQyChdt3Tw7gwdXDzWGC06P1F3e7YCmI5fdeddt3gL29s81en3T+cnlmDUDCRyct7mxWJhvu/ii+7IPmvjbb2D0CTGOzvnFwNvr2/a4cgMHJyczsj7Mgir/5stG6u7xFVDBF4+7bF6fQv9qo9/ohH1ycPGpGjBTR+ifvfbzTQHIJKYR0+/WjQxCHnz69FBAgzL059dp7ayDKFbMP41HEICVh6/aj1h6I2R9cXT7qAmTjw83ZK936+JlAAn74p/zeR2kIUdW4FmUavea8jBA0a1k/MIEf/3RbEQTYSegPN/cMhMO5lT5AQKqSofHdjw6bt/bXl2uSimy/WL6gce/07LDXMUGDtSe31udxlENsfuPF/GbCeOlgdbU+zkiba7snd0fgqOD04u7FmyWEy8Mw/8Fb5wn9Gp++3xOSKVx9+PJBePf1+kAoZGn+8Yf1397AwgVf+7zdXX61fgyRokpPfhKdHJ6uHj486yXNhUdvfXv5SBaKwenJW9/+QzuIMmWOnq2PCFJ99uUBEAWGh+9vxPdeQCxwsCSx8k62BgRA5vX9LchyH+w9XgVkQJ2Dh8/P1m59tY0iSWDxl3/rw3VQdYSvgc44nRcgQ15LkqQ6KnL/p5e1FEm2sywxQEIaeuNk1G2AXDWQyU43lmbPLn50v5Ua4TTn8GufdxaP1+eBUF89eFN/68OtHEukRyNYef/T86O17aNBjWR8NttovvchAkT6bOHqFIuKL3+aLgF57+HecB5MUUNo73zR//aLNJpoWvsX+c7DUGCg/fDh0kFYe+92K8XCirWcp48fjI8XzoedkHcvTp587xt3tzAC8mc/XAeXE+DRe40AYvadFkQSAJnk8crRo8UaBmUbV/d6C+r1Bs9SCmMSmjPPjucg0v/Bg2cABjDA0uPz0cfPBJGAfvi7v51iV+lazBppt6Bo00moTvEY81ykKeU6Qjzaf29GB29uEZIgVcmAN3YePMzfenbZxQI4/XRpo0txUZ995+rR/ZlWgYlw9nRp1hTPxmcPZztP3loES/jR9sEpQXJZhtsf1jMazbjyvCFybBdIIlv9/tzdW+tNSJ3lg2czm+8PKV1/uPOg1319f30eI4iw82ZvTpSZ/uaf+Ps+SS2AsPzZItglFNDo0atgLB4+XU+TPCQGiCnn7/QH+wsEpGz16vFmy+28iWQQZvfWESQxZe5rZzViGkIBkpw9f9pe/wwjGe7+jl85Jli6HuX2hGCKq1gSHPNIerH/wV3OH/70Vi5itQoNJFez+f0jBUcN955eHXcpbWDj8dyHTxBYatx5Ptc6orTh7Oqgc/vjIhqtMZzDkktIge7+YpZADi+frgMEUdQgc+dx+PqlAMHuV8MvD10K8OzGbPLBKwBHhl8sZds1yk2++/fxl/anPEplhNZfF1BcmK27tRUccjx7OBBBFBpBZ6d+65jC2OxdHYzV6oKjgQDvvliCkHplrxmJIVDSRJj9Wv9R27KjQ23/vZ8uQzWEJ52hP84HUoloM5Gddj+JtRijFNMapFGAiZAurt/96/ib+N/fryVBsWoxxpCNd8KrFoRI/eXKIUQJB3BM1dFHV7c/RhgxfD7bgBREAEn0z56u7H+WU3RhoMMeMqVlLu/HcxKasHPakm2KG5MqaX/e/uoJsiK0nnG2klkYUBRkG1e91zPIFpz/6sYWpCCMREg2f+3n3397nSKjmctWG+QCZLaeeY6gyHkjA5Ji2CJ/s7p8iQzxKDkLBwEiDqAAx8uLASO/PDiGNElKGBPVf/gyfdrHyIHm/W+8BnGdzBrpgFJGE7J52gtKJSkqpq35ZiqJ4jre/4v7E/5Xf+DJCFF1WxA6agoZegdpikgoGcDnK9louYYFWT2ZBwWDwFhw9XJr+ViyUb7Q3WyXZcP6i3ECgtkGQFCJwgDJxtnw6NYARzt2dxcOr5JiNgI3kmYNmYKXCYBdBJQmPP9dv/WHKX60uL7UQTLIAUaPPMSicagBZRvCbHv7mGiTtuJ4DBAECLN+q9MmUIO9w0swZVsye198v0MUCPZ/4XUkuBq6FpKgVHKxJFKxihgBn/72qpIQbOMk0Dxav/VoWYIgAbr86V/f/+V72yEoVg0hMEU754P5Ri1JXMy2FA42s5OFIk7ioJM6wRQaILvD/No8BrHWPRyWI5v4aLFjnHK+mQ4AU7ZJg5eu0o8vZLBYXG7fKYEtoehAoaA3J4jBBCBATGHlx0+TvFhzbXFwSEnD/GXog2j04nx5GB/2uhc5MnGQJ22IBAPILN9dDYQYCQf1ApWFkc+/9s0zkAsu33q2ha1q+BrAiNJ9pRUhTMmd93vQcQghCSELdOcX1rb3m5KE7cDuz/3l/RkftBBVtyhuUTyIcoWT2eHlAgappn6wRWlLIRzULy6xiWrVhmNKC9NdznsQItRXuzWiKwBM79Pw8QUygouZ4VUIlCtTZpYApkwH2Hy+1x8JjNS6aIKKAUetzAhCP+agUAaYel8XEQtqmcEUygFOHq0Cgv5qowumAkv9jS+/WEkoEtdvPRmBVJGYdDIxd7/AiNBIJyYEyg3D88ODlxu9i5++OBIhSjK8/t/9v283CVKVCmWKKzpgKokbw4UtMIo1dYIpB2TON7fWMEjd2rhfBjKtGR+ABe3zQQ1RkUX/QX9xsQBo7TY2Oi4LlWMBuILhxmYHYYO7WzXKbuUUF5iKGx2PalTRsLvQsAQMhwmVYcXA0q/eyYqY2smTbRCVmWswryV9LAo7WcqEpnkWLFwEkvrm3OmZ1ndnFkNEEAKDH/5pP3kUEZPRICo0uN2f7yKDcjJblCvMcNydxwKaaSfBKgGMZrJDggTjejdHpiII7dXkYiHFEeaPk/M6IFelysNhn0Kj7nwOKpBRLU2Kpd2kYyxcVj8L3bxIFkuJQLxsJgAi2VSNam++/yZB4ABrT9ZAqoxrops0MMKi0ckBuZgwCFwKYQTggqKbV799+O6LVzVCVCTA3d/xC5EAmrhqj/uDWrGUxFQo0+/nTUCQKwmUP1hM2rjIsJZTRQOcHaa7XRBoLe8fBmTKlEsJV6PfLwbkzUiZqlGiNvA4o2InTiPgpJ+XKpxfS8ZgQW+cU/X6OzsZEjYcLV9wvcwHBaJw2OhSucoqlAEVibLD6st73ePX6wCSYfs7Pz0Gi4kXuAruhzxHGEmhIkNIYgoyklyGHKC7nTUAQWecp1gVIQUaK6x3wQgWmo16EC4lyihqVRL6HcA2xFTlIAzIdOfDsFMZkjEKdTfLkGktNPoECcadZoErMtC7szRGsoH5y3mwK9G10exmDQAj6uN5iMGVVGrKtCWZ9s/OfXJ7vkZAEZp3P/hgISJNXLX7IU8pmlIZEKyIDAhTrmHQCgkC6PfTlKpKITvwZY3io0G/bZnqVe4kS1KKqoIERQq1lYbDytIafYDsMLTKG12M+xhBv18rqKKhMbvRpuRgYQCmYuHJZmiOsk5B4XlvC2QqcSUqB0hjCHv3utv7AwARiPuf3EoR16LBmfOIDJKqE2Ixi4rnBwkgQ8jSWBUj+pss1AS2qA2ysSlXAFaBcDVC0g+UUCmL0KGWggy1rVG9HoTLykdpgkX/IBxDDC4ABqN+ViKkIFcBmd7qWd8YweCiwNecDd1WliEjYLPXAuGyREUVB6f4/Fv9H24jwIaFr26lXLtJkqYUjQSqopSiRpWMUkoaVBUw2TlHOTIW+SAbU75MySo5yZIqFIYhLQCL44X2imXK3soBIp29MAMyJZuDLKOoLSbw/ODcFG3ON8Fc+4b5rUZCoWCuvkDlmiijGDqPx092i2BoPZlJ8bVjlRC4Cg5Rpco25HkAhEHCrg4kvTBfQzai1kw6QbiUKFe4GiFxGZRfH+dHKXZkbfnwJdEuQ92FDIjQfxq2kIsZ8m6WFEO4OkYwPqsbI0i7KSBVoskmAxetRkA4Ch+cH4ErA+ECGZArAEN2Ou4udrFBMDjZFsHStRGsWMJU00GxWOW5CorGPGRUbUw3p7hyZ5QfwwQRklCifJn2Znpcw4jtV+OlthEukIIWW4fgCEv1WgqmdJonJdKYhOoU7dSHpqgQVZUnV+GoJYwMsDlMBFZFpnS0qaKRWek3F8AUNhe2IpgqC1xCuBpYFBW4GkGipFWeZAqNqNWyDnJ1QhZqaQmCKF+olKhMBgdKKqqEJTOcjcu5SWHxbn92tk+OsZBDuHu0B1mevFm9AIUSBkWHYrU0y7BwZQJCPykwJP0EsCsQk1wKDI7DEIEd6W3EHBQoP1qhVJRDdaJpbPoY2xKk84Oca9eWilQ9SCUqDkIAFs1uNqTaoU+slQiZapW4FDLVDMFlUKZM+yWvWgicL+7OH9zpB6JBiVh4NHgIcHCvswsyZdpSsUGtP6b6SaND8f64z/WxtZ71wALY2DgCmUplSkt2NYpmh76gpGLU5BCugi3HCTEI4Ypk98ljie58v+2qWLjj2AQE9BtpjqskcDXsUAqVMnD+Ds+2I8ESb/3o4fdXA4CNu6/WlUFt/PKecjAlZUI/TYWA+VGjDlY1BFmvYTDQ6fVBqkjlCDwpjpaHY4Iihod7JxCDK8JlmCpLIfQYoGIhScLkqLbFNRo66hYA863Gua0qFCYhpgCCzjDPKT+GUhBDVYJLECnT0Fk575zsRgzsPjtiZaXe75haXHvSOgOYe3q4RcVZP20Cgua8kzpVD50+xRuHY4hMaPQkMBzP9PoYEekvre5SzRiYlKHvJiWTYeOamnCjYq6IcdbNhSPML4znMNW2AEswHNdSXI5QKYGr4lKSQComBe68v/ULNQVC1MUPv954s7RX72j0aP+RD4H2g8+TFsTgUjKdTjoQRY+abGYIV8UhFBjGq0OQKop2KQGeIAXDyW49IBzh4GwIuKJoJl5gElJsbMjOewHJvjY0YRM5HKetlMKttfFhx6pSLc0oedhvirIjoRTRVcFUWebg08bau6MUm7j4bCGVDUrDGBju7fS6gEz5jWGthYzR4Kh5eI5MVdNBswBob7SZ6EhgokxzudvAyCGy8bAWkSuDGCasaGpTsnG2WcCEC1dDimGCBBiBURlGZnyeX6RWhKO15LBuhCuRyedjp0BQbwTAKkOUKaiKy4hSOTaMd3b2lr/TRBTuv/tqt5XH8coq0P/o6dJ8E2II5RiG590FJNsxLh4drCJckQ2D7aMIilDfq4NdkXApYXlipMD2u51V7BTD06f7EB0qEy4lcFVsEWvqIAnD8OFZIFZPuFi1ozxRproFq+l2TtHtbno2RKaKaUtDwGK8qnmQKVcuVfUyFCnbxCS5s9Nr3l7Yasqo2xoNBinA4dzcXlLbAmTKNvRWuwt5xIBmFmbPsKhq9/hIIMHcy00wlYsyRGBC5QC37rb7gKM4fHB4DBZVMBNvE1tqUyho3zkNVNsFpYWvAVGmVY4w47O4mIMIMS6uHc6GaFdjPvYgSNRXultEh3KEwahA4CrYBmwkqSwI0Hj+6b2Lt/ePmzKlh1crs3fqt45SiCGUZaC+WlsYAAj21043CFQsAgy2twSI/sqbObArEeVK2BMhhRCPTtYzkJNUmw8aNWRTuShbuEqQrhWxIpw/XUoIoTpAxCWqPGHIpSofntZOcoERJycHO1hUsdaiTdH60mCATNkypWUmWFQqJZ3ZpbPh6GR/PXV9s9HPskb9kLzZBIgEKk/mMl3mWILdhcbs2MgVFN26PBJEwuzSaYOJjhMjbC7eTefAKJI8fbAGKFTHpYSpqgxHR6FfgAhL9/YSTFWFFQnVEyZVAOSqidIuz0BvLz/pCiM42d94QKhI4HyNVXCEzZ1WjQpFmQIjXInt6pkYdf74m8nM/a/Szs7z1d54WB/WLraPaiCCqdTInbP6xWIsUG1m5KU60a7AMFo4rsmGg8d3DpFcmXARARKhelIIsP/1egcCqXxw7+WIKpcXwa5CtMkXmwAyjJ8/ft4zdlUK04kozGPGxMolKjWMD7LuDCqyfeLNPRPtssDkl5ojxJRsqb4V8cRU05SUVAlySGCrm/fD6tfqWWwqppGiwqaKMqcb2/sARluvjp5vULFMc3d3Cyw4/e3nCVUtBajmkFRLEEz+7FGnY0Ia4fm92gDhqpSfp0lGFWXyV4M5MIWrv/j5KoiqKyoBCxCuglIlYKlqotoGehud1npuRdx8dJQ/PCV1KMuG5i49QmR41aiBkgrksnAVbJdnlyMH4P63tw7ho1/NjpqtQS0VKJoQqKYwsy+PnyGwY/hs5ssrLLkcKdB6tt/ECF7+0nNQFUQ5DBQaIFdBxBDg0R/WKiEohfpHX1uPRIfqRLvAgmYtaVi4AoEH7zavIBjB3u/5cSAyASkJE5rHhOJG1SjXBcLFQGZ2qXU/Ali8+2jvyywo2qVEgPWtJEGRs0+bXcqXKT8lVIMyikplKJj5mdtHjY0AZxsR+hQKyxIYcHmFBw+7i9vCEjxa9OlKQopdQhi2PnjdJCh674svZoWrQCSUsPLW6LCHhHEJFbETGD252z8wVk548H66CFhUNY0kBViMWo1DIsYlhAgZ3F1O2tiOMdn5xc9fJlRbYOVkxQRY5Ukor8ViprqySmAVlFY0jY2tt7pGlph5cvD+uZXbLqZIkm6vRSCFl1+s5cRQhjCoDKXKLHA5MoQIRqXAJYDu/ovP+vXEYOeB4rYVowCbQpey5d7L7G/mgxZJlB3rf/qf/LN71OzgYpGYsf2s3Ser8fB5d0AkVCCwamTgCEasH58vEQWBMiXsANz+Rm2OkKQ5Pvjio/Wc1BkVCjDU8mAEDpGt4+GGU2NKC2zdWp8HLEdOf+2dDpKrIjA4jyWITkDRuIgkcMwjmKIBELiYwDgaLEBOwAIVA8Yb+cx+GoOEupet2ukVGRIC7BAYvNddAkjuHbRyYZWSIaQKpXKcAColU5gHQIZIH4JEUdmD3fuXnRWKLj/LTg+TRoeidjDFhXAJLDl7+r/6U98jiYB4/Bt/+s+egUCAUYDjfdUzaoy/vDqhYoEDWojnYFH01u3z53N9U66xARb2X7cODkEprL5zp7kNmAoFxkA3pczF/fOd/phybcPg9ZN4ACGN0VfffX8uBVFNIdvEAQ0sIM3dN0RbBhQFUBukYINqtQiWwAWSDWmeUFR5mmUYqRhG2WGvu7AfEyJW9/XHs++fAxIChwC7HzIkSdn7bnqBFCgusFEt7YNVUEvpBAu5iMCGZpqBAJox6WMQLsLae6+2CAko8tXb2enh+bAx7JhKBbgEyDz/yV/LXx3GErDx9/f//fEcSFEQcGD7G/kZfdLx6dUqYJUlMNDd9QpBCBV80nn5sE01j+6+/ng4dqYUzu/cezCIpM4qUqCgOwiABYLdu42lAyr/av/REBJFsfFrH80SRXVtY7jcTjahoLWYnQ0zSjsBCLu3F8BAc/n1MgRKOxTsLqyCChbXwsFqQtmCs9nBs+1UNmLhcq01fHPasW0KLz5ePugF0vDwaXYcsShpbLO1PjgFENA90VLfgZI2wEytkRTT+prmVodgCmUG6zWIQQBbuzOLozSNDo1Gp9Pv9/udTr8xHndsI+EShrn1/9Z/760jAkLwR/3Sz/5RL+corZOf/vJBQo3GO+8cC2HKtsHM391qt0EGBLXFu0+8slE/bzdcojlqtdYut7PNDSCFwzcPxts5YCqUg8Fw+YznYFGkdvzq1cHV5ngcimm0dbF9K21vAKmo3/vm81WBXJ3i2+tb46zYxSttLoUyiq+9+5NFQKL55MMf3n6QlVF0/bI1VyDi8nq38fC0ovP3ebJ4RCLZaeuTt7KnOy8pOXry9mATw8EP6uvEGFyq6Nb6cV4HgdHgdnfplEqXH3UaABLx0cwg29uoU1SGNO/35jt5KiCOnn11PD+qRSf9Tr/R6HQajfFwWD8/NxBdwig2+Paf9Lt/HwGErM3f/qXf//lcqeXf/PX/MQEap/cedEGuoOjFk20aRhS30vd+Yb59drp53m73g4nN+UHr6PhyJt/MggUM732x2iVGnFSCDDBqrb9ubIIjCKzBWz9q3Dk7bLcbAWLzqHWxfnfhPEkyUtF//x/vozoRmyrKqh0tL462R5tfJiEITG372VfdjfZ4Za/Xhzg6mWnNH+1/58UWREDNZ7/80c5qe+NqtWGZ1vrl+mJz6WEnCAy14w/uDrL5NGm0sxISnb3Z2qP1pjCkg8XF3S1mD4eZ88HxZbLUAw3vPY3rwqLMfP/J9lq38Xw1wxSq+/rucjrsnZ++aQO1o+W7R6O0/qmxBdA9vv9qPvXZg6WzRpH2UvNVmiehAKWp0rw5GOV5Lc/zPK3ltVqzFhsrV3fmAsIFgGHh49/6i3lrAXBQZOXptx6/PKiPg/LW8Yvv/eQDYth7Z+e4C1iUKWtre3+xNd+fPQOXAtKt5e2jrVE3V2IT5dDv9OqbFK0/fHCVnlxCiBbly9bi+vJlK0/bD/c6WJRe291dbDVzhWDFmCSN+uYhIMLpnadfno0BmSoKq3X58auLpoeJM0u20/mvfmFt52Djm790VTe17Z9+49Hio91WTcVg9//ZPgjnV5/utROZy9uvTi6ycQh9RzDe+uFXi9217vjwdIwKkOD0886jxV2AkCg++WB563xu2HF+sdVqZwBPv9lbIypxMRlGL95bHGmYhZAo2iKM9u9/sj0ctp/+UXPAaP32V9t5vRGCEWB564P7u0fp+eOnVz0UYPXTePs4KnEEGySA5qDbHAyag8FgMN+aHyWbS1+eboYybMUkvvd7/8yfU4EhOtt8/mDprBNbj17cXRwBG08fzElEB8oUznf3n820+m3blnAR2TB4NLO7fTGoEazorDHOssRF6nt3rjbmc6U4oWK5+ezJ/nZToZM4hCgXkc3oyceLR6Oagknd7zWyYAvYeHDnwcucGANVFY6Xi5fdXgcgFQhBvrV72Dj8by/PC7q7X//di80uZau2dn/7qLFysJkY7r6brhogpXTtaPFyi/qDc6KLAIxPHza6i+tSTAX5wvZFq5srdHoAs3fu9ZcvwaKkTLr1aLERKBSl862Lo0Hr8Okm0Fo/aiamUJSOg/n5VmjPDsHQ2VjZeHZfESwZG4QEAoEQtcH22uLM+a8+6Bm5AFBg6+Nv/L7P7m5T+vxgtZ3FwfGjEQyXns82ZwAsyjatt3brh30KRbkCkGLabA5qkTJ9dnDwcDVeLuYAMpUqiN13j8/qplCUKyDGtNkdNEWZvZWHL+vzl1tMYMHa0QBCQfkXcHutCdSObr0GQiDGEoW11sJ4WA+G5VuZsSjfHl2E8zvnqAgoipUfzHrt1bYoni9etpqygeT04dWdbk5U4hIy1AYX81S11jrioAeM1mKfTJEKA3E04rwPELPG009bP7oEC2RsjDHFFSVcO3n2Wfj0zl5HlDBRSTx+8Vs/88llKWNAAupvdr4MAyImUKYIsPXWdgYhMqEqY3iweTB7dt5NURSZqVSY7uWTEWAxgWV4c3Xv4VUyIMYou0oG13vD2OkkuCgm2JIGvD87NBpf/U/++G7HIqZpmsbCPE/T0Va8vOgCbB500tAIYBtsY0KabK7MjV0OhacrD/fGeXcw3wWQgLB5djB72thaXwBMhVm/n2yNQ4JRcCnHWlLnGKDTo9ltJxirwMaA5seNdI1Cw9mbpY1HT3YX0hAliaLCxjZGSCi++9X484dYLgJSgIWv3nr39fL68cWI0tnmwcrezr3tu10IEpUf5UnIgqxCQNVwknUaw2G7vrlaT+Yvti8BTLXVyodJGEtSVFRUJcbBIck642H7fPOgx9riMRDAVNsQDjZW2mmKMbaNCdhOwxdvzg29p/+dWjOv1fI8zfM8T9O81uw2a3jt1mKKzM7jRlNg2xgDNj5bOT1vUgagqM7SO483FZvNWrcW7ZB06qvD9vnhqnKIcghluKC+cZZ2hcGmDBgfLuwWtFeGiSNgXACmMFitC2Sw1Fj59PH8J692ox0pV0I4gMFB6cKv1L7cOw8RF0OSA9r/+MNPXu+vH+XCzvrnGw93vvzinR1QSghUrJpX5jpO0yiEBKQgSSCBA86yJOt3OuNhr95upBFAEYdQrWbjwQF5msaoKMWYRsDBBQ62QxJCknXGw/Zmr58DkoyZkPrGm40YhYQkhCSwfDbXBxwaADGmiiXzNI9Zf2uxK4C9L+c65AJJIIGIXplruEalMu6dbTx8efXyNE9ThX7ifH7rYnsewFRooPfFt3oiAsQy5FDbujsq6J0+/bLRxaK4ECD68/fXmxAAhHtXc1q8m6b4/LyfWDGt1bqDGigKbEkOMb21e36vQ7mSDXF7Zvd4e3trvpY6afTON1dXN07P+mCLSg2ElV987ohtDAYMxgIDAklK02ZzMJo/2hLFTZUNbu9962WMgWBj2xhAFJUgSop5tztqXRxRaMBMoPF4c2mVCTTFQ0aF/Q6FhrmX5x2quNqjmjHKvdOrO893HsY04hDSSNEoO6mgsPPl4x5VdELJxtydex0wlbpPoSl0HvuMe/lWpH7WG/YDxDTmzVprq1kzwkJyEln7uPHl2CoDorANaDS/NajRH9d74wAgyYkrApwcfPeBitgKgA0YU1wQ0xgpU1GEEKqFCfWVL2chBAfbDg4FkgxISDFKlBllEjOlNIXutBtZIEZKm+t1dBJ88eFJssfGj6/m8q1alEOSZP2kn7aOdpdvLUSwBBzt95eGFnIpFVA8zVOSLGFSBhsDgcICiphqKmDEZLRxMLaZYDMppYhRCZUTggtUoBIqISDYBYoqQ2XEKFfDijGlMMsCRaWInbg6AlcpEiZGgAuEIX3x7lbG6uOluT5FQ5L1x+O+89HF2uLidteICINFz/WwTPlRIgTKVZQd7ImYpFHC2A5cJ6MiwSZ4UhhTrsuxKXSBS4SyRFGbMl1GoasAmEqNQVTZSCVcgSmtSlzEFJVCAne/Mbga8vxnuTui7NA5bB9urDxsfvjVbo4FtGrhECoSggqQMRMoPBlEMICYlCrwBIlgIzFpXeASVS9VOlCuXUa5tqm2AcUSxjbXYDkTLFw7fvKsDyvvPzyCiBFgU9g739x4ONzdf7VQjEEMDVNNASpiwEy4JoMxZnJrgowx/4Wiq1WuJyKGhMGLX0muYO/76SJgSgpM8avv9j68XcsDggiBqpcz4eb664KbqBePZk4MvP/0QjRDZnABIIjCSf/e1fruYo4FCah606MiSVv3v91pQzidy4AsUtoUGpQmrC7p1laBhwGwpnNMd/9kG+D8IBkRyajYRmnM+kvZ8jzgekiZ1hUBLn4UzwmR9kp3gHBlgC2SVS5qgsacjkBh+gYMl/ezhCzGTr02H6i2wR03o2A4m64xrStDvpgDotBUXYbUxpHeVW2LSJi+AdJBbnCEfD7puWpAOlIPwdnsoIvM9G6kUNBaHO4RYvXienoA7u/NDYSZ3nUW6CLD/LrqG3YkVCYCHK17E8Y7jRYoTOdYhN44P0qJVnf3qLa04hTsCiQyWN7NMjj8cXqBmNYpujqsreUEKd5+1X5nLlhCZRnD4NnWOdD/dO6ohsx0romB3mmc6RrErZ9mTx9sApJwgTAkhstfGRzA+PvtE6TA9G/9ge62hK3uq+VR78FGJ3EQIEwB+cXlcn4OnU8fNrs4Tv/I9U/94kIKRrz4zvzZvS/aEACDKXz0+idxFrLfedptCsx0b7TV/M7f0M9dYiPB2Xd//OOd1XGWJcFWTNPBYHE+DYa5L+q1JsQw/YNk3/31X/7lLsEQlbUPD3buPDzYHI4zp/lga+FkdD4bYOkPbewOhALTwIrBo9s/97//4ZEgWBGoX50enA/HiSPGZJA8fDgbjoA08XQQAun2z/36ry8AtkMak36WJcGGfuO8beD9N1/jOJdjwjSxYkJ+/w//1mfH2/MCi0p7q2d3knweUJp4ugiB8uO7P/nO2y/mqeLm0tW9w7WjHCkEppEVE0hf/+iz+zMLrUG3ludRDknWaYzrB7201h0ByHg6CQHKu/MLM8/2ly/XLkZdud+rr67MrR568agZhciYZhayAUYz64sLR61uLYZk3KvP1ZojCiWbaWgJ7BjTGKMksO2km0cklASmpYWwqbbFNLYUwcHFFAXBwUxviwgEXCAigJg2F5hp9+m5/+oyAVZQOCAMOwAAkNoAnQEq9AH0AT51OphJJKOioiQT2TiQDolN336PKjnn+Z+UDP+/H+c7Ojtvrv73+M3vP2H++f3H/Afrh7xOu/qHzJvOP3D/0f5z8ofmP/of2S9z36j9gD9gfUz/rv3A9xv9p/43qA/p3+d/bL3Zv9J+5nuP/rv+z9gD+j/8H/3+0z/zPYH/uv/I/83/d+AP+Wf4r/1+zX/zv3E/53yPf1f/i/uZ/0PkL/aP//f8n/ufAB/4vUA/63//9zr+Afvv7b/UT+o/iN7xu9r7j/fv2l9CfyD6H+8fl3/fecPGt+bfhb0N6SfsT5G/JfUL9jb0zsn/E9Av3a+xd/F/v/4v1X/RP7z7AP63f9b03/1P7O+Xb9Z/1/7VfAH/J/6x/5P8f/of27+lf+m/9X+p/OH2ifo/+e/aT4Bv57/cfTE///te/b//8+5j+wn/5Gf275MKl3zViM3B+c2wBddu+TCpd84cio1jkVF8VNGBRgjcimBtWU4Yg8loVLvnDkVGscio1Iz/uwrERQQxUemYc+99COvsHJaFS75w5FRrHIqNSMm25nBcV2coOjsBqj7d16ZPt4Ir52WVGscio1jkVGoVS4PRjPf2hAGNPferLQz/VbyWhUu+cORUaxx5kFUYui/BkHmaysCEanYq9LGvOyyo1jkVGsciouuKPFtqpuyytLdx845nVvmHmU8FQxUaxyKjWORUaw2qi2TLmyX3kIqSRU6Wr5gW0nOsqNY5FRrHIqLrR+0VWIr1275obvAyOwzV+TCpd84ciouvsY0KPXktCpi+7tOkBuABqbVf2QeS0Kl3zhyJIoN1iLUvTbyWhfuvQTuoKB/Ujf2QeS0Kl3zg8A4O4yy/HnZZrbAuDZ9oinp1fkwqXfOHIqLsdXOtps7Akw5FXzO39nQ228qNY5FRrHIqNSky8nBlswPCpd9ACDHVlkv/V2CxCKjWORUaxyKc+sZgfUjML/zhyKuTlFy8Bg++xMzWORUaxyKjWHgt80VPn+tbqKl5HsXyLBuBVSA39kHktCpd81RNSRQfc52I7d1FS30h7+YxZSqDyWhUu+cORUaio+nHbvBAK6x3zVE0DaJrwAjMio1jkVGscio1iCI5V5piczdCrpfwoNI9GL4kmFLm8loVLvnDkVGscedRRilDfS9WZ04QBY2G1ZX680Ca+scio1jkVGscio1jamuwLqvVJMrz8qu+WKwJ9HtX5MKl3zhyKjWORMEZEkm4kLSJVW1eFnBWKFS75w5FRrHIqNY5FRdDB4uD+AvdtQoiBfpS75w5FRrHIqNY5FRrC9ToUxjbJ3zijfwPYPJyVdpIx9XuqkBYwBxQvmvWwEH8ekt9QKhLy37pYNE5FRrHIqNYczqr4TfOySHTvGIWQysM7nFuFRvkESSB+hSQrCykZp385v/bY2KJsEMM7o7xZ+uHsxgt6OLsI7RYciHf9eCBKLQFN1Daujc9fYeoyFbNGaZTiOe5XlV+ajNCcLE61v/ZYu5oGLQSiqhGMSPtgJ4IbZS3hL1v460rNpVkJm8Z8NjqjH4UO7VWuu9OQ37B6n4xrMCSX7XoHi3yX5QbIOI9pcI9QmjmuSZ/1GyD4LUnPo6+uOir3t0caYXGil+De/Rs3K5MmbW5IsigwGaVR+nG7IfXRVzovGVo36s7r9Eg+arBA0B4MuI0GBn8ZZrasrpFmjAIpYRQFeXBZ1+8mmFC0hsa6+FzgaL7WQmWAwaVRLgKMCqG0CtjUEzfKN++RerrlRUdtExMMjFJtA5R3MNrsJll01QNiqlv+b6ISK24KnQeYEwWhnUu4/XlUk2CYewilYT9FGOJ/WjW0K7hAulZh9jps79mJMl+6IRuh1yY95XG1ufYIsewKoi3mhe27IS2mGh1PH902b3derRKEnmlnUDcU/WhPNbma6kY5RpIwt5bEJh4WgUWbPfRy4s5KQ1Tx4wOONVoZ84k6droCZ7M5yv3Sfm8M7z4P3Aq7aF1BHtNVJeCbu138yeRNUJtCG2CFm5DbpMjCUgfaTUHz/kWv3XDBkyRTjDVkUloL+0T/MjwZO+RHJ0ctgWXBRqws3vSNdFH9m5r+ydPsj+F804s0/KaUBhSKgzUKlNytTiVgANEgSpQCVX7g4nq3LfslxO5BhKczIueanBB0Ga1srifB9w8EKWx8KEOEx5oh8V65vXPWOyiGkVt72MvbJIO9GusWkw1O1oDyHXWSmQlu9DfqExzkSF8GaNUEtFqAyudKhxF1pkPeUNH9r/DdBASFjIgFZwXi8oRTh4PxoDf1af5AMBEWHyjPd3KoPM8EBoifAHACmoVLvnDkVGscio1jkU9e1ZPlzhyKjWORIAA/uwdB3WZzeb6iXV6XaoEw4zC4ChE1O47D22lCkU4qEfwcHUMSybVO5sFLMXiooeenmDL6ik9/2g19WmwkISxs+BJs4q2m5hQAPoVYY/9LRc8AiAo6Hldd7usqWDJK7TZtDyY3ZF9F1PJhzN9Hke7ysbJG9GJ8+ctrmTl93cGoKUeVYO1fDncI2O1c/TZeqJzn//MUgOIGpetyw8mpcMv4UGsSJLWZhv0Yyl2dUpupTivQaPh8dFgOcq82OxRnF9uJ/55lDj0EE1bHY5BFA6yP5INMUNaiSPagBbDrdJ6P/JpMsiGawVlyl1Z7iusAAPDDIsv8goMt7vCEfxPQQ6vI6aL657UJn7UsGqrei8tXAMhsRQOXWzeHlOIYA/Fps2LzMojjNnezgy0IOOoU7Yfgi380K4PjDhequIoAUV2o1HNBxDRHRvvAVsZIC5U32AeGbZKBz4S8bl+/ULZxprYo0kNBQalEq/OiuEZwaYiE5VFugIQKdakwvcL3BAHP+eM1VQbz3TK4mrl+jeKKxJLFOrGrYqMBu/t4Z6k01OmoBAdGw20nE/dcWc1yEsbLG4/ngG5R1ntuSRgugm69F6VMKEtHMsVy073EMaZ4eQha7dfp1fo0GqW0S+eZnAyB4HIgopqCVAAM02vb+NElFKzWTmPcmwO1crcPvkfoxMu4zAbLWW1rWikBUIPLZVSRQaa0dY/QO2K1zjAiut6ztjdrTmRDCpH2POKzVGLgRLLXaADzN155cSYUm5+Cp8rGfL21kALS3Oe+tyKCLabSce6ugWx9MMq/2hSAiDLM1K50uaRwhxUoMyuAnqwBKCqhyfBICggHUEsAO0ZO12i9TVS04pIwq2biXzXaDWNsXDG6q6EhKf6rJbdjhYdpu3qGbdVjVT30wtD2eQKDefIH4bumY7ssECvpyFCOtf38WjtYoFa+Iob+3RAAfp5NclmHKK/Xf+Qr6vmazHcFtf59LoHrTNdjSCWLngoGg3CfbAXlD7s5IH10KU4GYUWJqfDALF0PyMuXtthGoqzDK5+buunZ+eHX2if01zfliF6jgA9p/uerWk5mf8SJh2W//tVSdzHk6XfD+tDAeMVSIYUCUG8HPU+JQFiUc1PtoNKrZ1eVHJZYfTvrQka97THO47l4Q1JuPtBLmAW2rltLVGwfiEmnm9AfIe/Ro+4aNUu+EVb8TdQHcLWW9Un3eqdPBJ/zLgFxnBhz6/ACjOACdhYIehIFjbq2hJir2x+YOO5AXlWNFsby/knQ8ydmdzep64fAC3JtAKesWS/z1VZIzwp1DBYsHUQQtdht2nfy2Pn7rTw/iJJ7awkYeOo47WW9VMkqvOcey/cFr3ywRNK4nfsscRtieovqePzugmNvcCVr8RnH3vTcwzwX3vsFKfrnIXHv08URTVNW+KBVbc/bQqnVn8dX6bULRm55ORtYZT66egWiaGCPb6XYsKZJF9jAptkNRwQ6KagPLMuyfEMrJ3fhxF5yzZZ/Y43aZjb8d87ecDHnbGwtQugE/5Bs8ngtKcSNQInGIzus/XJjU5a6rlJfTCJ43NedlgtSXz1m0LWuSHzR+mtncd2NYknyoi745o9Uz0YNsR4T0IN8xOzzbNOvn8xAnOo0jYIjSVvIasnd5lINgThDSGWXoP1DpeEDKVyNjQpa+bd3/zarXRw7LWQtfRyoPQZ9Hx5oo+V57vn44keoFgqPajqzaWKgQd7bMY/D6IZSfB1/gN913XoH+h5JLn4zurv8R/qqrOA7GTq55PAuA3/RkQbOMUhs3TEElHtSGrJ5uKAFvW8nR0hgmQE/TebwJXMP5Av4ew8myn1aLblagCCfLdk4rbIDUecAksBc13KZc/bSAJwtMpbMzLdfnMcLOlDEKFhwi1Br3TScRMwt7hOdtFunfkl8ArqFzNfSAB+xQxOpIVmFxB/71Hm5q3yvhRR8Prxkv6mWqKMbxPYnY5y5cxftFEHJ1/2UiufL+6YhhXPCXZu+PekY6yR0m3n6qmVfdwQXZuWI3SsF624sYhW9fEjXGpywzoF0oMlVqotSxbTp8wx1IIImcE9V8itV/k9Ga0T5Uw8UyOQbXQZu1KrxnyB3926S+SCMW1XHHtx/BSspHrImdLK1R1x9Y5OAa7OcQBSwEvSsWlAWZb45+HXXqhakh4UZUs8fXx/3aoDvEZkzT13s9NqhSDbAfzm4S1WjewZxepsPg9MMYidgJonVgohkGYxqHSfMWMBRqzP7ktWH/mW2xQXctbe16CrFmr7j7pl6xo+mubX/oXUl+hsVd5ZZc2hjGZonPQc6jHZYfNDulwyZJkqnQIEXcxRLMTryrk9xu/Qu/eN5+cuIGVBd0jIWkzJAVJqbS3BxKJHu456EmmyO2iRpwdbWi8u7iAcf2Pm195d3t6ny5+ive9BJo8t6/Jp6/7ixKEIOsTO5QrS3GwK/zAukxv96ib7Oxmk+97Q64139GZdA526x0Rs4SErYsybIgD9t2HwZhjss4FRbmcnUWbUBxfDWERBeSkHTDu3cln1L/Qf7O4Lj5ghGhaIg8IQSSur4SPv1BpF4XcAM+7HZknve8q6lkTVw+ITzaIxGmTaVsoOkMWJH358AGPnBDyCN1gPjc5XzB6ARG4M9HIq5AFZ9CGXSFehZoXyCIlqXwUq8vPX9HOlz3CJdWW7W6uN7yvRxHGtwxoTG3RKFGp76e5eEJdz9d30ZSokBlV78o2JMz/L+CIh//SqLWy6kfgn0SpJ394lGVOBS/NfhxsGTkl5qN5jzQbeKCmiyjmzvtdFH6Vnf9jUnk2tv/ds+bUfk2QYDBmPfkcE0rPQxnnI+SjDKJkns87gHJ2quQNyfSvhT2jfW62tSC95JkT/1jmZ81um0wu2fyIX6HAB/js0RFaErGXAMbHC1MLH906lNx/YUnDhrKIPY+Gdz3QCMvzge0ZCXdNIAF3Q5h3SDv12aP5KUx/6tOzUlBbpL77FqVjd6ZtFG7RFk24m7onjyQ6KCKOGnwugvtgA2gBtQuqnwQ+6GDBXH5utTrmhmSo+yoQhO8Z++x5sgG79PfvKF26bqVqcETkavT1cLEGIHxgL08KkPQuWPhaAm+cW5QA+8nwvrTYI+Eq+d1axwn25SuQcDUARnAjyjc3dIpbpkjHxsVYHU5buVGwzmWCEsT64afLW08LpybhccOdZmbRRi+dSnqfYCT0vTvH2Ei2QTathr27clup0tTUHLv1X3Md3biEcAyzSs8EJaRIPwxSz1vhUtUDQZ3K4gg46Pf8jqT7tG4tt39LqlQvWx20EpEN56/obENd5G20g2p42wAxt8QT/4wED+6AZc80tw/L0JOqntrwOApPPX/FpPI4J7K1kXkptDTUTfKfz84PlKJsKvAYuDU0LqhuOC7kqj+fVluzBDQ3RyV8cGcGs0vZjnoA0HmN8omweotjYJi9ihNTf4Ohl89dQ8JnvMmJTHSABehzbdgh3DP76W1bq0eSOK8sHtv01v0gMSdBLVMBtdjPyfEDmCP8t5w5GfGex1pqWL/a2c06O3JhtKLeWFZ7Kto0f+UcVfqIHATL3xXHKEWDPRUySMRSVXsoDoG1O5GVASDzOMuxvaHyXMUpjuluTjM5JTxbFYCZksKbgMW1jEu0Xi15GfCRwSGNV51aaJ83HAinUZ+To/gWxSiTeFlK1TblS37606eOH38MkR/LWAT8yAChiNH1YeqWCNL79tloZNMbH8xFyfCki9O94xVUZMgIwmHXdHrKZIBfXm2gIwIhmZ3rNSpNadBmAjF2HKUCD1QOiuv2jXoXjG7dnBMaAAcd7X2snx8anqFfDKsevK1rofbK4g7Mk+Csb9W5bbkbjE+WA9nbJERxhlPC+TSt+sDH779Ok2NUrz6g25kwTeSjnLYMOWhL2MDapU7KzBYf6Bbk4AAQrW/hYYQw2+GmIspxqTfDtnpKNmdc/ln9BE3noK6jKFGNe5H/W5r4hH+l6liDRotvxgzpw1TQTZ+UKsZZZA7FyZMO87A0KjnHDgA0dFUoVnNRg+Ra2m1j2vIW5MAZ0FyylCr4WgxcLAy0lnAgd4JIEq4wJHg6lQbBoS7QsSREPpjHuiesgFSb4mXw5XkJhXjK9/ETtsexm3g+MA89MKmuV4uONWj5VdaltDbSs16sGFxe0ej2uVe6QwE9hZArRjADa385csbOFxdfpIw6P8V2lTVJC0s1+Qqyi1dyKlINtCGNCM0BbD3QiBl+NQUFSYDIH7fEj+jVEdEmN4n4HDLRpArmMm24uvERR+2s8Y19Yxl8Q9JvHV++1/j36lft8bBgGjV12fmUoxbW3ziUjT6sQ0LcbsfgBJZ5nz4lHf2P3AQQsS2empwXLWrniXE8JvoVaBQSB8wnNnUykckpk0vQX4RJC9QMAySk/1nNB5gHenTcLzYyyDlU32ZEMk6AKgBXwyvP1NOUb5lfVSYUn2XhJsa90aTJwo7rv3WlMNBIQRmG77mEElKjAgeAAh2Pj/FZMJAneltyLr3em3KWsF+MOnKKggVt5zp4P0FNfh0vkOuUgjsbpUpJEPW6fpYOsPQSLevU3YOf2b2oORdtmeSI1/HcnCGQuvNZtlU/ySph08T8iGeDMxr8rnltvVroOunNl8Tz+G+ZLMnK/TvkLH92oQ66WrtyWlQbAAMaMY2n1Mg2Cy8k1GrY2ncyKHhSMinPbZbykCKircuB6rIj1ooZScBNi7LwCNRnSzVmu3MtWUaR8FugMsNTdOP+/BPfWKfCjgG0oYUDVOSKbIrNoa2HKM/3LBDdY1JedBvhXYYxbEdfbDMmgrLXQcmIRQnwdninVha8vDUNW+Bhysp35Iv8vzXRshQEFU2YCqT+rMfDoYJwJOSAABTigcL8vw/SlurT5O7ct3F3M9UJkskffmxnBJ8Cvu/NEBR8iww6Ubz5aquEMV3R/2vcO/ILr8Op4qYOCg4cBHcVPH8klGt3edUdgb4UlBvMGpahNMIu89YWeJhQRUEhvffFAuKinuo1hVWvXGCWcOVdnDQb1FlDmOccgNin4VDKNQ/HKpg659JwpQA5JklPsWqmj6KtqXurQWnQPF8ue//XOnzX0DF2oDzhE/SGx54NgJkiAN32Pk+e+jpAPmdYxrxbdN9fPBYwGKiBmM21DRGrJ2ingnin3W/irgn81bhatsohmfymuznMe6cmi/LE8WgQvgbbh/c9FFroankVtwXzmhc+zx7F4Xoi6B+SLAEM/ufu15MiKg4KeZctlOAx/b8R6qEgSg9vpv3AD/wYefzXCqv97rA9YKTN64LGFnej+6Zt2l2ngDVL+6CHN5cvOao5CblOs2D+pKfcuuYHYp8SAqmANq1CxQC9/fbPJFbHPkyzItcSpJnNLr6TSNsexmsoggXeDOkUrjjjgr4H1i2Qwggl62bl6cvpRV58UvxnURZLjhD6rPDVHY1bMWHHlD5BgJfqQTZpMfOfB8qP+SO6161rUHBKm5vTPEvn6PUOSrSpLKYj2J6XmVexaUM8cUelpLDu5EM8mIxkl4HewouAWNgAVpha/GcwV0tabSqNjwnLwXdYNNj6hmgj4vBNUkj1YDrNMpERw/fPj3n34EGx4UobrCoNw75L3f+VzWmcFO1GWA0VZ6fqTUgpfVwJrJbQ2/WL9LI2IfhPPHDUTSSAcg6m/cdoFoTDCxpnpBlEgWnBU4L2GQhFvXcWAg7Pj9IAg8JMlEYzfrno20U2RbYvqSiWr22rutALIo8Y++U2MDE03zIPDriCfhlboALD1S+QV57ZBx7l56zC8q85GcBdjEfULAYQJiFpCfzArEy3shhVbHGV1e1ItvArCFS8DBeD7fezD4eE5eC7rEIz3iQoYg4Yinv10u8C6vWGzaEh/LqDvx3Y5ftGDC41+yXPrplryMLo+8NFzZwYyGIScNkXY06B6+c95pJeNxp24sRLKezMKcmcWuIBcEB6HJ4FAPADHrfWdwUxiyfI/CFkrmcPeL2WyDDhBPC+MOgSkCyG24lLYotxvrdYf1KFH6SSb1cCe3YjVmb7I0z0dXBd083Tqj/NtafOuYMoh7fWXVlNiQgPLnq2M2W24MiiCzK2rnjjDSCWhG29VJM+b6lSHu4gjV39iwS+CbZEog+UIBa1zNU38vw3POJxz0jeoOEpgCXQCqyyzxOGsJkTJGBI+fjwkc6KFm8kk6ItQ5tcdjK98+yqgmcbFW4ryvmqosAzqBKb1ni96PsgPiSFkW2mBMcD+Vr2eg0uxZQbTxtLNxDOBbA1fWRY3JQyD5vtJTi8CDgnRvu104g5cn8U4+Z1n24IBc7BA3S1VJCb5SJv2G5r1ybIN4h9Dy2AOJ0BvSs582BZDB1AUp/55v52QykaWCEM/97cPEE/40jXDJKlPNZddWcHP0jN/+9+E0jhALWwfYqiTq25K2cTGKnN7NSEG3sbmcGnP9lT36VPVXqDFvvR/Unc5r4nP0vjGDNA1qQLvxxksbNQDZUXEXhZM/5V/WN0KOOdmGdbidFyQht8DNPrYU5MiG5qpyRBAQJEoBKtKcLED/6YlofzlUhcM59OiI4vk8sA43pS1G6YL0DUSPJgBghR28xs75NVfzAJEkCkLGpoc+xL/Zki+iVHP382mioPwzXxrlBzArwkiyQfT/L97KHHGdkOybToaEet4pwhpykls932XmlKmSIrnyQvzb/UIdBZXSCPfNSB5XVBbos1/7VEmFHNj6r+TjLM2pKyTG6YmEkQa2UjKpneUtlSzJkABIYHtkXtqoYqsskgrenKrIIR4j6paa5lx0eA+wcmY3rYtDc59jGj3gDlZf/6cqAIZnGiPJzCer1OZuUC7zkfEBOH3Ox/lde2XmKZ7/Ar8LEIC7Lz4ckEX0kv77W+8CI3fy3ARb7q5WAp2DfhaA7pfD/+Xd+A/4co4TSC9au/mY9anx6t0eMGAEwp7YJjiXuGCpwW9xVJ/zQLnxpFW3kMCmFOsxsu3G4gse18+nhqaqgwyw+eSowMHrWXHmS/VSzyYUhkev5isXg9iSVC29ct9o/puHR2bCp7URXx+J30sftZYWEVY2QOX+6PipCbkOi4U+RctOBGrHUJSV4/p4ZY8MKxzzGvRW+d28NTepXoX/2yNC1JO4MYiGSqgYDhRC8u811XwLLEEHELtx1UBlCWF6YV8sj1QgSUh+GwtUvqBZy1QVP3Kx40s623jOT8zlyCH24k9/nyfw5/2ver1Gk57tfI+fJ/Dn/a9Su6J3d+jACZ5MOVyBxaEMXJJPasT2n6lq3xwdK0Xj4VUVn9pRVTdUSnapT343Y15jYy/3547aqkLRJ9E5TkhwpkH1d1Y+kNaaCe6MZmwYmVJpGxYwZ8VKC8hk4YSxS634w6XhGd5LYxnP/v4Wg156n6evZFKiSUKqctEcg01WQS0DYhyqNWZCDKkPvSrTxLvIVLi2VWIllpVs6/rJAV3nz+5od4bV/vMQXh+kcufstsxZYKZbXi8dr1thSyhmDVPS2CEiJ7VUtqyJtnLOT61x+1WdrZQf/+pcOhYSBOnkD81CuXMFXxfJoLmxaGpq27FEHTPdQ7pA2NZ6Jv/r+Q6fljk0TTRGno1OwDdhSHbdzoibZiiRf2k9tstVKNPFiZORzUyJBtBiUVhJkDXhqwx0XzwMkAmqNmdIrGbEuxVMgeA0P6j0q+pF5GQlaYaI35jXye+1pWQOgNxk33JQZdDLJpi8Conk+0ezQ++LPkGN4QJgasd92pzObUq2a12utNOQ3Gsbd8BFgRJURDt3ubAOZYucTrG27g+UTI8yC++jyF0ArfxE5awGXQ/9+U4TYBI/55dO1trHBByuazftxzwNmcdwqs3/hix7UI0oRqZqBjNfI5IOqXEOUgjqtA+NaTgxmmGhcd3ngXqDMw9YaumOalXK8hXzrITvagCyZgfkD2gqrGWS91zv9LEHtgW/V9QC3WlFmeX5zc0pGoH8eJO6bSH4X5PsCnkJHb27nXzgItC48ZqJVtUlmqmhDqfOmrTQZS7yPwhDY2ypFiNzwvVy7/TBjC/Y7tRjhyO7t+Z4sMs18+CUc3pUcperu/hx50ALqE+/sBrfOS9mTTBe2ASOaWU0IpIbqQKczAxTxUF5h0lZIzM7FvTsk9Ez/2fCLUXE/tsJEWGBak8KRcaGi9ImhZC2p6jmbEmJUjrrUba69+4Zkgu04qOuvLMMH9tER8gES79+bohf/KCRgpxRsTp469X6LF6yGV4oPBocRRyePVEdqvF7aTTqDkaqTLvmu3tdfMf6/wFsgHZjg8vx8+3xCsuigrtG5ceoO1TK2YgldYmw0zQ4jVs5npB9o/FqlNQbPdp9BiAp5k3mGMC6K+yBdzoeBUosPYbGiltBxHdQ//0/77vpW3k4yEtQ8Pi87rrQAyDu3VJkoplS/hx6ZkM+aOhoKofVGYzbYoEMlRZTw2eXZy37sPM7AAEHhPeLKbIXEvKhzNP1wqwAU8q87Au4WCC4yIh8BI0kjErtkUPQAd/d4er/Y4JuoyjN7dUQGrzh67HaUYJ4EwxgOevPdC5QSVLyj2GBN4WJGcfA8tkVcoZeUxWbK3WjAiDhhd+gIftoRY2feOTMLvg97NjKdVG0GrqzP0QKr6q6KoEDt+tcY/+cDjtTJlmgzGe0elL7Hz0lbqE6dScxDjKQtAwOIh0hvjwvIe1b6TnPKEgzPurjuAT+uvoq0Twou+BOkZqTKY1MPOhXMu9SdL+YChmsU9xh/2CJVpyf43kK0r5kRt9I/hYlR8CqeMtHYiGTy1dQ8jB681Sw4iDVC4O4ERUERRqJj6HxlSIL28IOgqB2+2vjWLSUFzQfQzyOXT0Q+ESpo7fRZFmA7LMsuqLnEY3QM9lcoDx+2npfUNgEpj2WOv7lY4SclIyGJobUjY70ByPnUHpz07VWgVvoyw8mdSrE7kYC2q+MsY0Phtb7OvmskLsXxhSjTOYFJqPQtAor/llKw6kdGzExymcL3B2jXju1q1gSSYlOWR7qdx0SGW7qk1G9LLngvpeMyo5tMBY+OF588SJUzUzExUyCIwo8aHy1ZBlC/c/RghV1dJa2gWLCOM9FEwiHx/1eOMJQ8H2YiiC8ZvRUVBhrDDbkILbujan7uC78EvkUof3yFoMCuEiUODhmmzE30vPdaIv/cNE8uf8zzgj5FySvO0wENDobKrgVZyncRLUsYX60SszqXGu6FJxiY/VUBc0EXy6BJIJqY4s2+xuqZ0F0Zn7xA45nBQhRgRmDrX+TXV8M3B6pTnkMtmZWhcOagnx+sRD0313mLMFT+yim7pY8guBkyBzfjTQ8fpwdTrSzHb9i5MSOzbhT67aPe/gSTrCXa80zqBliYRJEXahiIkNVeVdeFmz+k5ED+9kSA6GmTaAXh0BafYLAjIRtxybrby2QVI/cYXKawmXJvur5AJ0blfDy8fLGsIN87YxwbeCdOO5TR38kwvZ7huLRQUsrnqvQFKuIuJxk06CsdGbcZWA1BRcYxZhNMLW1dThT2ipGpi7QfHSjIiHUR5QgLnjlhjvfXVSra3YfYBK497fKvsUZhcvuHpHt9NZbRkxnVamIzf4jU4M9kDhcTDjNY5H5FxstR9vzM3VWUqtjQdSyZjfnKr7HkgJTkC9MciUTI9kQMyRGgW63WroYBVfKJZ0SCOe55hZYiHXz3oylTtamoSmbvfz4TK/NoMO7fHPexmdtCUJhTGmm3dnrrM1d3clUbtNOXwMJzNZpSl2lUe09Ym7UA0La+c9zWsVWI9lAPe8/u/xg6rDgjXVY2KETLuAcNtJiQiUGwNcfV2G2Uuc8jfBstV+x4Kzh0gZVAMduuNAYkG2FhOnD9J4xZXpC3px8d/c2J148CnQApvqI8fJNPaiHUZ4zQp0AKbm2rJFpbpyhLqvRmuloxdNywl+h0/dfQhsqG51BGMxrs3V+hutVAzVbJYpo6Luij2fBcmK3h9AVwYX1rj2rReT1ZC21DsD8AASRtNhD3ESm8nZr9oDDNMgEW8ZHHvge/S/W4G0ff/YNkVg06AADug35VkBefLhybijKnqBnW+8FNA61XmjlkZPDhpuHUu2lRiPF/GzPjQvgAAmzl62Cxv59xiLmtMRiGT8gmO+/ik/fc0KFkbdpYFOsBbZ+BXNSdwYfkmyirKPpHILG1e0MVkartj+LDEkuzBerIRuT6LHTTT645r5zD4dMXqdAGB8WQyWmnjXY2yYk2U2AhgVCm6Z0s6oxoLviDxTmMPzQzD4cHHZxKgG1r2K5ed4oo/G+7cKGfDMG295YOSHaxzH3iYCgqEK4qi46o+qVdxTIBwj7ZS+j9g5+vo3vYBvqInF7ZWPhuwtihBuqKLWpKovj2O4cgjaLTTbK1XHJmbf5rm2VPSGZMtUt/jvBXCM7BK7WUKWsk4NnSSPCKggHvU+vZat/uVBUsPrMRidLvgYTlkHWXNOsh16ZhuioeXG8I/mLle+IqLgIHeKnmc/cg11DTtz75K7jdf8QB5oNmQjagggybm81PeLA5OvO1J3C8XFSIutB7e8XjTx83pCqKQZyHO/AqpOaSMNdW2n228c2jdou79LVkrkLmwvYUBZMR7wuAuulnJIRw7xpTMfPuzrTtUzSXj5szvltzzZ9La7tyWmK0Qi/I0vhLZx5lmvGydlnh92lcR72iGLHUOarC0pZ7pMMyLbNf3VpI5ZBj76NY/CN9qjUWwhc0u2fLQiBaGpf+63tj8XfW5yctbxohQ6z1v79IQm0zZ8/GAyB+AMG8mhjkEzjidmVdzT474bNc8Yj5JsOD2lh0KYldjTkbSsmZA2iRRwveicSiOhxnxkc5t6ecrjaPIhRMqyjDyowPOGYSjImSZ/O804DFFC0p4uIJ7dDQ0sNTz5nadZAtbN+d4SdemNSxYLLg3IE+DMbjXAeoL1X7mzW2Jz5PbGadEPQth4NcCONdPKKCf5aNyA8UWWpSB0VdU0iGl00D0vimJTzbAzcSy2XFoBYKQzaNVMp+TJ9GvTv4W6pQ17ccCNy8npCRajEF+bEpAr9GZFAvnf4zm/yGQzDQ/Vrb2ifDo+XG3zEdxg5ey7zi0PoyCojYyh0i2ODfA2MDbBZA3h+/8l2Fn6ctgh8U3p2z5juyi0sZE/9cMZdeREWlx4cdmaNX9iBhwGjj2Dd4BVWBfxwGy4jrr4/2jVFMqDm8z/wRR2TXLLsOO3iitlkvuvPRg38EwlzOGx6iPe+UYgCcW7AvzQ0Srz/nwaTDU7Iihogaogmt2v41AIwiMlSjzDMEBub5omG1nwRrpVaqaeEmn/Wh1e5GuAOYG5rEMpmCLosXU9IPgYnGXgbGGyXJIpTml75JdKWI/NkoOCtEzYI1kO2y3nUSO+JmCqsilNZEsFG/5m+4sih7PtzJDUhHuLV5HcbxdDXZ2uCGAHNqVgKc7taWRtnWUkK7IXnNEoxuVf1xHxknEENgpU2/RbBW+Y3iVg2GqeeCZghJxNPSzAuX10RLIfdJidlnCL22v6w4zUnjonlkTT2XZ7z6WD0ArQ5ayyQ/91z6UFlpoVDFIc9rcgsdASdZrRdXLOt4JRc6Y67aJ2jlItPDQhv3Gz0zk/KSApfVt9iL3aaOMSLDSqMBLlsl4pEwCWqJJn7IBu3O4JuHoanIiVk7bv7srRts5L2xKp5eZexLxTpjSjJJGcld+IzY4P9DMLsJLxzfcMkOGBGoVonAaYnTQV65AZTya6EX/8EEjQ8+49zmW5UzzriqHiCTPHMZnCOWASA3xbwkSIYHc6svO6gcl0oDZdGDyiHeFYH1L9wFbXQVLEhFQmL2RjTWV7PvkDy4tOaIUcmrcWFdhfsOa3zwZzbeZ+fthrOQKmpilcO1FyVdQC3McIo+avomu2F0hvx+YUrudz717mCS9l9NuEdvGQKFvTkNaOCUVHncmeL456g95bD3d4MGp+attlvFLeITYrPt7xrcYMDn0VaWkj+bfoZE6XtVP/6FO53gOxF0G6j16IHpaqUoE+VNnxz29fvo8hURZetO2lNvh6Nz3txBhQoUJfgIvdsNMNx2pxK00FJ/oi5gYunvCYCL8J/PJIkBl3Wb/Q6sEYXPlROI3O7NrRMOfnMkPJR7gxsz1tDuybE3kerysDPgS/mxe4vOcmyHhi5jiV5nNXrJ8GUJ+R2xD2uCfXdLmPNilAC1qrZoyaRqxL2jrT2BVYhtuzzNsagSX5jfVw8T/Gg+ujhQjE5mKw8eu7VJmVt66yIi4oC8x9FNQIVaHCqEUzz8w/21woPgONMQJVvaYt5L4suQXfBlo60NRF3K2ws7aPo69ai3XCDCDWrcdKIaCZTeG0KHCWdkyRmY9j/j/0F+xnAxde06cDwiZOg8wfBtFOKWxR06a0bezSz/MgeQWZXBz4BM7cCDKyUuKTPjqNP/A42DFSIO5K6M+wulrGoeB+e7MLBkFwtjTlBZXBVWhjwVskOpAwlOLxxQthz/19VW58EVbT3IDVUYF7V0iDO9I3z+6+h83hToXeJFOZURUhBQeagoA6FI2Vp3YuV+fP4jYvgwJjwR0MIM96qyYLNhf+cz0iZFR2G1o2OAHHNECe0ivhV6bl+pDhM4HzKOxKQbdBuchDvGp065QW/T7Ms/tsz1pAKx/GLeqW8k0sgUq5FSkTzzkM9NRCXe2r/Uki1/7dsJooEAByQk/AQ03sB7Ip9A1CX0x5v2kJSimoxZKIk9NPWiEo3/dc0Di8zI3ivpjX3Niw838aoyE/7Lkr4xaBiLc4b7MDIIoXWem7lnac2CiId4kevDf9jyMGLA5JVCnchPbt8qJQeK9HUy5bMXL3Rihbiy5PDjDAgIxnySxEWt5rZPpJZuO7UTFw3FcOrW98N+aOuvW/t7eZ+GMuJTWenwE6eb2+3+NWerzBgy0XFHUQym43AlrNQ7wt85vrRhb5HXYliJblsk2v4J0w93BY/zxrYCHBbBn6aCzsntqYH7BOoWttXZtal+lKoKNF4TIjH+RLDxaYTS7aXL1pcuaKjfeNFytzMNvq3FLBk6XIOwhtfc7jQs13uTKvJ7qFpkwvwUPg2sgmOBf9qz9fvTkl5VORMqoDAIja4K63mE484m2M9MdqQgpz3mqs0/Q/2iAZy4aHNgD1xjjRxxTCXho81VmS/iWeseACbweLFzslurcyth1Oea3rLVkqinOgFQUO4z+oFGzvzXxP0dKoZC6Y+UnogqaqFgi/Z2nQ2aj0Vqfy8sSJ7EYUdHtEpvIYYDLJ6hvx8E6MxRviXF5rcjNXJ1Uv43J4Ic7sWaV6p1bP91jQF1lm3Nk6W38pi1OqN2gucrD7fo2mqdkc/fMyTucgyMy3BEqE/Esn+UveXeHGjTyrt7FJJVYwVJq5B+wpfITqUbqw5kpfu9ZrboSte4mhUzdNJSAJE3pBlZzudvN7+n8+d3xar8TOMMcPSpRH73WGFQ7bipNybuZcAJkkNO4KrjF6/w3hut9G+UYuE2szUHRFz7GDAC9kGeSYjzeUWPfbIexZmtl4JYMR4jX/SsQTTh56AdttVyJKUDUBYjsbqPRgEOt4A+zfPo2vUVtPPj75hq4QB2V6MuzcjQQC1tOV0YpgymGhNzp+IIfQOifQQJflkuu86Ud6DaYktg/qI6N5SbsiaWp7yxUsaEL+/EpCCbZhxp9TMVPPXPHsu9k2qZKeRx9o2uQ06BpxJr3bE/yXRIPC76kyOKcJIX9FRETJcAn2i9PG6Nr4qO1kYKDaUoh6K2tN0al3YWs5YFscYDeFUPjZTCeU2WbLFlwVzjhBIrhPj3QcAqqZvV/wGXTDiD0XcH8pkRKnEIH0UmgpJ5vpyMCRbeWjo13Oh5PqXJzbb2Q7XLQtU0h8K5IAMyIvQ1a6SdtvyZTL+bX4yzqClFGcYkAJcSthEFHCCgtXwTnwTFsPs6GtexRbPPUFxbGFApJp586QfC6oMpUkdXVDy3l6eq3r1jKc+qJ42nOFRQhATdZ82LBXWLkZvHCa32yQCVIxwXL989FIL2poLdfeqmFEdGcwShVEUxoT0yoCiM5AZno50RF3TysM9jlM3QA1Emnxk1quSF45ZhzC2aOnkpMteXJlHauGpsNPP0lQqP1RndHG4gZagVHMOm/ZJ504PTDbgBSKfpC+OQezZezaDtopU6p3S4wZg1cUv2yxMMklbzsYZzGZ/blvB5SjLPWGu/ZVJKqKvxzoPEaDHOcaZCjYbaVX+Kaubt55/L6Pqn7TLO/Q4TDRCq0yxmpR1b55xHlc+/NQEV1ZHRO47coll8v4FKydRdBi/5kwzJIVDVZ8Wn4rJgtJ7wDzM/t3HvArV+kTj/C/BIW+BYx+RQBb+sbUaLTy47XbUKy4voPmFN/GEUch3wlYZYw/HHOrB9G1cEMAYs/6bCR+pxBnpQWzJx5lMI1hEqK/xJUpvMEWlEAF/qT7kdGdU05KJbMCOO7O6WHkzvqNWMV2Vm8UbXiBrq71CEvn+yDZjeReiKjnBbjZ47wqegqIyvLLxKgTUFrz/zeS8Z8GPcATXjGdwEhqreXDYW2qUG8rGLf7qgsgwUk+KvOTRtKQ+AUa+rjl2jRrEHyj4K1odLBjxED0oPdNqnijQ++L2gvmRh8oehJ6FOReazfTrs6kWeDlfUk1dXYIYoUD2VFm/ib3EaajvI3BkjxUujgiMWbBVoI9y2w4VsXk6Zf5Nf51FLEIxzL+jA7PU6cIkShSHCTl5XtrdUZD1nyOnGqvRJZWthR+MU67ITKHy1iyRPPTt4noMbTbbfl1iDmdUp/PXXhz9hRBEbaiZJcVJCjU/Ha9k1fkGyfCNucxbcI42RVFzrQt0z3kMH79pBJ2Uq18Pu5oHH+FME58oPQS0VTYoXyxsDpM39njacepqmznvdKB3VxPD7dA3EwM1FWIvxNTTJX2gc2T26mr9u2xqDk8jbJr67lDeuF7W5TSvDMjC4I9WuDrPNHP3tb/pbO4npgRwy71SqGF6PhEBrA38ub1N+sgn4qGT3gjqVim7Vxsiicb5Sm6tSoP4NzoPNSv+kooyCo4MKvlt0HyQylLhwGZ6wh6UKb3wIXt8d54axPVCtMDK4Ula7XmhunK9BgWV3MYwmDJsWyLb+FZye6iQlAJ7VDpIK9LNlSzeuWjeZZhD6zk9PjA9WXFXXnrRcn3wnGZjirmqlLqA+jdr3af0SSQ6tRLdYuH4zlxmAiA8fI6idHP024MUNFn7PV3oywOoyYEv2w5uIH2bq/jQQV6uhOr8Nqp+AH408qFRusmyXpSU+Q2evXLFjaTYcK6ZlwAuU56/8wrOtnIF25Nqp6cc69VGm2ej1lVwXBLydhNVaaPEB/Lc+x6BqyCfr9NO9VL70XprsYRFpkwA7fjiJjwhe2x2zZk/sOHbwJfI9rOaigBWijIsjhLAYNiz+Zn1fcrWQF6RFg8lfWO3X2QDALQ7t/hQP8B7JmCbSOqMJBNnLyOim7isTcJljBlo8JIznCERXh7Xv2p7cU/O9qjyTn8KxJGI1S8Yhl2f9f5QqRh/tCUYPwXOPI4LmEbFdAj5ajae3uVWiN8LTJwmmnN6HQhMVcwo2Uj3DrDsHTpTcJesXZSDLfK2S137or1BnxNXu06/q+aSCMplMGVtteqhfJgi4MKRUfwFhRhV7GFp1DE27GFyNVYS2+gvAcTBRhe1KTbEq4q3iwGX2N/q/P1HeroOrB+ZvyqNxmjNpDBdTm63GcNfvwwdkFPkhd77vvtxKgHuBli0xA+G2c6XrkteqRP1AZsrG4W/NVs6vIQksYq6k/X92pfgc1aAKo+IWh5bhhda7/N7KC+ZtPyGGhrlXgsiNxrlzgr8bFwP8/HVIl21++DoO9X+y1ac7rKzezW1M1OrvDDjpDJDbDjyfKcOugX6Oho6tkZGvkByVTMIkirthNy3NHFstI7rmRLryXOgzcl2vFZ5O+lYvleiMSI37eGXHp7GpP3aynuWzjWtRmreuSg0RME02yreIgaNpxHAHwnlmyyGp95CTVyDa/NfbVD3G2fLM+bEdw6ktuRyDjQDZlx3A9Dq3U7T2ZZormfz1m7HW31NfJLR+zChOZtumKT1M0GpZUhApPlGKMrVSWldY+1vbsNd+/RAR+MEs7bURRWEM1Gnnbw7veVZNAmqKw4z8nGlIyKzGhIVDiFeQAIXW0T4oPwY8RHtkKW5W2ghQlEYvCFqbiFagcim1KsYPvBY7MbjQAWmA+LGVZbf764CVsDzEm5tE26onDgL9A6OMr3XwKpjwSpwvl8r+4wzzDtaTRjAd7Hrvs4zP544nO6kIGPt4SLmfdBrCgoJ09bjdG9iDBL6HIkCvc385YXSMIEDuI8CKWOjbfiXz6HCxuHKfNFT6sGJK7fQ7ugljtbT7nNVEoaLk/SE0x7eZcX2I5MGja1YjzviW6SZSi9wa2diEA9z5JoQnAlpKZn01GOAl6N5VKQOvj8g3hG6cuaKTY8L/jGXT/zimvLPudJRD4/WH3aBX9UKi9mzDA80tCcBr+mDrGQ2UwD37L35ywb52psYNaQQ+OXNRqCUL9gavJH5H4HZ+1WZawticsLqWsBjdOMbZ6BGSIN7l4bgib81JpxYKgy3rx6XK35Z3UlgfpZ/YPrQ3Jwy0EQFnpEwV5AJ36BtFAYr48CjyIITofGny1NwYe22rZJ8Tg8YO88YBJ+luHHRl2xsRqs52ZTJJPY9mKUChn4QGRpbkZ+9PnbOnjhHsk0gLIhdb4vBlJOQDRLTHTIFi0MwXAYJ/39Bu3l2JIgoVCId72NFvQ4t0eFVyGppaahUtrDzlQ5jwjEIgVcnC/N/muw+aG4aoRkSnnty/shTrU1h6LNsIw+6nDeYriXXNDQHmURIDNr5fC4tmeLNsO9Og3siS23xKyu+ZrCGCrnzhi35trPheP60368lyX6P27odfI71QPKS23ey9rE6lpd5SishplccBgm7M4fQf2dK0Au7juyymB9AXjW9nQkQG/O5W2Dn+SUw9PXGlOl13UbeUONnGqZLzRiv6FK6PVLNbRnN5VUB8y6Bq4W77WLNfpaiBaI1oQIF2V0ocKHUuEVIaxBfEtFbOg+5BKgw5amu2U9aZw+XTo+W2zAp/WFNCcJCdqmqHRm0ZyRIAQ3FYqwQ/5kivG6PLEq+D2h29/GuJHIV8pYR+wVSWoS3xWNnVto3wEQfjsjvg9LkoAznqRhkRLJLug+UVI11HKjRRLwnCZCoXGCb9q/WdjGnhCFsro60ONBFwrUB12fsOhEfzZSOzQ44j/aMt27NPOPwGBL4RPPK23nIHfbnKwhPPYhekhuSjwVp/oprmBRG49VgKkHaUifAwl3yVkKvZ1J7JArNJu+syncgVNNIXsCr1riyqyoeJYkPOh5tAwt5boz9FQrUvwIL5UOLOSQJJpUTOTscjdDIGy3HFdUTr/TQ7n4R0nJD0sUyf0I0ORilXx7csDSh5QoZ92uVgKv6hOjvJiK23vZNQelVHgelVHg/MxkXR0QoAAAAAAAAAAAH6ZJKI6LgvsVkEkq/ecio9AEu+v8gp8ts05oP1P8MCiRif5AMH9QSjrCS0EO6QLG5t7tFeLxNO77tcAasXC83TTJ3+YzrodIvhK0R6tMhNYK1DFnk1oe72KFvN3L9zxFGZxMsw853JXi+QT7EDvZ/wekBFjdZ/z9NlW51DT5Nhhlot9I7KwwKzDN0hkWtrFlwcfS3OEaxTxfjyuxghOe4zHumddrvqbO/27/pPLlrHuY5GcnMoYY7VH6vBapGQIEdIIbGSLg6llv0Kq39N6YhfrQmTYDr78qkxUpMFxCV5e5EU87kHPTSmx6/FhzpKZrS4mE7LitAl99qbHXIgRzrCXcw23uaZqAp7pvAAAAAAAAAABFWElGugAAAEV4aWYAAElJKgAIAAAABgASAQMAAQAAAAEAAAAaAQUAAQAAAFYAAAAbAQUAAQAAAF4AAAAoAQMAAQAAAAIAAAATAgMAAQAAAAEAAABphwQAAQAAAGYAAAAAAAAASAAAAAEAAABIAAAAAQAAAAYAAJAHAAQAAAAwMjEwAZEHAAQAAAABAgMAAKAHAAQAAAAwMTAwAaADAAEAAAD//wAAAqAEAAEAAAD0AQAAA6AEAAEAAAD0AQAAAAAAAA==;" vertex="1" parent="-rQd-odtE4Rxx_igMqNB-9">
          <mxGeometry x="119" y="29" width="81" height="81" as="geometry" />
        </mxCell>
        <mxCell id="-rQd-odtE4Rxx_igMqNB-18" value="" style="shape=flexArrow;endArrow=classic;html=1;rounded=0;" edge="1" parent="-rQd-odtE4Rxx_igMqNB-9">
          <mxGeometry width="50" height="50" relative="1" as="geometry">
            <mxPoint x="280" y="223" as="sourcePoint" />
            <mxPoint x="314" y="223" as="targetPoint" />
          </mxGeometry>
        </mxCell>
        <mxCell id="-rQd-odtE4Rxx_igMqNB-19" value="" style="shape=flexArrow;endArrow=classic;html=1;rounded=0;" edge="1" parent="-rQd-odtE4Rxx_igMqNB-9">
          <mxGeometry width="50" height="50" relative="1" as="geometry">
            <mxPoint x="437" y="221.76" as="sourcePoint" />
            <mxPoint x="471" y="221.76" as="targetPoint" />
          </mxGeometry>
        </mxCell>
        <mxCell id="-rQd-odtE4Rxx_igMqNB-20" value="" style="shape=flexArrow;endArrow=classic;html=1;rounded=0;" edge="1" parent="-rQd-odtE4Rxx_igMqNB-9">
          <mxGeometry width="50" height="50" relative="1" as="geometry">
            <mxPoint x="159" y="129" as="sourcePoint" />
            <mxPoint x="158" y="170" as="targetPoint" />
          </mxGeometry>
        </mxCell>
        <mxCell id="-rQd-odtE4Rxx_igMqNB-34" value="AWS ECS" style="sketch=0;points=[[0,0,0],[0.25,0,0],[0.5,0,0],[0.75,0,0],[1,0,0],[0,1,0],[0.25,1,0],[0.5,1,0],[0.75,1,0],[1,1,0],[0,0.25,0],[0,0.5,0],[0,0.75,0],[1,0.25,0],[1,0.5,0],[1,0.75,0]];outlineConnect=0;fontColor=#232F3E;fillColor=#ED7100;strokeColor=#ffffff;dashed=0;verticalLabelPosition=bottom;verticalAlign=top;align=center;html=1;fontSize=12;fontStyle=0;aspect=fixed;shape=mxgraph.aws4.resourceIcon;resIcon=mxgraph.aws4.ecs;" vertex="1" parent="-rQd-odtE4Rxx_igMqNB-9">
          <mxGeometry x="228" y="86" width="78" height="78" as="geometry" />
        </mxCell>
        <mxCell id="-rQd-odtE4Rxx_igMqNB-10" value="Public subnet" style="points=[[0,0],[0.25,0],[0.5,0],[0.75,0],[1,0],[1,0.25],[1,0.5],[1,0.75],[1,1],[0.75,1],[0.5,1],[0.25,1],[0,1],[0,0.75],[0,0.5],[0,0.25]];outlineConnect=0;gradientColor=none;html=1;whiteSpace=wrap;fontSize=12;fontStyle=0;container=1;pointerEvents=0;collapsible=0;recursiveResize=0;shape=mxgraph.aws4.group;grIcon=mxgraph.aws4.group_security_group;grStroke=0;strokeColor=#7AA116;fillColor=#F2F6E8;verticalAlign=top;align=left;spacingLeft=30;fontColor=#248814;dashed=0;" vertex="1" parent="-rQd-odtE4Rxx_igMqNB-7">
          <mxGeometry x="356" y="91" width="615" height="248" as="geometry" />
        </mxCell>
        <mxCell id="-rQd-odtE4Rxx_igMqNB-13" value="AWS ALB" style="outlineConnect=0;dashed=0;verticalLabelPosition=top;verticalAlign=bottom;align=center;html=1;shape=mxgraph.aws3.classic_load_balancer;fillColor=#F58536;gradientColor=none;labelPosition=center;" vertex="1" parent="-rQd-odtE4Rxx_igMqNB-10">
          <mxGeometry x="261" y="83" width="69" height="72" as="geometry" />
        </mxCell>
        <mxCell id="-rQd-odtE4Rxx_igMqNB-11" value="AWS Lambda" style="outlineConnect=0;dashed=0;verticalLabelPosition=bottom;verticalAlign=top;align=center;html=1;shape=mxgraph.aws3.lambda_function;fillColor=#F58534;gradientColor=none;" vertex="1" parent="-rQd-odtE4Rxx_igMqNB-7">
          <mxGeometry x="192" y="455" width="69" height="72" as="geometry" />
        </mxCell>
        <mxCell id="-rQd-odtE4Rxx_igMqNB-12" value="AWS Api Gateway" style="sketch=0;points=[[0,0,0],[0.25,0,0],[0.5,0,0],[0.75,0,0],[1,0,0],[0,1,0],[0.25,1,0],[0.5,1,0],[0.75,1,0],[1,1,0],[0,0.25,0],[0,0.5,0],[0,0.75,0],[1,0.25,0],[1,0.5,0],[1,0.75,0]];outlineConnect=0;fontColor=#232F3E;fillColor=#E7157B;strokeColor=#ffffff;dashed=0;verticalLabelPosition=bottom;verticalAlign=top;align=center;html=1;fontSize=12;fontStyle=0;aspect=fixed;shape=mxgraph.aws4.resourceIcon;resIcon=mxgraph.aws4.api_gateway;" vertex="1" parent="-rQd-odtE4Rxx_igMqNB-7">
          <mxGeometry x="46" y="454" width="78" height="78" as="geometry" />
        </mxCell>
        <mxCell id="-rQd-odtE4Rxx_igMqNB-14" value="" style="sketch=0;points=[[0,0,0],[0.25,0,0],[0.5,0,0],[0.75,0,0],[1,0,0],[0,1,0],[0.25,1,0],[0.5,1,0],[0.75,1,0],[1,1,0],[0,0.25,0],[0,0.5,0],[0,0.75,0],[1,0.25,0],[1,0.5,0],[1,0.75,0]];outlineConnect=0;fontColor=#232F3E;fillColor=#8C4FFF;strokeColor=#ffffff;dashed=0;verticalLabelPosition=bottom;verticalAlign=top;align=center;html=1;fontSize=12;fontStyle=0;aspect=fixed;shape=mxgraph.aws4.resourceIcon;resIcon=mxgraph.aws4.route_53;" vertex="1" parent="-rQd-odtE4Rxx_igMqNB-7">
          <mxGeometry x="48" y="172" width="78" height="78" as="geometry" />
        </mxCell>
        <mxCell id="-rQd-odtE4Rxx_igMqNB-15" value="AWS ACM" style="sketch=0;points=[[0,0,0],[0.25,0,0],[0.5,0,0],[0.75,0,0],[1,0,0],[0,1,0],[0.25,1,0],[0.5,1,0],[0.75,1,0],[1,1,0],[0,0.25,0],[0,0.5,0],[0,0.75,0],[1,0.25,0],[1,0.5,0],[1,0.75,0]];outlineConnect=0;fontColor=#232F3E;fillColor=#DD344C;strokeColor=#ffffff;dashed=0;verticalLabelPosition=bottom;verticalAlign=top;align=center;html=1;fontSize=12;fontStyle=0;aspect=fixed;shape=mxgraph.aws4.resourceIcon;resIcon=mxgraph.aws4.certificate_manager_3;" vertex="1" parent="-rQd-odtE4Rxx_igMqNB-7">
          <mxGeometry x="136" y="224" width="78" height="78" as="geometry" />
        </mxCell>
        <mxCell id="-rQd-odtE4Rxx_igMqNB-21" value="" style="endArrow=classic;html=1;rounded=0;" edge="1" parent="-rQd-odtE4Rxx_igMqNB-7" source="-rQd-odtE4Rxx_igMqNB-11" target="-rQd-odtE4Rxx_igMqNB-6">
          <mxGeometry width="50" height="50" relative="1" as="geometry">
            <mxPoint x="773" y="586" as="sourcePoint" />
            <mxPoint x="823" y="536" as="targetPoint" />
          </mxGeometry>
        </mxCell>
        <mxCell id="-rQd-odtE4Rxx_igMqNB-23" value="" style="endArrow=classic;html=1;rounded=0;exitX=0.973;exitY=0.714;exitDx=0;exitDy=0;exitPerimeter=0;" edge="1" parent="-rQd-odtE4Rxx_igMqNB-7" source="-rQd-odtE4Rxx_igMqNB-11" target="-rQd-odtE4Rxx_igMqNB-3">
          <mxGeometry width="50" height="50" relative="1" as="geometry">
            <mxPoint x="291" y="560" as="sourcePoint" />
            <mxPoint x="507" y="513" as="targetPoint" />
          </mxGeometry>
        </mxCell>
        <mxCell id="-rQd-odtE4Rxx_igMqNB-28" value="" style="endArrow=classic;html=1;rounded=0;dashed=1;exitX=0.855;exitY=0.855;exitDx=0;exitDy=0;exitPerimeter=0;" edge="1" parent="-rQd-odtE4Rxx_igMqNB-7" source="-rQd-odtE4Rxx_igMqNB-13" target="-rQd-odtE4Rxx_igMqNB-5">
          <mxGeometry width="50" height="50" relative="1" as="geometry">
            <mxPoint x="675" y="875" as="sourcePoint" />
            <mxPoint x="891" y="828" as="targetPoint" />
          </mxGeometry>
        </mxCell>
        <mxCell id="-rQd-odtE4Rxx_igMqNB-25" value="" style="endArrow=classic;html=1;rounded=0;dashed=1;exitX=0.5;exitY=1;exitDx=0;exitDy=0;exitPerimeter=0;" edge="1" parent="-rQd-odtE4Rxx_igMqNB-7" source="-rQd-odtE4Rxx_igMqNB-13" target="-rQd-odtE4Rxx_igMqNB-1">
          <mxGeometry width="50" height="50" relative="1" as="geometry">
            <mxPoint x="313" y="933" as="sourcePoint" />
            <mxPoint x="529" y="886" as="targetPoint" />
          </mxGeometry>
        </mxCell>
        <mxCell id="-rQd-odtE4Rxx_igMqNB-27" value="" style="endArrow=classic;html=1;rounded=0;dashed=1;exitX=1;exitY=0.5;exitDx=0;exitDy=0;exitPerimeter=0;entryX=0;entryY=0.5;entryDx=0;entryDy=0;entryPerimeter=0;" edge="1" parent="-rQd-odtE4Rxx_igMqNB-7" source="-rQd-odtE4Rxx_igMqNB-14" target="-rQd-odtE4Rxx_igMqNB-13">
          <mxGeometry width="50" height="50" relative="1" as="geometry">
            <mxPoint x="329" y="966" as="sourcePoint" />
            <mxPoint x="606" y="935" as="targetPoint" />
          </mxGeometry>
        </mxCell>
        <mxCell id="-rQd-odtE4Rxx_igMqNB-29" value="" style="endArrow=classic;html=1;rounded=0;dashed=1;exitX=0.5;exitY=1;exitDx=0;exitDy=0;exitPerimeter=0;" edge="1" parent="-rQd-odtE4Rxx_igMqNB-7" source="-rQd-odtE4Rxx_igMqNB-14" target="-rQd-odtE4Rxx_igMqNB-12">
          <mxGeometry width="50" height="50" relative="1" as="geometry">
            <mxPoint x="467" y="351" as="sourcePoint" />
            <mxPoint x="829" y="306" as="targetPoint" />
          </mxGeometry>
        </mxCell>
        <mxCell id="-rQd-odtE4Rxx_igMqNB-26" value="" style="endArrow=classic;html=1;rounded=0;dashed=1;" edge="1" parent="-rQd-odtE4Rxx_igMqNB-7">
          <mxGeometry width="50" height="50" relative="1" as="geometry">
            <mxPoint x="840" y="503" as="sourcePoint" />
            <mxPoint x="865" y="536" as="targetPoint" />
          </mxGeometry>
        </mxCell>
        <mxCell id="-rQd-odtE4Rxx_igMqNB-30" value="" style="endArrow=classic;html=1;rounded=0;exitX=1;exitY=0.5;exitDx=0;exitDy=0;exitPerimeter=0;" edge="1" parent="-rQd-odtE4Rxx_igMqNB-7" source="-rQd-odtE4Rxx_igMqNB-12" target="-rQd-odtE4Rxx_igMqNB-11">
          <mxGeometry width="50" height="50" relative="1" as="geometry">
            <mxPoint x="397" y="561" as="sourcePoint" />
            <mxPoint x="447" y="511" as="targetPoint" />
          </mxGeometry>
        </mxCell>
        <mxCell id="-rQd-odtE4Rxx_igMqNB-31" value="" style="ellipse;shape=cloud;whiteSpace=wrap;html=1;" vertex="1" parent="1">
          <mxGeometry x="180" y="218" width="120" height="80" as="geometry" />
        </mxCell>
        <mxCell id="-rQd-odtE4Rxx_igMqNB-33" value="" style="shape=flexArrow;endArrow=classic;html=1;rounded=0;fillColor=default;" edge="1" parent="1">
          <mxGeometry width="50" height="50" relative="1" as="geometry">
            <mxPoint x="314" y="255.29000000000002" as="sourcePoint" />
            <mxPoint x="412" y="255.29000000000002" as="targetPoint" />
          </mxGeometry>
        </mxCell>
      </root>
    </mxGraphModel>
  </diagram>
</mxfile>
